<ttFont>
    <TTGlyph name="A" xMin="10" yMin="-1" xMax="541" yMax="609">
      <contour>
        <pt x="10" y="-1" on="1"/>
        <pt x="223" y="534" on="1"/>
        <pt x="242" y="603" on="1"/>
        <pt x="321" y="609" on="1"/>
        <pt x="541" y="0" on="1"/>
        <pt x="424" y="0" on="1"/>
        <pt x="394" y="151" on="1"/>
        <pt x="147" y="151" on="1"/>
        <pt x="111" y="-1" on="1"/>
      </contour>
      <contour>
        <pt x="276" y="507" on="1"/>
        <pt x="175" y="221" on="1"/>
        <pt x="371" y="221" on="1"/>
      </contour>
    </TTGlyph>
    <TTGlyph name="AE" xMin="-10" yMin="-6" xMax="678" yMax="605">
      <contour>
        <pt x="428" y="344" on="1"/>
        <pt x="524" y="344" on="1"/>
        <pt x="619" y="354" on="1"/>
        <pt x="611" y="279" on="1"/>
        <pt x="428" y="279" on="1"/>
        <pt x="428" y="197" on="1"/>
        <pt x="437" y="70" on="1"/>
        <pt x="569" y="70" on="1"/>
        <pt x="678" y="82" on="1"/>
        <pt x="668" y="-6" on="1"/>
        <pt x="559" y="0" on="1"/>
        <pt x="442" y="0" on="1"/>
        <pt x="330" y="-6" on="1"/>
        <pt x="341" y="151" on="1"/>
        <pt x="153" y="151" on="1"/>
        <pt x="90" y="-1" on="1"/>
        <pt x="-10" y="-1" on="1"/>
        <pt x="296" y="534" on="1"/>
        <pt x="328" y="605" on="1"/>
        <pt x="669" y="605" on="1"/>
        <pt x="660" y="523" on="1"/>
        <pt x="548" y="535" on="1"/>
        <pt x="437" y="535" on="1"/>
        <pt x="428" y="407" on="1"/>
      </contour>
      <contour>
        <pt x="193" y="221" on="1"/>
        <pt x="344" y="221" on="1"/>
        <pt x="344" y="507" on="1"/>
      </contour>
    </TTGlyph>
    <TTGlyph name="Aacute" xMin="10" yMin="-1" xMax="541" yMax="820">
      <contour>
        <pt x="10" y="-1" on="1"/>
        <pt x="223" y="534" on="1"/>
        <pt x="242" y="603" on="1"/>
        <pt x="321" y="609" on="1"/>
        <pt x="541" y="0" on="1"/>
        <pt x="424" y="0" on="1"/>
        <pt x="394" y="151" on="1"/>
        <pt x="147" y="151" on="1"/>
        <pt x="111" y="-1" on="1"/>
      </contour>
      <contour>
        <pt x="276" y="507" on="1"/>
        <pt x="175" y="221" on="1"/>
        <pt x="371" y="221" on="1"/>
      </contour>
      <contour>
        <pt x="259" y="653" on="1"/>
        <pt x="236" y="685" on="1"/>
        <pt x="375" y="820" on="1"/>
        <pt x="434" y="755" on="1"/>
      </contour>
    </TTGlyph>
    <TTGlyph name="Acircumflex" xMin="10" yMin="-1" xMax="541" yMax="815">
      <contour>
        <pt x="10" y="-1" on="1"/>
        <pt x="223" y="534" on="1"/>
        <pt x="242" y="603" on="1"/>
        <pt x="321" y="609" on="1"/>
        <pt x="541" y="0" on="1"/>
        <pt x="424" y="0" on="1"/>
        <pt x="394" y="151" on="1"/>
        <pt x="147" y="151" on="1"/>
        <pt x="111" y="-1" on="1"/>
      </contour>
      <contour>
        <pt x="276" y="507" on="1"/>
        <pt x="175" y="221" on="1"/>
        <pt x="371" y="221" on="1"/>
      </contour>
      <contour>
        <pt x="170" y="653" on="1"/>
        <pt x="147" y="685" on="1"/>
        <pt x="285" y="815" on="1"/>
        <pt x="423" y="685" on="1"/>
        <pt x="400" y="653" on="1"/>
        <pt x="285" y="729" on="1"/>
      </contour>
    </TTGlyph>
    <TTGlyph name="Adieresis" xMin="10" yMin="-1" xMax="541" yMax="798">
      <contour>
        <pt x="10" y="-1" on="1"/>
        <pt x="223" y="534" on="1"/>
        <pt x="242" y="603" on="1"/>
        <pt x="321" y="609" on="1"/>
        <pt x="541" y="0" on="1"/>
        <pt x="424" y="0" on="1"/>
        <pt x="394" y="151" on="1"/>
        <pt x="147" y="151" on="1"/>
        <pt x="111" y="-1" on="1"/>
      </contour>
      <contour>
        <pt x="276" y="507" on="1"/>
        <pt x="175" y="221" on="1"/>
        <pt x="371" y="221" on="1"/>
      </contour>
      <contour>
        <pt x="312" y="737" on="1"/>
        <pt x="339" y="777" on="0"/>
        <pt x="370" y="798" on="1"/>
        <pt x="406" y="773" on="0"/>
        <pt x="431" y="737" on="1"/>
        <pt x="408" y="702" on="0"/>
        <pt x="370" y="676" on="1"/>
        <pt x="337" y="698" on="0"/>
      </contour>
      <contour>
        <pt x="131" y="737" on="1"/>
        <pt x="157" y="775" on="0"/>
        <pt x="192" y="798" on="1"/>
        <pt x="223" y="775" on="0"/>
        <pt x="250" y="737" on="1"/>
        <pt x="223" y="698" on="0"/>
        <pt x="192" y="676" on="1"/>
        <pt x="155" y="700" on="0"/>
      </contour>
    </TTGlyph>
    <TTGlyph name="Agrave" xMin="10" yMin="-1" xMax="541" yMax="820">
      <contour>
        <pt x="10" y="-1" on="1"/>
        <pt x="223" y="534" on="1"/>
        <pt x="242" y="603" on="1"/>
        <pt x="321" y="609" on="1"/>
        <pt x="541" y="0" on="1"/>
        <pt x="424" y="0" on="1"/>
        <pt x="394" y="151" on="1"/>
        <pt x="147" y="151" on="1"/>
        <pt x="111" y="-1" on="1"/>
      </contour>
      <contour>
        <pt x="276" y="507" on="1"/>
        <pt x="175" y="221" on="1"/>
        <pt x="371" y="221" on="1"/>
      </contour>
      <contour>
        <pt x="334" y="685" on="1"/>
        <pt x="311" y="653" on="1"/>
        <pt x="137" y="756" on="1"/>
        <pt x="196" y="820" on="1"/>
      </contour>
    </TTGlyph>
    <TTGlyph name="Aring" xMin="10" yMin="-1" xMax="541" yMax="820">
      <contour>
        <pt x="10" y="-1" on="1"/>
        <pt x="223" y="534" on="1"/>
        <pt x="242" y="603" on="1"/>
        <pt x="321" y="609" on="1"/>
        <pt x="541" y="0" on="1"/>
        <pt x="424" y="0" on="1"/>
        <pt x="394" y="151" on="1"/>
        <pt x="147" y="151" on="1"/>
        <pt x="111" y="-1" on="1"/>
      </contour>
      <contour>
        <pt x="276" y="507" on="1"/>
        <pt x="175" y="221" on="1"/>
        <pt x="371" y="221" on="1"/>
      </contour>
      <contour>
        <pt x="248" y="820" on="0"/>
        <pt x="322" y="820" on="0"/>
        <pt x="371" y="773" on="0"/>
        <pt x="371" y="701" on="0"/>
        <pt x="322" y="653" on="0"/>
        <pt x="248" y="653" on="0"/>
        <pt x="199" y="701" on="0"/>
        <pt x="199" y="773" on="0"/>
      </contour>
      <contour>
        <pt x="242" y="715" on="0"/>
        <pt x="266" y="688" on="0"/>
        <pt x="303" y="688" on="0"/>
        <pt x="327" y="715" on="0"/>
        <pt x="327" y="757" on="0"/>
        <pt x="304" y="783" on="0"/>
        <pt x="266" y="783" on="0"/>
        <pt x="242" y="757" on="0"/>
      </contour>
    </TTGlyph>
    <TTGlyph name="Atilde" xMin="10" yMin="-1" xMax="541" yMax="798">
      <contour>
        <pt x="10" y="-1" on="1"/>
        <pt x="223" y="534" on="1"/>
        <pt x="242" y="603" on="1"/>
        <pt x="321" y="609" on="1"/>
        <pt x="541" y="0" on="1"/>
        <pt x="424" y="0" on="1"/>
        <pt x="394" y="151" on="1"/>
        <pt x="147" y="151" on="1"/>
        <pt x="111" y="-1" on="1"/>
      </contour>
      <contour>
        <pt x="276" y="507" on="1"/>
        <pt x="175" y="221" on="1"/>
        <pt x="371" y="221" on="1"/>
      </contour>
      <contour>
        <pt x="409" y="793" on="1"/>
        <pt x="431" y="776" on="1"/>
        <pt x="390" y="699" on="0"/>
        <pt x="361" y="674" on="1"/>
        <pt x="338" y="674" on="0"/>
        <pt x="298" y="691" on="0"/>
        <pt x="221" y="734" on="1"/>
        <pt x="161" y="679" on="1"/>
        <pt x="139" y="696" on="1"/>
        <pt x="183" y="774" on="0"/>
        <pt x="209" y="798" on="1"/>
        <pt x="231" y="798" on="0"/>
        <pt x="275" y="779" on="0"/>
        <pt x="349" y="738" on="1"/>
      </contour>
    </TTGlyph>
    <TTGlyph name="B" xMin="80" yMin="-15" xMax="497" yMax="620">
      <contour>
        <pt x="84" y="0" on="1"/>
        <pt x="98" y="198" on="1"/>
        <pt x="98" y="467" on="1"/>
        <pt x="80" y="599" on="1"/>
        <pt x="89" y="600" on="1"/>
        <pt x="198" y="620" on="0"/>
        <pt x="264" y="620" on="1"/>
        <pt x="455" y="620" on="0"/>
        <pt x="455" y="462" on="1"/>
        <pt x="455" y="368" on="0"/>
        <pt x="383" y="322" on="1"/>
        <pt x="497" y="286" on="0"/>
        <pt x="497" y="169" on="1"/>
        <pt x="497" y="85" on="0"/>
        <pt x="358" y="-15" on="0"/>
        <pt x="240" y="-15" on="1"/>
        <pt x="152" y="-15" on="0"/>
      </contour>
      <contour>
        <pt x="193" y="52" on="1"/>
        <pt x="229" y="46" on="0"/>
        <pt x="316" y="46" on="0"/>
        <pt x="370" y="62" on="1"/>
        <pt x="405" y="102" on="0"/>
        <pt x="405" y="222" on="0"/>
        <pt x="335" y="278" on="0"/>
        <pt x="260" y="278" on="1"/>
        <pt x="182" y="278" on="1"/>
        <pt x="182" y="197" on="1"/>
        <pt x="191" y="66" on="1"/>
      </contour>
      <contour>
        <pt x="182" y="407" on="1"/>
        <pt x="182" y="336" on="1"/>
        <pt x="228" y="336" on="1"/>
        <pt x="363" y="337" on="0"/>
        <pt x="363" y="452" on="1"/>
        <pt x="363" y="560" on="0"/>
        <pt x="250" y="560" on="1"/>
        <pt x="224" y="560" on="0"/>
        <pt x="192" y="555" on="1"/>
      </contour>
    </TTGlyph>
    <TTGlyph name="C" xMin="55" yMin="-15" xMax="543" yMax="620">
      <contour>
        <pt x="210" y="-15" on="0"/>
        <pt x="55" y="149" on="0"/>
        <pt x="55" y="441" on="0"/>
        <pt x="233" y="620" on="0"/>
        <pt x="381" y="620" on="1"/>
        <pt x="457" y="620" on="0"/>
        <pt x="538" y="590" on="1"/>
        <pt x="506" y="485" on="1"/>
        <pt x="384" y="551" on="1"/>
        <pt x="256" y="551" on="0"/>
        <pt x="156" y="443" on="0"/>
        <pt x="156" y="188" on="0"/>
        <pt x="261" y="51" on="0"/>
        <pt x="429" y="51" on="0"/>
        <pt x="511" y="119" on="1"/>
        <pt x="543" y="32" on="1"/>
        <pt x="453" y="-15" on="0"/>
        <pt x="346" y="-15" on="1"/>
      </contour>
    </TTGlyph>
    <TTGlyph name="Ccedilla" xMin="55" yMin="-224" xMax="543" yMax="620">
      <contour>
        <pt x="187" y="-1" on="0"/>
        <pt x="55" y="160" on="0"/>
        <pt x="55" y="441" on="0"/>
        <pt x="233" y="620" on="0"/>
        <pt x="381" y="620" on="1"/>
        <pt x="457" y="620" on="0"/>
        <pt x="538" y="590" on="1"/>
        <pt x="506" y="485" on="1"/>
        <pt x="384" y="551" on="1"/>
        <pt x="256" y="551" on="0"/>
        <pt x="156" y="443" on="0"/>
        <pt x="156" y="188" on="0"/>
        <pt x="261" y="51" on="0"/>
        <pt x="429" y="51" on="0"/>
        <pt x="511" y="119" on="1"/>
        <pt x="543" y="32" on="1"/>
        <pt x="453" y="-15" on="0"/>
        <pt x="346" y="-15" on="1"/>
        <pt x="342" y="-15" on="1"/>
        <pt x="320" y="-59" on="1"/>
        <pt x="402" y="-68" on="0"/>
        <pt x="402" y="-132" on="1"/>
        <pt x="402" y="-176" on="0"/>
        <pt x="342" y="-224" on="0"/>
        <pt x="240" y="-224" on="0"/>
        <pt x="204" y="-210" on="1"/>
        <pt x="235" y="-154" on="1"/>
        <pt x="264" y="-165" on="0"/>
        <pt x="295" y="-165" on="1"/>
        <pt x="343" y="-165" on="0"/>
        <pt x="343" y="-132" on="1"/>
        <pt x="343" y="-106" on="0"/>
        <pt x="311" y="-89" on="0"/>
        <pt x="265" y="-89" on="1"/>
        <pt x="305" y="-13" on="1"/>
      </contour>
    </TTGlyph>
    <TTGlyph name="D" xMin="80" yMin="-15" xMax="595" yMax="620">
      <contour>
        <pt x="84" y="0" on="1"/>
        <pt x="98" y="198" on="1"/>
        <pt x="98" y="467" on="1"/>
        <pt x="80" y="599" on="1"/>
        <pt x="185" y="620" on="0"/>
        <pt x="279" y="620" on="1"/>
        <pt x="440" y="620" on="0"/>
        <pt x="595" y="473" on="0"/>
        <pt x="595" y="167" on="0"/>
        <pt x="404" y="-15" on="0"/>
        <pt x="243" y="-15" on="1"/>
        <pt x="164" y="-15" on="0"/>
      </contour>
      <contour>
        <pt x="191" y="64" on="1"/>
        <pt x="231" y="51" on="0"/>
        <pt x="283" y="51" on="1"/>
        <pt x="366" y="51" on="0"/>
        <pt x="441" y="86" on="1"/>
        <pt x="465" y="120" on="0"/>
        <pt x="494" y="242" on="0"/>
        <pt x="494" y="307" on="1"/>
        <pt x="494" y="436" on="0"/>
        <pt x="389" y="554" on="0"/>
        <pt x="274" y="554" on="1"/>
        <pt x="234" y="554" on="0"/>
        <pt x="192" y="546" on="1"/>
        <pt x="182" y="407" on="1"/>
        <pt x="182" y="197" on="1"/>
      </contour>
    </TTGlyph>
    <TTGlyph name="Delta" xMin="10" yMin="0" xMax="520" yMax="621">
      <contour>
        <pt x="520" y="0" on="1"/>
        <pt x="10" y="0" on="1"/>
        <pt x="222" y="618" on="1"/>
        <pt x="304" y="621" on="1"/>
      </contour>
      <contour>
        <pt x="113" y="70" on="1"/>
        <pt x="403" y="70" on="1"/>
        <pt x="256" y="523" on="1"/>
      </contour>
    </TTGlyph>
    <TTGlyph name="E" xMin="80" yMin="-6" xMax="428" yMax="605">
      <contour>
        <pt x="178" y="407" on="1"/>
        <pt x="178" y="344" on="1"/>
        <pt x="274" y="344" on="1"/>
        <pt x="369" y="354" on="1"/>
        <pt x="361" y="279" on="1"/>
        <pt x="178" y="279" on="1"/>
        <pt x="178" y="197" on="1"/>
        <pt x="187" y="70" on="1"/>
        <pt x="319" y="70" on="1"/>
        <pt x="428" y="82" on="1"/>
        <pt x="418" y="-6" on="1"/>
        <pt x="309" y="0" on="1"/>
        <pt x="192" y="0" on="1"/>
        <pt x="80" y="-6" on="1"/>
        <pt x="94" y="198" on="1"/>
        <pt x="94" y="408" on="1"/>
        <pt x="80" y="605" on="1"/>
        <pt x="419" y="605" on="1"/>
        <pt x="410" y="523" on="1"/>
        <pt x="298" y="535" on="1"/>
        <pt x="187" y="535" on="1"/>
      </contour>
    </TTGlyph>
    <TTGlyph name="Eacute" xMin="80" yMin="-6" xMax="428" yMax="820">
      <contour>
        <pt x="178" y="407" on="1"/>
        <pt x="178" y="344" on="1"/>
        <pt x="274" y="344" on="1"/>
        <pt x="369" y="354" on="1"/>
        <pt x="361" y="279" on="1"/>
        <pt x="178" y="279" on="1"/>
        <pt x="178" y="197" on="1"/>
        <pt x="187" y="70" on="1"/>
        <pt x="319" y="70" on="1"/>
        <pt x="428" y="82" on="1"/>
        <pt x="418" y="-6" on="1"/>
        <pt x="309" y="0" on="1"/>
        <pt x="192" y="0" on="1"/>
        <pt x="80" y="-6" on="1"/>
        <pt x="94" y="198" on="1"/>
        <pt x="94" y="408" on="1"/>
        <pt x="80" y="605" on="1"/>
        <pt x="419" y="605" on="1"/>
        <pt x="410" y="523" on="1"/>
        <pt x="298" y="535" on="1"/>
        <pt x="187" y="535" on="1"/>
      </contour>
      <contour>
        <pt x="203" y="653" on="1"/>
        <pt x="180" y="685" on="1"/>
        <pt x="319" y="820" on="1"/>
        <pt x="378" y="755" on="1"/>
      </contour>
    </TTGlyph>
    <TTGlyph name="Ecircumflex" xMin="80" yMin="-6" xMax="428" yMax="815">
      <contour>
        <pt x="178" y="407" on="1"/>
        <pt x="178" y="344" on="1"/>
        <pt x="274" y="344" on="1"/>
        <pt x="369" y="354" on="1"/>
        <pt x="361" y="279" on="1"/>
        <pt x="178" y="279" on="1"/>
        <pt x="178" y="197" on="1"/>
        <pt x="187" y="70" on="1"/>
        <pt x="319" y="70" on="1"/>
        <pt x="428" y="82" on="1"/>
        <pt x="418" y="-6" on="1"/>
        <pt x="309" y="0" on="1"/>
        <pt x="192" y="0" on="1"/>
        <pt x="80" y="-6" on="1"/>
        <pt x="94" y="198" on="1"/>
        <pt x="94" y="408" on="1"/>
        <pt x="80" y="605" on="1"/>
        <pt x="419" y="605" on="1"/>
        <pt x="410" y="523" on="1"/>
        <pt x="298" y="535" on="1"/>
        <pt x="187" y="535" on="1"/>
      </contour>
      <contour>
        <pt x="134" y="653" on="1"/>
        <pt x="111" y="685" on="1"/>
        <pt x="249" y="815" on="1"/>
        <pt x="387" y="685" on="1"/>
        <pt x="364" y="653" on="1"/>
        <pt x="249" y="729" on="1"/>
      </contour>
    </TTGlyph>
    <TTGlyph name="Edieresis" xMin="80" yMin="-6" xMax="428" yMax="798">
      <contour>
        <pt x="178" y="407" on="1"/>
        <pt x="178" y="344" on="1"/>
        <pt x="274" y="344" on="1"/>
        <pt x="369" y="354" on="1"/>
        <pt x="361" y="279" on="1"/>
        <pt x="178" y="279" on="1"/>
        <pt x="178" y="197" on="1"/>
        <pt x="187" y="70" on="1"/>
        <pt x="319" y="70" on="1"/>
        <pt x="428" y="82" on="1"/>
        <pt x="418" y="-6" on="1"/>
        <pt x="309" y="0" on="1"/>
        <pt x="192" y="0" on="1"/>
        <pt x="80" y="-6" on="1"/>
        <pt x="94" y="198" on="1"/>
        <pt x="94" y="408" on="1"/>
        <pt x="80" y="605" on="1"/>
        <pt x="419" y="605" on="1"/>
        <pt x="410" y="523" on="1"/>
        <pt x="298" y="535" on="1"/>
        <pt x="187" y="535" on="1"/>
      </contour>
      <contour>
        <pt x="278" y="737" on="1"/>
        <pt x="305" y="777" on="0"/>
        <pt x="336" y="798" on="1"/>
        <pt x="372" y="773" on="0"/>
        <pt x="397" y="737" on="1"/>
        <pt x="374" y="702" on="0"/>
        <pt x="336" y="676" on="1"/>
        <pt x="303" y="698" on="0"/>
      </contour>
      <contour>
        <pt x="97" y="737" on="1"/>
        <pt x="123" y="775" on="0"/>
        <pt x="158" y="798" on="1"/>
        <pt x="189" y="775" on="0"/>
        <pt x="216" y="737" on="1"/>
        <pt x="189" y="698" on="0"/>
        <pt x="158" y="676" on="1"/>
        <pt x="121" y="700" on="0"/>
      </contour>
    </TTGlyph>
    <TTGlyph name="Egrave" xMin="80" yMin="-6" xMax="428" yMax="820">
      <contour>
        <pt x="178" y="407" on="1"/>
        <pt x="178" y="344" on="1"/>
        <pt x="274" y="344" on="1"/>
        <pt x="369" y="354" on="1"/>
        <pt x="361" y="279" on="1"/>
        <pt x="178" y="279" on="1"/>
        <pt x="178" y="197" on="1"/>
        <pt x="187" y="70" on="1"/>
        <pt x="319" y="70" on="1"/>
        <pt x="428" y="82" on="1"/>
        <pt x="418" y="-6" on="1"/>
        <pt x="309" y="0" on="1"/>
        <pt x="192" y="0" on="1"/>
        <pt x="80" y="-6" on="1"/>
        <pt x="94" y="198" on="1"/>
        <pt x="94" y="408" on="1"/>
        <pt x="80" y="605" on="1"/>
        <pt x="419" y="605" on="1"/>
        <pt x="410" y="523" on="1"/>
        <pt x="298" y="535" on="1"/>
        <pt x="187" y="535" on="1"/>
      </contour>
      <contour>
        <pt x="317" y="685" on="1"/>
        <pt x="294" y="653" on="1"/>
        <pt x="120" y="756" on="1"/>
        <pt x="179" y="820" on="1"/>
      </contour>
    </TTGlyph>
    <TTGlyph name="Eth" xMin="36" yMin="-15" xMax="595" yMax="620">
      <contour>
        <pt x="36" y="277" on="1"/>
        <pt x="46" y="342" on="1"/>
        <pt x="98" y="342" on="1"/>
        <pt x="98" y="467" on="1"/>
        <pt x="80" y="599" on="1"/>
        <pt x="185" y="620" on="0"/>
        <pt x="279" y="620" on="1"/>
        <pt x="440" y="620" on="0"/>
        <pt x="595" y="473" on="0"/>
        <pt x="595" y="167" on="0"/>
        <pt x="404" y="-15" on="0"/>
        <pt x="243" y="-15" on="1"/>
        <pt x="164" y="-15" on="0"/>
        <pt x="84" y="0" on="1"/>
        <pt x="98" y="198" on="1"/>
        <pt x="98" y="277" on="1"/>
      </contour>
      <contour>
        <pt x="191" y="64" on="1"/>
        <pt x="231" y="51" on="0"/>
        <pt x="283" y="51" on="1"/>
        <pt x="366" y="51" on="0"/>
        <pt x="441" y="86" on="1"/>
        <pt x="465" y="120" on="0"/>
        <pt x="494" y="242" on="0"/>
        <pt x="494" y="307" on="1"/>
        <pt x="494" y="436" on="0"/>
        <pt x="389" y="554" on="0"/>
        <pt x="274" y="554" on="1"/>
        <pt x="234" y="554" on="0"/>
        <pt x="192" y="546" on="1"/>
        <pt x="182" y="407" on="1"/>
        <pt x="182" y="342" on="1"/>
        <pt x="238" y="342" on="1"/>
        <pt x="333" y="352" on="1"/>
        <pt x="325" y="277" on="1"/>
        <pt x="182" y="277" on="1"/>
        <pt x="182" y="197" on="1"/>
      </contour>
    </TTGlyph>
    <TTGlyph name="Euro" xMin="25" yMin="-15" xMax="482" yMax="547">
      <contour>
        <pt x="25" y="301" on="1"/>
        <pt x="25" y="349" on="1"/>
        <pt x="80" y="349" on="1"/>
        <pt x="101" y="441" on="0"/>
        <pt x="241" y="547" on="0"/>
        <pt x="342" y="547" on="1"/>
        <pt x="406" y="547" on="0"/>
        <pt x="473" y="520" on="1"/>
        <pt x="447" y="428" on="1"/>
        <pt x="346" y="486" on="1"/>
        <pt x="257" y="486" on="0"/>
        <pt x="175" y="424" on="0"/>
        <pt x="164" y="349" on="1"/>
        <pt x="365" y="349" on="1"/>
        <pt x="365" y="301" on="1"/>
        <pt x="159" y="301" on="1"/>
        <pt x="159" y="251" on="0"/>
        <pt x="160" y="246" on="1"/>
        <pt x="365" y="246" on="1"/>
        <pt x="365" y="199" on="1"/>
        <pt x="165" y="199" on="1"/>
        <pt x="178" y="128" on="0"/>
        <pt x="254" y="43" on="0"/>
        <pt x="304" y="43" on="1"/>
        <pt x="379" y="43" on="0"/>
        <pt x="435" y="133" on="1"/>
        <pt x="482" y="67" on="1"/>
        <pt x="400" y="-15" on="0"/>
        <pt x="298" y="-15" on="1"/>
        <pt x="212" y="-15" on="0"/>
        <pt x="91" y="101" on="0"/>
        <pt x="75" y="199" on="1"/>
        <pt x="25" y="199" on="1"/>
        <pt x="25" y="246" on="1"/>
        <pt x="70" y="246" on="1"/>
        <pt x="70" y="292" on="0"/>
        <pt x="71" y="301" on="1"/>
      </contour>
    </TTGlyph>
    <TTGlyph name="F" xMin="80" yMin="0" xMax="419" yMax="605">
      <contour>
        <pt x="187" y="535" on="1"/>
        <pt x="178" y="407" on="1"/>
        <pt x="178" y="332" on="1"/>
        <pt x="274" y="332" on="1"/>
        <pt x="369" y="342" on="1"/>
        <pt x="361" y="267" on="1"/>
        <pt x="178" y="267" on="1"/>
        <pt x="178" y="197" on="1"/>
        <pt x="192" y="0" on="1"/>
        <pt x="80" y="0" on="1"/>
        <pt x="94" y="198" on="1"/>
        <pt x="94" y="408" on="1"/>
        <pt x="80" y="605" on="1"/>
        <pt x="419" y="605" on="1"/>
        <pt x="410" y="523" on="1"/>
        <pt x="298" y="535" on="1"/>
      </contour>
    </TTGlyph>
    <TTGlyph name="G" xMin="55" yMin="-15" xMax="565" yMax="619">
      <contour>
        <pt x="205" y="-15" on="0"/>
        <pt x="55" y="148" on="0"/>
        <pt x="55" y="440" on="0"/>
        <pt x="233" y="619" on="0"/>
        <pt x="381" y="619" on="1"/>
        <pt x="462" y="619" on="0"/>
        <pt x="548" y="589" on="1"/>
        <pt x="516" y="484" on="1"/>
        <pt x="383" y="550" on="1"/>
        <pt x="256" y="550" on="0"/>
        <pt x="156" y="442" on="0"/>
        <pt x="156" y="188" on="0"/>
        <pt x="256" y="51" on="0"/>
        <pt x="341" y="51" on="1"/>
        <pt x="411" y="51" on="0"/>
        <pt x="473" y="88" on="1"/>
        <pt x="469" y="203" on="1"/>
        <pt x="453" y="264" on="1"/>
        <pt x="565" y="270" on="1"/>
        <pt x="552" y="33" on="1"/>
        <pt x="469" y="-12" on="0"/>
        <pt x="365" y="-14" on="1"/>
        <pt x="358" y="-15" on="0"/>
        <pt x="338" y="-15" on="1"/>
      </contour>
    </TTGlyph>
    <TTGlyph name="H" xMin="80" yMin="0" xMax="584" yMax="605">
      <contour>
        <pt x="80" y="0" on="1"/>
        <pt x="94" y="198" on="1"/>
        <pt x="94" y="408" on="1"/>
        <pt x="80" y="605" on="1"/>
        <pt x="192" y="605" on="1"/>
        <pt x="178" y="407" on="1"/>
        <pt x="178" y="353" on="1"/>
        <pt x="486" y="353" on="1"/>
        <pt x="486" y="408" on="1"/>
        <pt x="472" y="605" on="1"/>
        <pt x="584" y="605" on="1"/>
        <pt x="570" y="407" on="1"/>
        <pt x="570" y="197" on="1"/>
        <pt x="584" y="0" on="1"/>
        <pt x="472" y="0" on="1"/>
        <pt x="486" y="198" on="1"/>
        <pt x="486" y="283" on="1"/>
        <pt x="178" y="283" on="1"/>
        <pt x="178" y="197" on="1"/>
        <pt x="192" y="0" on="1"/>
      </contour>
    </TTGlyph>
    <TTGlyph name="I" xMin="85" yMin="0" xMax="197" yMax="605">
      <contour>
        <pt x="85" y="0" on="1"/>
        <pt x="99" y="198" on="1"/>
        <pt x="99" y="408" on="1"/>
        <pt x="85" y="605" on="1"/>
        <pt x="197" y="605" on="1"/>
        <pt x="183" y="407" on="1"/>
        <pt x="183" y="197" on="1"/>
        <pt x="197" y="0" on="1"/>
      </contour>
    </TTGlyph>
    <TTGlyph name="Iacute" xMin="72" yMin="0" xMax="270" yMax="820">
      <contour>
        <pt x="85" y="0" on="1"/>
        <pt x="99" y="198" on="1"/>
        <pt x="99" y="408" on="1"/>
        <pt x="85" y="605" on="1"/>
        <pt x="197" y="605" on="1"/>
        <pt x="183" y="407" on="1"/>
        <pt x="183" y="197" on="1"/>
        <pt x="197" y="0" on="1"/>
      </contour>
      <contour>
        <pt x="95" y="653" on="1"/>
        <pt x="72" y="685" on="1"/>
        <pt x="211" y="820" on="1"/>
        <pt x="270" y="755" on="1"/>
      </contour>
    </TTGlyph>
    <TTGlyph name="Icircumflex" xMin="3" yMin="0" xMax="279" yMax="815">
      <contour>
        <pt x="85" y="0" on="1"/>
        <pt x="99" y="198" on="1"/>
        <pt x="99" y="408" on="1"/>
        <pt x="85" y="605" on="1"/>
        <pt x="197" y="605" on="1"/>
        <pt x="183" y="407" on="1"/>
        <pt x="183" y="197" on="1"/>
        <pt x="197" y="0" on="1"/>
      </contour>
      <contour>
        <pt x="26" y="653" on="1"/>
        <pt x="3" y="685" on="1"/>
        <pt x="141" y="815" on="1"/>
        <pt x="279" y="685" on="1"/>
        <pt x="256" y="653" on="1"/>
        <pt x="141" y="729" on="1"/>
      </contour>
    </TTGlyph>
    <TTGlyph name="Idieresis" xMin="-9" yMin="0" xMax="291" yMax="798">
      <contour>
        <pt x="85" y="0" on="1"/>
        <pt x="99" y="198" on="1"/>
        <pt x="99" y="408" on="1"/>
        <pt x="85" y="605" on="1"/>
        <pt x="197" y="605" on="1"/>
        <pt x="183" y="407" on="1"/>
        <pt x="183" y="197" on="1"/>
        <pt x="197" y="0" on="1"/>
      </contour>
      <contour>
        <pt x="172" y="737" on="1"/>
        <pt x="199" y="777" on="0"/>
        <pt x="230" y="798" on="1"/>
        <pt x="266" y="773" on="0"/>
        <pt x="291" y="737" on="1"/>
        <pt x="268" y="702" on="0"/>
        <pt x="230" y="676" on="1"/>
        <pt x="197" y="698" on="0"/>
      </contour>
      <contour>
        <pt x="-9" y="737" on="1"/>
        <pt x="17" y="775" on="0"/>
        <pt x="52" y="798" on="1"/>
        <pt x="83" y="775" on="0"/>
        <pt x="110" y="737" on="1"/>
        <pt x="83" y="698" on="0"/>
        <pt x="52" y="676" on="1"/>
        <pt x="15" y="700" on="0"/>
      </contour>
    </TTGlyph>
    <TTGlyph name="Igrave" xMin="13" yMin="0" xMax="210" yMax="820">
      <contour>
        <pt x="85" y="0" on="1"/>
        <pt x="99" y="198" on="1"/>
        <pt x="99" y="408" on="1"/>
        <pt x="85" y="605" on="1"/>
        <pt x="197" y="605" on="1"/>
        <pt x="183" y="407" on="1"/>
        <pt x="183" y="197" on="1"/>
        <pt x="197" y="0" on="1"/>
      </contour>
      <contour>
        <pt x="210" y="685" on="1"/>
        <pt x="187" y="653" on="1"/>
        <pt x="13" y="756" on="1"/>
        <pt x="72" y="820" on="1"/>
      </contour>
    </TTGlyph>
    <TTGlyph name="J" xMin="-25" yMin="-175" xMax="202" yMax="605">
      <contour>
        <pt x="99" y="12" on="1"/>
        <pt x="104" y="154" on="0"/>
        <pt x="104" y="338" on="1"/>
        <pt x="104" y="408" on="1"/>
        <pt x="90" y="605" on="1"/>
        <pt x="202" y="605" on="1"/>
        <pt x="188" y="407" on="1"/>
        <pt x="188" y="106" on="1"/>
        <pt x="188" y="7" on="0"/>
        <pt x="114" y="-108" on="0"/>
        <pt x="8" y="-175" on="1"/>
        <pt x="-25" y="-88" on="1"/>
        <pt x="17" y="-69" on="0"/>
        <pt x="88" y="-11" on="0"/>
      </contour>
    </TTGlyph>
    <TTGlyph name="K" xMin="80" yMin="-8" xMax="560" yMax="605">
      <contour>
        <pt x="375" y="96" on="1"/>
        <pt x="211" y="307" on="1"/>
        <pt x="211" y="317" on="1"/>
        <pt x="359" y="494" on="1"/>
        <pt x="408" y="605" on="1"/>
        <pt x="530" y="605" on="1"/>
        <pt x="530" y="597" on="1"/>
        <pt x="299" y="333" on="1"/>
        <pt x="475" y="102" on="1"/>
        <pt x="560" y="9" on="1"/>
        <pt x="560" y="-1" on="1"/>
        <pt x="425" y="-8" on="1"/>
      </contour>
      <contour>
        <pt x="80" y="0" on="1"/>
        <pt x="94" y="198" on="1"/>
        <pt x="94" y="408" on="1"/>
        <pt x="80" y="605" on="1"/>
        <pt x="192" y="605" on="1"/>
        <pt x="178" y="407" on="1"/>
        <pt x="178" y="197" on="1"/>
        <pt x="192" y="0" on="1"/>
      </contour>
    </TTGlyph>
    <TTGlyph name="L" xMin="80" yMin="-6" xMax="403" yMax="605">
      <contour>
        <pt x="80" y="-6" on="1"/>
        <pt x="94" y="198" on="1"/>
        <pt x="94" y="408" on="1"/>
        <pt x="80" y="605" on="1"/>
        <pt x="192" y="605" on="1"/>
        <pt x="178" y="407" on="1"/>
        <pt x="178" y="197" on="1"/>
        <pt x="187" y="70" on="1"/>
        <pt x="294" y="70" on="1"/>
        <pt x="403" y="82" on="1"/>
        <pt x="393" y="-6" on="1"/>
        <pt x="284" y="0" on="1"/>
        <pt x="189" y="0" on="1"/>
      </contour>
    </TTGlyph>
    <TTGlyph name="Lslash" xMin="12" yMin="-6" xMax="403" yMax="605">
      <contour>
        <pt x="80" y="-6" on="1"/>
        <pt x="94" y="198" on="1"/>
        <pt x="94" y="305" on="1"/>
        <pt x="40" y="276" on="1"/>
        <pt x="12" y="327" on="1"/>
        <pt x="94" y="372" on="1"/>
        <pt x="94" y="408" on="1"/>
        <pt x="80" y="605" on="1"/>
        <pt x="192" y="605" on="1"/>
        <pt x="179" y="418" on="1"/>
        <pt x="255" y="460" on="1"/>
        <pt x="283" y="409" on="1"/>
        <pt x="178" y="351" on="1"/>
        <pt x="178" y="197" on="1"/>
        <pt x="187" y="70" on="1"/>
        <pt x="294" y="70" on="1"/>
        <pt x="403" y="82" on="1"/>
        <pt x="393" y="-6" on="1"/>
        <pt x="284" y="0" on="1"/>
        <pt x="189" y="0" on="1"/>
      </contour>
    </TTGlyph>
    <TTGlyph name="M" xMin="64" yMin="0" xMax="678" yMax="607">
      <contour>
        <pt x="572" y="0" on="1"/>
        <pt x="576" y="198" on="1"/>
        <pt x="561" y="452" on="1"/>
        <pt x="392" y="70" on="1"/>
        <pt x="364" y="67" on="1"/>
        <pt x="167" y="452" on="1"/>
        <pt x="156" y="197" on="1"/>
        <pt x="163" y="0" on="1"/>
        <pt x="64" y="0" on="1"/>
        <pt x="88" y="198" on="1"/>
        <pt x="99" y="408" on="1"/>
        <pt x="92" y="602" on="1"/>
        <pt x="196" y="606" on="1"/>
        <pt x="214" y="540" on="1"/>
        <pt x="382" y="193" on="1"/>
        <pt x="533" y="555" on="1"/>
        <pt x="544" y="603" on="1"/>
        <pt x="650" y="607" on="1"/>
        <pt x="643" y="407" on="1"/>
        <pt x="654" y="197" on="1"/>
        <pt x="678" y="0" on="1"/>
      </contour>
    </TTGlyph>
    <TTGlyph name="N" xMin="80" yMin="-3" xMax="576" yMax="607">
      <contour>
        <pt x="500" y="-3" on="1"/>
        <pt x="472" y="62" on="1"/>
        <pt x="166" y="446" on="1"/>
        <pt x="166" y="197" on="1"/>
        <pt x="180" y="0" on="1"/>
        <pt x="80" y="0" on="1"/>
        <pt x="94" y="198" on="1"/>
        <pt x="94" y="408" on="1"/>
        <pt x="80" y="603" on="1"/>
        <pt x="174" y="607" on="1"/>
        <pt x="202" y="540" on="1"/>
        <pt x="490" y="178" on="1"/>
        <pt x="490" y="408" on="1"/>
        <pt x="476" y="605" on="1"/>
        <pt x="576" y="605" on="1"/>
        <pt x="562" y="407" on="1"/>
        <pt x="562" y="221" on="1"/>
        <pt x="576" y="0" on="1"/>
      </contour>
    </TTGlyph>
    <TTGlyph name="Ntilde" xMin="80" yMin="-3" xMax="576" yMax="798">
      <contour>
        <pt x="500" y="-3" on="1"/>
        <pt x="472" y="62" on="1"/>
        <pt x="166" y="446" on="1"/>
        <pt x="166" y="197" on="1"/>
        <pt x="180" y="0" on="1"/>
        <pt x="80" y="0" on="1"/>
        <pt x="94" y="198" on="1"/>
        <pt x="94" y="408" on="1"/>
        <pt x="80" y="603" on="1"/>
        <pt x="174" y="607" on="1"/>
        <pt x="202" y="540" on="1"/>
        <pt x="490" y="178" on="1"/>
        <pt x="490" y="408" on="1"/>
        <pt x="476" y="605" on="1"/>
        <pt x="576" y="605" on="1"/>
        <pt x="562" y="407" on="1"/>
        <pt x="562" y="221" on="1"/>
        <pt x="576" y="0" on="1"/>
      </contour>
      <contour>
        <pt x="452" y="793" on="1"/>
        <pt x="474" y="776" on="1"/>
        <pt x="433" y="699" on="0"/>
        <pt x="404" y="674" on="1"/>
        <pt x="381" y="674" on="0"/>
        <pt x="341" y="691" on="0"/>
        <pt x="264" y="734" on="1"/>
        <pt x="204" y="679" on="1"/>
        <pt x="182" y="696" on="1"/>
        <pt x="226" y="774" on="0"/>
        <pt x="252" y="798" on="1"/>
        <pt x="274" y="798" on="0"/>
        <pt x="318" y="779" on="0"/>
        <pt x="392" y="738" on="1"/>
      </contour>
    </TTGlyph>
    <TTGlyph name="O" xMin="55" yMin="-15" xMax="633" yMax="620">
      <contour>
        <pt x="203" y="-15" on="0"/>
        <pt x="55" y="150" on="0"/>
        <pt x="55" y="444" on="0"/>
        <pt x="217" y="620" on="0"/>
        <pt x="485" y="620" on="0"/>
        <pt x="633" y="456" on="0"/>
        <pt x="633" y="162" on="0"/>
        <pt x="470" y="-15" on="0"/>
      </contour>
      <contour>
        <pt x="156" y="297" on="1"/>
        <pt x="156" y="180" on="0"/>
        <pt x="262" y="51" on="0"/>
        <pt x="358" y="51" on="1"/>
        <pt x="415" y="51" on="0"/>
        <pt x="469" y="74" on="1"/>
        <pt x="495" y="100" on="0"/>
        <pt x="532" y="235" on="0"/>
        <pt x="532" y="306" on="1"/>
        <pt x="532" y="427" on="0"/>
        <pt x="427" y="554" on="0"/>
        <pt x="327" y="554" on="1"/>
        <pt x="270" y="554" on="0"/>
        <pt x="219" y="531" on="1"/>
        <pt x="193" y="506" on="0"/>
        <pt x="156" y="368" on="0"/>
      </contour>
    </TTGlyph>
    <TTGlyph name="OE" xMin="55" yMin="-15" xMax="845" yMax="620">
      <contour>
        <pt x="497" y="-6" on="1"/>
        <pt x="500" y="37" on="1"/>
        <pt x="424" y="-15" on="0"/>
        <pt x="333" y="-15" on="1"/>
        <pt x="203" y="-15" on="0"/>
        <pt x="55" y="150" on="0"/>
        <pt x="55" y="442" on="0"/>
        <pt x="218" y="620" on="0"/>
        <pt x="354" y="620" on="1"/>
        <pt x="433" y="620" on="0"/>
        <pt x="499" y="578" on="1"/>
        <pt x="497" y="605" on="1"/>
        <pt x="836" y="605" on="1"/>
        <pt x="827" y="523" on="1"/>
        <pt x="715" y="535" on="1"/>
        <pt x="604" y="535" on="1"/>
        <pt x="595" y="407" on="1"/>
        <pt x="595" y="344" on="1"/>
        <pt x="691" y="344" on="1"/>
        <pt x="786" y="354" on="1"/>
        <pt x="778" y="279" on="1"/>
        <pt x="595" y="279" on="1"/>
        <pt x="595" y="197" on="1"/>
        <pt x="604" y="70" on="1"/>
        <pt x="736" y="70" on="1"/>
        <pt x="845" y="82" on="1"/>
        <pt x="835" y="-6" on="1"/>
        <pt x="726" y="0" on="1"/>
        <pt x="609" y="0" on="1"/>
      </contour>
      <contour>
        <pt x="156" y="297" on="1"/>
        <pt x="156" y="180" on="0"/>
        <pt x="262" y="51" on="0"/>
        <pt x="358" y="51" on="1"/>
        <pt x="387" y="51" on="0"/>
        <pt x="472" y="73" on="0"/>
        <pt x="503" y="89" on="1"/>
        <pt x="511" y="198" on="1"/>
        <pt x="511" y="408" on="1"/>
        <pt x="504" y="511" on="1"/>
        <pt x="418" y="553" on="0"/>
        <pt x="275" y="553" on="0"/>
        <pt x="219" y="531" on="1"/>
        <pt x="193" y="506" on="0"/>
        <pt x="156" y="368" on="0"/>
      </contour>
    </TTGlyph>
    <TTGlyph name="Oacute" xMin="55" yMin="-15" xMax="633" yMax="820">
      <contour>
        <pt x="203" y="-15" on="0"/>
        <pt x="55" y="150" on="0"/>
        <pt x="55" y="444" on="0"/>
        <pt x="217" y="620" on="0"/>
        <pt x="485" y="620" on="0"/>
        <pt x="633" y="456" on="0"/>
        <pt x="633" y="162" on="0"/>
        <pt x="470" y="-15" on="0"/>
      </contour>
      <contour>
        <pt x="156" y="297" on="1"/>
        <pt x="156" y="180" on="0"/>
        <pt x="262" y="51" on="0"/>
        <pt x="358" y="51" on="1"/>
        <pt x="415" y="51" on="0"/>
        <pt x="469" y="74" on="1"/>
        <pt x="495" y="100" on="0"/>
        <pt x="532" y="235" on="0"/>
        <pt x="532" y="306" on="1"/>
        <pt x="532" y="427" on="0"/>
        <pt x="427" y="554" on="0"/>
        <pt x="327" y="554" on="1"/>
        <pt x="270" y="554" on="0"/>
        <pt x="219" y="531" on="1"/>
        <pt x="193" y="506" on="0"/>
        <pt x="156" y="368" on="0"/>
      </contour>
      <contour>
        <pt x="318" y="653" on="1"/>
        <pt x="295" y="685" on="1"/>
        <pt x="434" y="820" on="1"/>
        <pt x="493" y="755" on="1"/>
      </contour>
    </TTGlyph>
    <TTGlyph name="Ocircumflex" xMin="55" yMin="-15" xMax="633" yMax="815">
      <contour>
        <pt x="203" y="-15" on="0"/>
        <pt x="55" y="150" on="0"/>
        <pt x="55" y="444" on="0"/>
        <pt x="217" y="620" on="0"/>
        <pt x="485" y="620" on="0"/>
        <pt x="633" y="456" on="0"/>
        <pt x="633" y="162" on="0"/>
        <pt x="470" y="-15" on="0"/>
      </contour>
      <contour>
        <pt x="156" y="297" on="1"/>
        <pt x="156" y="180" on="0"/>
        <pt x="262" y="51" on="0"/>
        <pt x="358" y="51" on="1"/>
        <pt x="415" y="51" on="0"/>
        <pt x="469" y="74" on="1"/>
        <pt x="495" y="100" on="0"/>
        <pt x="532" y="235" on="0"/>
        <pt x="532" y="306" on="1"/>
        <pt x="532" y="427" on="0"/>
        <pt x="427" y="554" on="0"/>
        <pt x="327" y="554" on="1"/>
        <pt x="270" y="554" on="0"/>
        <pt x="219" y="531" on="1"/>
        <pt x="193" y="506" on="0"/>
        <pt x="156" y="368" on="0"/>
      </contour>
      <contour>
        <pt x="229" y="653" on="1"/>
        <pt x="206" y="685" on="1"/>
        <pt x="344" y="815" on="1"/>
        <pt x="482" y="685" on="1"/>
        <pt x="459" y="653" on="1"/>
        <pt x="344" y="729" on="1"/>
      </contour>
    </TTGlyph>
    <TTGlyph name="Odieresis" xMin="55" yMin="-15" xMax="633" yMax="798">
      <contour>
        <pt x="203" y="-15" on="0"/>
        <pt x="55" y="150" on="0"/>
        <pt x="55" y="444" on="0"/>
        <pt x="217" y="620" on="0"/>
        <pt x="485" y="620" on="0"/>
        <pt x="633" y="456" on="0"/>
        <pt x="633" y="162" on="0"/>
        <pt x="470" y="-15" on="0"/>
      </contour>
      <contour>
        <pt x="156" y="297" on="1"/>
        <pt x="156" y="180" on="0"/>
        <pt x="262" y="51" on="0"/>
        <pt x="358" y="51" on="1"/>
        <pt x="415" y="51" on="0"/>
        <pt x="469" y="74" on="1"/>
        <pt x="495" y="100" on="0"/>
        <pt x="532" y="235" on="0"/>
        <pt x="532" y="306" on="1"/>
        <pt x="532" y="427" on="0"/>
        <pt x="427" y="554" on="0"/>
        <pt x="327" y="554" on="1"/>
        <pt x="270" y="554" on="0"/>
        <pt x="219" y="531" on="1"/>
        <pt x="193" y="506" on="0"/>
        <pt x="156" y="368" on="0"/>
      </contour>
      <contour>
        <pt x="194" y="737" on="1"/>
        <pt x="220" y="775" on="0"/>
        <pt x="255" y="798" on="1"/>
        <pt x="286" y="775" on="0"/>
        <pt x="313" y="737" on="1"/>
        <pt x="286" y="698" on="0"/>
        <pt x="255" y="676" on="1"/>
        <pt x="218" y="700" on="0"/>
      </contour>
      <contour>
        <pt x="375" y="737" on="1"/>
        <pt x="402" y="777" on="0"/>
        <pt x="433" y="798" on="1"/>
        <pt x="469" y="773" on="0"/>
        <pt x="494" y="737" on="1"/>
        <pt x="471" y="702" on="0"/>
        <pt x="433" y="676" on="1"/>
        <pt x="400" y="698" on="0"/>
      </contour>
    </TTGlyph>
    <TTGlyph name="Ograve" xMin="55" yMin="-15" xMax="633" yMax="820">
      <contour>
        <pt x="203" y="-15" on="0"/>
        <pt x="55" y="150" on="0"/>
        <pt x="55" y="444" on="0"/>
        <pt x="217" y="620" on="0"/>
        <pt x="485" y="620" on="0"/>
        <pt x="633" y="456" on="0"/>
        <pt x="633" y="162" on="0"/>
        <pt x="470" y="-15" on="0"/>
      </contour>
      <contour>
        <pt x="156" y="297" on="1"/>
        <pt x="156" y="180" on="0"/>
        <pt x="262" y="51" on="0"/>
        <pt x="358" y="51" on="1"/>
        <pt x="415" y="51" on="0"/>
        <pt x="469" y="74" on="1"/>
        <pt x="495" y="100" on="0"/>
        <pt x="532" y="235" on="0"/>
        <pt x="532" y="306" on="1"/>
        <pt x="532" y="427" on="0"/>
        <pt x="427" y="554" on="0"/>
        <pt x="327" y="554" on="1"/>
        <pt x="270" y="554" on="0"/>
        <pt x="219" y="531" on="1"/>
        <pt x="193" y="506" on="0"/>
        <pt x="156" y="368" on="0"/>
      </contour>
      <contour>
        <pt x="422" y="685" on="1"/>
        <pt x="399" y="653" on="1"/>
        <pt x="225" y="756" on="1"/>
        <pt x="284" y="820" on="1"/>
      </contour>
    </TTGlyph>
    <TTGlyph name="Omega" xMin="40" yMin="0" xMax="670" yMax="620">
      <contour>
        <pt x="398" y="0" on="1"/>
        <pt x="387" y="37" on="1"/>
        <pt x="446" y="64" on="0"/>
        <pt x="531" y="228" on="0"/>
        <pt x="531" y="428" on="0"/>
        <pt x="438" y="554" on="0"/>
        <pt x="272" y="554" on="0"/>
        <pt x="179" y="428" on="0"/>
        <pt x="179" y="228" on="0"/>
        <pt x="264" y="64" on="0"/>
        <pt x="323" y="37" on="1"/>
        <pt x="312" y="0" on="1"/>
        <pt x="48" y="0" on="1"/>
        <pt x="40" y="86" on="1"/>
        <pt x="161" y="70" on="1"/>
        <pt x="202" y="70" on="1"/>
        <pt x="144" y="125" on="0"/>
        <pt x="77" y="278" on="0"/>
        <pt x="77" y="357" on="1"/>
        <pt x="77" y="477" on="0"/>
        <pt x="228" y="620" on="0"/>
        <pt x="482" y="620" on="0"/>
        <pt x="633" y="478" on="0"/>
        <pt x="633" y="358" on="1"/>
        <pt x="633" y="281" on="0"/>
        <pt x="565" y="126" on="0"/>
        <pt x="507" y="70" on="1"/>
        <pt x="549" y="70" on="1"/>
        <pt x="670" y="86" on="1"/>
        <pt x="662" y="0" on="1"/>
      </contour>
    </TTGlyph>
    <TTGlyph name="Oslash" xMin="55" yMin="-98" xMax="633" yMax="703">
      <contour>
        <pt x="156" y="297" on="1"/>
        <pt x="156" y="118" on="0"/>
        <pt x="273" y="67" on="1"/>
        <pt x="363" y="551" on="1"/>
        <pt x="345" y="554" on="0"/>
        <pt x="327" y="554" on="1"/>
        <pt x="268" y="554" on="0"/>
        <pt x="219" y="531" on="1"/>
        <pt x="193" y="506" on="0"/>
        <pt x="156" y="368" on="0"/>
      </contour>
      <contour>
        <pt x="532" y="306" on="1"/>
        <pt x="532" y="490" on="0"/>
        <pt x="414" y="538" on="1"/>
        <pt x="324" y="53" on="1"/>
        <pt x="332" y="51" on="0"/>
        <pt x="413" y="51" on="0"/>
        <pt x="469" y="74" on="1"/>
        <pt x="495" y="100" on="0"/>
        <pt x="532" y="235" on="0"/>
      </contour>
      <contour>
        <pt x="55" y="293" on="1"/>
        <pt x="55" y="444" on="0"/>
        <pt x="217" y="620" on="0"/>
        <pt x="354" y="620" on="1"/>
        <pt x="370" y="620" on="0"/>
        <pt x="375" y="619" on="1"/>
        <pt x="391" y="703" on="1"/>
        <pt x="443" y="694" on="1"/>
        <pt x="428" y="612" on="1"/>
        <pt x="526" y="590" on="0"/>
        <pt x="633" y="433" on="0"/>
        <pt x="633" y="311" on="1"/>
        <pt x="633" y="162" on="0"/>
        <pt x="470" y="-15" on="0"/>
        <pt x="333" y="-15" on="1"/>
        <pt x="316" y="-15" on="0"/>
        <pt x="311" y="-14" on="1"/>
        <pt x="296" y="-98" on="1"/>
        <pt x="244" y="-89" on="1"/>
        <pt x="259" y="-7" on="1"/>
        <pt x="162" y="15" on="0"/>
        <pt x="55" y="172" on="0"/>
      </contour>
    </TTGlyph>
    <TTGlyph name="Otilde" xMin="55" yMin="-15" xMax="633" yMax="798">
      <contour>
        <pt x="203" y="-15" on="0"/>
        <pt x="55" y="150" on="0"/>
        <pt x="55" y="444" on="0"/>
        <pt x="217" y="620" on="0"/>
        <pt x="485" y="620" on="0"/>
        <pt x="633" y="456" on="0"/>
        <pt x="633" y="162" on="0"/>
        <pt x="470" y="-15" on="0"/>
      </contour>
      <contour>
        <pt x="156" y="297" on="1"/>
        <pt x="156" y="180" on="0"/>
        <pt x="262" y="51" on="0"/>
        <pt x="358" y="51" on="1"/>
        <pt x="415" y="51" on="0"/>
        <pt x="469" y="74" on="1"/>
        <pt x="495" y="100" on="0"/>
        <pt x="532" y="235" on="0"/>
        <pt x="532" y="306" on="1"/>
        <pt x="532" y="427" on="0"/>
        <pt x="427" y="554" on="0"/>
        <pt x="327" y="554" on="1"/>
        <pt x="270" y="554" on="0"/>
        <pt x="219" y="531" on="1"/>
        <pt x="193" y="506" on="0"/>
        <pt x="156" y="368" on="0"/>
      </contour>
      <contour>
        <pt x="478" y="793" on="1"/>
        <pt x="500" y="776" on="1"/>
        <pt x="459" y="699" on="0"/>
        <pt x="430" y="674" on="1"/>
        <pt x="407" y="674" on="0"/>
        <pt x="367" y="691" on="0"/>
        <pt x="290" y="734" on="1"/>
        <pt x="230" y="679" on="1"/>
        <pt x="208" y="696" on="1"/>
        <pt x="252" y="774" on="0"/>
        <pt x="278" y="798" on="1"/>
        <pt x="300" y="798" on="0"/>
        <pt x="344" y="779" on="0"/>
        <pt x="418" y="738" on="1"/>
      </contour>
    </TTGlyph>
    <TTGlyph name="P" xMin="80" yMin="0" xMax="476" yMax="620">
      <contour>
        <pt x="218" y="250" on="1"/>
        <pt x="215" y="289" on="1"/>
        <pt x="302" y="289" on="0"/>
        <pt x="378" y="349" on="0"/>
        <pt x="378" y="419" on="1"/>
        <pt x="378" y="560" on="0"/>
        <pt x="246" y="560" on="1"/>
        <pt x="225" y="560" on="0"/>
        <pt x="192" y="555" on="1"/>
        <pt x="182" y="407" on="1"/>
        <pt x="182" y="197" on="1"/>
        <pt x="196" y="0" on="1"/>
        <pt x="84" y="0" on="1"/>
        <pt x="98" y="198" on="1"/>
        <pt x="98" y="467" on="1"/>
        <pt x="80" y="599" on="1"/>
        <pt x="204" y="620" on="0"/>
        <pt x="267" y="620" on="1"/>
        <pt x="476" y="620" on="0"/>
        <pt x="476" y="429" on="1"/>
        <pt x="476" y="351" on="0"/>
        <pt x="393" y="256" on="0"/>
        <pt x="316" y="245" on="1"/>
      </contour>
    </TTGlyph>
    <TTGlyph name="Q" xMin="55" yMin="-148" xMax="685" yMax="620">
      <contour>
        <pt x="156" y="297" on="1"/>
        <pt x="156" y="180" on="0"/>
        <pt x="262" y="51" on="0"/>
        <pt x="358" y="51" on="1"/>
        <pt x="415" y="51" on="0"/>
        <pt x="469" y="74" on="1"/>
        <pt x="495" y="100" on="0"/>
        <pt x="532" y="235" on="0"/>
        <pt x="532" y="306" on="1"/>
        <pt x="532" y="427" on="0"/>
        <pt x="427" y="554" on="0"/>
        <pt x="327" y="554" on="1"/>
        <pt x="270" y="554" on="0"/>
        <pt x="219" y="531" on="1"/>
        <pt x="193" y="506" on="0"/>
        <pt x="156" y="368" on="0"/>
      </contour>
      <contour>
        <pt x="203" y="-15" on="0"/>
        <pt x="55" y="150" on="0"/>
        <pt x="55" y="444" on="0"/>
        <pt x="217" y="620" on="0"/>
        <pt x="485" y="620" on="0"/>
        <pt x="633" y="456" on="0"/>
        <pt x="633" y="311" on="1"/>
        <pt x="633" y="219" on="0"/>
        <pt x="568" y="76" on="0"/>
        <pt x="507" y="35" on="1"/>
        <pt x="630" y="-73" on="1"/>
        <pt x="684" y="-108" on="1"/>
        <pt x="685" y="-128" on="1"/>
        <pt x="570" y="-148" on="1"/>
        <pt x="542" y="-102" on="1"/>
        <pt x="449" y="5" on="1"/>
        <pt x="394" y="-15" on="0"/>
        <pt x="333" y="-15" on="1"/>
      </contour>
    </TTGlyph>
    <TTGlyph name="R" xMin="80" yMin="-8" xMax="534" yMax="620">
      <contour>
        <pt x="217" y="272" on="1"/>
        <pt x="217" y="297" on="1"/>
        <pt x="300" y="297" on="0"/>
        <pt x="370" y="355" on="0"/>
        <pt x="370" y="423" on="1"/>
        <pt x="370" y="560" on="0"/>
        <pt x="243" y="560" on="1"/>
        <pt x="225" y="560" on="0"/>
        <pt x="192" y="555" on="1"/>
        <pt x="182" y="407" on="1"/>
        <pt x="182" y="197" on="1"/>
        <pt x="196" y="0" on="1"/>
        <pt x="84" y="0" on="1"/>
        <pt x="98" y="198" on="1"/>
        <pt x="98" y="467" on="1"/>
        <pt x="80" y="599" on="1"/>
        <pt x="198" y="620" on="0"/>
        <pt x="265" y="620" on="1"/>
        <pt x="468" y="620" on="0"/>
        <pt x="468" y="433" on="1"/>
        <pt x="468" y="362" on="0"/>
        <pt x="398" y="271" on="0"/>
        <pt x="332" y="256" on="1"/>
        <pt x="449" y="102" on="1"/>
        <pt x="534" y="9" on="1"/>
        <pt x="534" y="-1" on="1"/>
        <pt x="399" y="-8" on="1"/>
        <pt x="349" y="96" on="1"/>
      </contour>
    </TTGlyph>
    <TTGlyph name="S" xMin="55" yMin="-15" xMax="447" yMax="617">
      <contour>
        <pt x="55" y="17" on="1"/>
        <pt x="89" y="118" on="1"/>
        <pt x="147" y="80" on="0"/>
        <pt x="220" y="52" on="0"/>
        <pt x="259" y="52" on="1"/>
        <pt x="325" y="52" on="0"/>
        <pt x="363" y="92" on="1"/>
        <pt x="366" y="107" on="0"/>
        <pt x="366" y="123" on="1"/>
        <pt x="366" y="170" on="0"/>
        <pt x="303" y="234" on="0"/>
        <pt x="214" y="272" on="0"/>
        <pt x="124" y="314" on="0"/>
        <pt x="61" y="392" on="0"/>
        <pt x="61" y="450" on="1"/>
        <pt x="61" y="525" on="0"/>
        <pt x="186" y="617" on="0"/>
        <pt x="288" y="617" on="1"/>
        <pt x="359" y="617" on="0"/>
        <pt x="421" y="589" on="1"/>
        <pt x="392" y="495" on="1"/>
        <pt x="308" y="551" on="0"/>
        <pt x="199" y="551" on="0"/>
        <pt x="144" y="517" on="1"/>
        <pt x="144" y="458" on="0"/>
        <pt x="206" y="383" on="0"/>
        <pt x="296" y="343" on="0"/>
        <pt x="385" y="303" on="0"/>
        <pt x="447" y="228" on="0"/>
        <pt x="447" y="169" on="1"/>
        <pt x="447" y="89" on="0"/>
        <pt x="318" y="-15" on="0"/>
        <pt x="136" y="-15" on="0"/>
      </contour>
    </TTGlyph>
    <TTGlyph name="Scaron" xMin="55" yMin="-15" xMax="447" yMax="817">
      <contour>
        <pt x="55" y="17" on="1"/>
        <pt x="89" y="118" on="1"/>
        <pt x="147" y="80" on="0"/>
        <pt x="220" y="52" on="0"/>
        <pt x="259" y="52" on="1"/>
        <pt x="325" y="52" on="0"/>
        <pt x="363" y="92" on="1"/>
        <pt x="366" y="107" on="0"/>
        <pt x="366" y="123" on="1"/>
        <pt x="366" y="170" on="0"/>
        <pt x="303" y="234" on="0"/>
        <pt x="214" y="272" on="0"/>
        <pt x="124" y="314" on="0"/>
        <pt x="61" y="392" on="0"/>
        <pt x="61" y="450" on="1"/>
        <pt x="61" y="525" on="0"/>
        <pt x="186" y="617" on="0"/>
        <pt x="288" y="617" on="1"/>
        <pt x="359" y="617" on="0"/>
        <pt x="421" y="589" on="1"/>
        <pt x="392" y="495" on="1"/>
        <pt x="308" y="551" on="0"/>
        <pt x="199" y="551" on="0"/>
        <pt x="144" y="517" on="1"/>
        <pt x="144" y="458" on="0"/>
        <pt x="206" y="383" on="0"/>
        <pt x="296" y="343" on="0"/>
        <pt x="385" y="303" on="0"/>
        <pt x="447" y="228" on="0"/>
        <pt x="447" y="169" on="1"/>
        <pt x="447" y="89" on="0"/>
        <pt x="318" y="-15" on="0"/>
        <pt x="136" y="-15" on="0"/>
      </contour>
      <contour>
        <pt x="113" y="785" on="1"/>
        <pt x="136" y="817" on="1"/>
        <pt x="251" y="740" on="1"/>
        <pt x="366" y="817" on="1"/>
        <pt x="389" y="785" on="1"/>
        <pt x="251" y="655" on="1"/>
      </contour>
    </TTGlyph>
    <TTGlyph name="T" xMin="20" yMin="0" xMax="479" yMax="617">
      <contour>
        <pt x="20" y="529" on="1"/>
        <pt x="25" y="605" on="1"/>
        <pt x="370" y="605" on="1"/>
        <pt x="479" y="617" on="1"/>
        <pt x="469" y="529" on="1"/>
        <pt x="358" y="535" on="1"/>
        <pt x="293" y="535" on="1"/>
        <pt x="284" y="407" on="1"/>
        <pt x="284" y="197" on="1"/>
        <pt x="298" y="0" on="1"/>
        <pt x="186" y="0" on="1"/>
        <pt x="200" y="198" on="1"/>
        <pt x="200" y="408" on="1"/>
        <pt x="190" y="535" on="1"/>
        <pt x="130" y="535" on="1"/>
      </contour>
    </TTGlyph>
    <TTGlyph name="Thorn" xMin="85" yMin="0" xMax="476" yMax="605">
      <contour>
        <pt x="85" y="0" on="1"/>
        <pt x="99" y="198" on="1"/>
        <pt x="99" y="408" on="1"/>
        <pt x="85" y="605" on="1"/>
        <pt x="197" y="605" on="1"/>
        <pt x="190" y="509" on="1"/>
        <pt x="240" y="514" on="0"/>
        <pt x="267" y="514" on="1"/>
        <pt x="476" y="514" on="0"/>
        <pt x="476" y="332" on="1"/>
        <pt x="476" y="258" on="0"/>
        <pt x="393" y="168" on="0"/>
        <pt x="316" y="157" on="1"/>
        <pt x="218" y="162" on="1"/>
        <pt x="215" y="201" on="1"/>
        <pt x="302" y="201" on="0"/>
        <pt x="378" y="257" on="0"/>
        <pt x="378" y="322" on="1"/>
        <pt x="378" y="454" on="0"/>
        <pt x="246" y="454" on="1"/>
        <pt x="216" y="454" on="0"/>
        <pt x="186" y="448" on="1"/>
        <pt x="183" y="407" on="1"/>
        <pt x="183" y="197" on="1"/>
        <pt x="197" y="0" on="1"/>
      </contour>
    </TTGlyph>
    <TTGlyph name="U" xMin="70" yMin="-15" xMax="561" yMax="605">
      <contour>
        <pt x="84" y="263" on="1"/>
        <pt x="84" y="408" on="1"/>
        <pt x="70" y="605" on="1"/>
        <pt x="191" y="605" on="1"/>
        <pt x="178" y="407" on="1"/>
        <pt x="178" y="300" on="1"/>
        <pt x="178" y="171" on="0"/>
        <pt x="243" y="60" on="0"/>
        <pt x="398" y="60" on="0"/>
        <pt x="469" y="158" on="0"/>
        <pt x="469" y="268" on="1"/>
        <pt x="469" y="407" on="1"/>
        <pt x="456" y="605" on="1"/>
        <pt x="561" y="605" on="1"/>
        <pt x="547" y="408" on="1"/>
        <pt x="547" y="275" on="1"/>
        <pt x="547" y="-15" on="0"/>
        <pt x="304" y="-15" on="1"/>
        <pt x="84" y="-15" on="0"/>
      </contour>
    </TTGlyph>
    <TTGlyph name="Uacute" xMin="70" yMin="-15" xMax="561" yMax="820">
      <contour>
        <pt x="84" y="263" on="1"/>
        <pt x="84" y="408" on="1"/>
        <pt x="70" y="605" on="1"/>
        <pt x="191" y="605" on="1"/>
        <pt x="178" y="407" on="1"/>
        <pt x="178" y="300" on="1"/>
        <pt x="178" y="171" on="0"/>
        <pt x="243" y="60" on="0"/>
        <pt x="398" y="60" on="0"/>
        <pt x="469" y="158" on="0"/>
        <pt x="469" y="268" on="1"/>
        <pt x="469" y="407" on="1"/>
        <pt x="456" y="605" on="1"/>
        <pt x="561" y="605" on="1"/>
        <pt x="547" y="408" on="1"/>
        <pt x="547" y="275" on="1"/>
        <pt x="547" y="-15" on="0"/>
        <pt x="304" y="-15" on="1"/>
        <pt x="84" y="-15" on="0"/>
      </contour>
      <contour>
        <pt x="289" y="653" on="1"/>
        <pt x="266" y="685" on="1"/>
        <pt x="405" y="820" on="1"/>
        <pt x="464" y="755" on="1"/>
      </contour>
    </TTGlyph>
    <TTGlyph name="Ucircumflex" xMin="70" yMin="-15" xMax="561" yMax="815">
      <contour>
        <pt x="84" y="263" on="1"/>
        <pt x="84" y="408" on="1"/>
        <pt x="70" y="605" on="1"/>
        <pt x="191" y="605" on="1"/>
        <pt x="178" y="407" on="1"/>
        <pt x="178" y="300" on="1"/>
        <pt x="178" y="171" on="0"/>
        <pt x="243" y="60" on="0"/>
        <pt x="398" y="60" on="0"/>
        <pt x="469" y="158" on="0"/>
        <pt x="469" y="268" on="1"/>
        <pt x="469" y="407" on="1"/>
        <pt x="456" y="605" on="1"/>
        <pt x="561" y="605" on="1"/>
        <pt x="547" y="408" on="1"/>
        <pt x="547" y="275" on="1"/>
        <pt x="547" y="-15" on="0"/>
        <pt x="304" y="-15" on="1"/>
        <pt x="84" y="-15" on="0"/>
      </contour>
      <contour>
        <pt x="200" y="653" on="1"/>
        <pt x="177" y="685" on="1"/>
        <pt x="315" y="815" on="1"/>
        <pt x="453" y="685" on="1"/>
        <pt x="430" y="653" on="1"/>
        <pt x="315" y="729" on="1"/>
      </contour>
    </TTGlyph>
    <TTGlyph name="Udieresis" xMin="70" yMin="-15" xMax="561" yMax="798">
      <contour>
        <pt x="84" y="263" on="1"/>
        <pt x="84" y="408" on="1"/>
        <pt x="70" y="605" on="1"/>
        <pt x="191" y="605" on="1"/>
        <pt x="178" y="407" on="1"/>
        <pt x="178" y="300" on="1"/>
        <pt x="178" y="171" on="0"/>
        <pt x="243" y="60" on="0"/>
        <pt x="398" y="60" on="0"/>
        <pt x="469" y="158" on="0"/>
        <pt x="469" y="268" on="1"/>
        <pt x="469" y="407" on="1"/>
        <pt x="456" y="605" on="1"/>
        <pt x="561" y="605" on="1"/>
        <pt x="547" y="408" on="1"/>
        <pt x="547" y="275" on="1"/>
        <pt x="547" y="-15" on="0"/>
        <pt x="304" y="-15" on="1"/>
        <pt x="84" y="-15" on="0"/>
      </contour>
      <contour>
        <pt x="346" y="737" on="1"/>
        <pt x="373" y="777" on="0"/>
        <pt x="404" y="798" on="1"/>
        <pt x="440" y="773" on="0"/>
        <pt x="465" y="737" on="1"/>
        <pt x="442" y="702" on="0"/>
        <pt x="404" y="676" on="1"/>
        <pt x="371" y="698" on="0"/>
      </contour>
      <contour>
        <pt x="165" y="737" on="1"/>
        <pt x="191" y="775" on="0"/>
        <pt x="226" y="798" on="1"/>
        <pt x="257" y="775" on="0"/>
        <pt x="284" y="737" on="1"/>
        <pt x="257" y="698" on="0"/>
        <pt x="226" y="676" on="1"/>
        <pt x="189" y="700" on="0"/>
      </contour>
    </TTGlyph>
    <TTGlyph name="Ugrave" xMin="70" yMin="-15" xMax="561" yMax="820">
      <contour>
        <pt x="84" y="263" on="1"/>
        <pt x="84" y="408" on="1"/>
        <pt x="70" y="605" on="1"/>
        <pt x="191" y="605" on="1"/>
        <pt x="178" y="407" on="1"/>
        <pt x="178" y="300" on="1"/>
        <pt x="178" y="171" on="0"/>
        <pt x="243" y="60" on="0"/>
        <pt x="398" y="60" on="0"/>
        <pt x="469" y="158" on="0"/>
        <pt x="469" y="268" on="1"/>
        <pt x="469" y="407" on="1"/>
        <pt x="456" y="605" on="1"/>
        <pt x="561" y="605" on="1"/>
        <pt x="547" y="408" on="1"/>
        <pt x="547" y="275" on="1"/>
        <pt x="547" y="-15" on="0"/>
        <pt x="304" y="-15" on="1"/>
        <pt x="84" y="-15" on="0"/>
      </contour>
      <contour>
        <pt x="394" y="685" on="1"/>
        <pt x="371" y="653" on="1"/>
        <pt x="197" y="756" on="1"/>
        <pt x="256" y="820" on="1"/>
      </contour>
    </TTGlyph>
    <TTGlyph name="V" xMin="20" yMin="-5" xMax="538" yMax="611">
      <contour>
        <pt x="233" y="-5" on="1"/>
        <pt x="20" y="602" on="1"/>
        <pt x="136" y="611" on="1"/>
        <pt x="152" y="484" on="1"/>
        <pt x="274" y="100" on="1"/>
        <pt x="405" y="480" on="1"/>
        <pt x="417" y="605" on="1"/>
        <pt x="538" y="605" on="1"/>
        <pt x="309" y="1" on="1"/>
      </contour>
    </TTGlyph>
    <TTGlyph name="W" xMin="30" yMin="-5" xMax="829" yMax="611">
      <contour>
        <pt x="233" y="-5" on="1"/>
        <pt x="30" y="602" on="1"/>
        <pt x="144" y="611" on="1"/>
        <pt x="160" y="484" on="1"/>
        <pt x="269" y="112" on="1"/>
        <pt x="382" y="486" on="1"/>
        <pt x="345" y="602" on="1"/>
        <pt x="459" y="611" on="1"/>
        <pt x="475" y="484" on="1"/>
        <pt x="574" y="113" on="1"/>
        <pt x="696" y="480" on="1"/>
        <pt x="708" y="605" on="1"/>
        <pt x="829" y="605" on="1"/>
        <pt x="604" y="1" on="1"/>
        <pt x="533" y="-5" on="1"/>
        <pt x="421" y="355" on="1"/>
        <pt x="294" y="1" on="1"/>
      </contour>
    </TTGlyph>
    <TTGlyph name="X" xMin="25" yMin="-8" xMax="534" yMax="612">
      <contour>
        <pt x="25" y="0" on="1"/>
        <pt x="25" y="8" on="1"/>
        <pt x="227" y="310" on="1"/>
        <pt x="133" y="468" on="1"/>
        <pt x="33" y="593" on="1"/>
        <pt x="33" y="602" on="1"/>
        <pt x="170" y="612" on="1"/>
        <pt x="224" y="489" on="1"/>
        <pt x="283" y="388" on="1"/>
        <pt x="347" y="494" on="1"/>
        <pt x="393" y="605" on="1"/>
        <pt x="515" y="605" on="1"/>
        <pt x="515" y="597" on="1"/>
        <pt x="323" y="322" on="1"/>
        <pt x="434" y="136" on="1"/>
        <pt x="534" y="11" on="1"/>
        <pt x="534" y="2" on="1"/>
        <pt x="397" y="-8" on="1"/>
        <pt x="345" y="112" on="1"/>
        <pt x="265" y="245" on="1"/>
        <pt x="193" y="111" on="1"/>
        <pt x="147" y="0" on="1"/>
      </contour>
    </TTGlyph>
    <TTGlyph name="Y" xMin="15" yMin="0" xMax="490" yMax="612">
      <contour>
        <pt x="203" y="0" on="1"/>
        <pt x="217" y="198" on="1"/>
        <pt x="217" y="242" on="1"/>
        <pt x="15" y="603" on="1"/>
        <pt x="147" y="612" on="1"/>
        <pt x="171" y="514" on="1"/>
        <pt x="262" y="330" on="1"/>
        <pt x="348" y="505" on="1"/>
        <pt x="372" y="605" on="1"/>
        <pt x="490" y="605" on="1"/>
        <pt x="301" y="262" on="1"/>
        <pt x="301" y="197" on="1"/>
        <pt x="315" y="0" on="1"/>
      </contour>
    </TTGlyph>
    <TTGlyph name="Yacute" xMin="15" yMin="0" xMax="490" yMax="820">
      <contour>
        <pt x="203" y="0" on="1"/>
        <pt x="217" y="198" on="1"/>
        <pt x="217" y="242" on="1"/>
        <pt x="15" y="603" on="1"/>
        <pt x="147" y="612" on="1"/>
        <pt x="171" y="514" on="1"/>
        <pt x="262" y="330" on="1"/>
        <pt x="348" y="505" on="1"/>
        <pt x="372" y="605" on="1"/>
        <pt x="490" y="605" on="1"/>
        <pt x="301" y="262" on="1"/>
        <pt x="301" y="197" on="1"/>
        <pt x="315" y="0" on="1"/>
      </contour>
      <contour>
        <pt x="221" y="653" on="1"/>
        <pt x="198" y="685" on="1"/>
        <pt x="337" y="820" on="1"/>
        <pt x="396" y="755" on="1"/>
      </contour>
    </TTGlyph>
    <TTGlyph name="Ydieresis" xMin="15" yMin="0" xMax="490" yMax="798">
      <contour>
        <pt x="203" y="0" on="1"/>
        <pt x="217" y="198" on="1"/>
        <pt x="217" y="242" on="1"/>
        <pt x="15" y="603" on="1"/>
        <pt x="147" y="612" on="1"/>
        <pt x="171" y="514" on="1"/>
        <pt x="262" y="330" on="1"/>
        <pt x="348" y="505" on="1"/>
        <pt x="372" y="605" on="1"/>
        <pt x="490" y="605" on="1"/>
        <pt x="301" y="262" on="1"/>
        <pt x="301" y="197" on="1"/>
        <pt x="315" y="0" on="1"/>
      </contour>
      <contour>
        <pt x="291" y="737" on="1"/>
        <pt x="318" y="777" on="0"/>
        <pt x="349" y="798" on="1"/>
        <pt x="385" y="773" on="0"/>
        <pt x="410" y="737" on="1"/>
        <pt x="387" y="702" on="0"/>
        <pt x="349" y="676" on="1"/>
        <pt x="316" y="698" on="0"/>
      </contour>
      <contour>
        <pt x="110" y="737" on="1"/>
        <pt x="136" y="775" on="0"/>
        <pt x="171" y="798" on="1"/>
        <pt x="202" y="775" on="0"/>
        <pt x="229" y="737" on="1"/>
        <pt x="202" y="698" on="0"/>
        <pt x="171" y="676" on="1"/>
        <pt x="134" y="700" on="0"/>
      </contour>
    </TTGlyph>
    <TTGlyph name="Z" xMin="20" yMin="-8" xMax="465" yMax="614">
      <contour>
        <pt x="31" y="-8" on="1"/>
        <pt x="20" y="38" on="1"/>
        <pt x="349" y="536" on="1"/>
        <pt x="162" y="536" on="1"/>
        <pt x="40" y="500" on="1"/>
        <pt x="28" y="605" on="1"/>
        <pt x="380" y="605" on="1"/>
        <pt x="454" y="614" on="1"/>
        <pt x="465" y="567" on="1"/>
        <pt x="138" y="70" on="1"/>
        <pt x="324" y="70" on="1"/>
        <pt x="453" y="110" on="1"/>
        <pt x="465" y="0" on="1"/>
        <pt x="99" y="0" on="1"/>
      </contour>
    </TTGlyph>
    <TTGlyph name="Zcaron" xMin="20" yMin="-8" xMax="465" yMax="817">
      <contour>
        <pt x="110" y="785" on="1"/>
        <pt x="133" y="817" on="1"/>
        <pt x="248" y="740" on="1"/>
        <pt x="363" y="817" on="1"/>
        <pt x="386" y="785" on="1"/>
        <pt x="248" y="655" on="1"/>
      </contour>
      <contour>
        <pt x="31" y="-8" on="1"/>
        <pt x="20" y="38" on="1"/>
        <pt x="349" y="536" on="1"/>
        <pt x="162" y="536" on="1"/>
        <pt x="40" y="500" on="1"/>
        <pt x="28" y="605" on="1"/>
        <pt x="380" y="605" on="1"/>
        <pt x="454" y="614" on="1"/>
        <pt x="465" y="567" on="1"/>
        <pt x="138" y="70" on="1"/>
        <pt x="324" y="70" on="1"/>
        <pt x="453" y="110" on="1"/>
        <pt x="465" y="0" on="1"/>
        <pt x="99" y="0" on="1"/>
      </contour>
    </TTGlyph>
    <TTGlyph name="a" xMin="40" yMin="-15" xMax="397" yMax="455">
      <contour>
        <pt x="109" y="-15" on="0"/>
        <pt x="40" y="54" on="0"/>
        <pt x="40" y="174" on="0"/>
        <pt x="138" y="232" on="0"/>
        <pt x="295" y="261" on="1"/>
        <pt x="295" y="337" on="0"/>
        <pt x="261" y="395" on="0"/>
        <pt x="217" y="395" on="1"/>
        <pt x="193" y="395" on="0"/>
        <pt x="179" y="393" on="1"/>
        <pt x="95" y="319" on="1"/>
        <pt x="50" y="394" on="1"/>
        <pt x="127" y="455" on="0"/>
        <pt x="222" y="455" on="1"/>
        <pt x="379" y="455" on="0"/>
        <pt x="379" y="297" on="1"/>
        <pt x="379" y="112" on="1"/>
        <pt x="397" y="-1" on="1"/>
        <pt x="304" y="-15" on="1"/>
        <pt x="300" y="35" on="1"/>
        <pt x="238" y="-15" on="0"/>
      </contour>
      <contour>
        <pt x="125" y="118" on="1"/>
        <pt x="125" y="85" on="0"/>
        <pt x="166" y="47" on="0"/>
        <pt x="253" y="47" on="0"/>
        <pt x="295" y="78" on="1"/>
        <pt x="295" y="204" on="1"/>
        <pt x="199" y="190" on="0"/>
        <pt x="132" y="161" on="1"/>
        <pt x="125" y="134" on="0"/>
      </contour>
    </TTGlyph>
    <TTGlyph name="aacute" xMin="40" yMin="-15" xMax="397" yMax="669">
      <contour>
        <pt x="109" y="-15" on="0"/>
        <pt x="40" y="54" on="0"/>
        <pt x="40" y="174" on="0"/>
        <pt x="138" y="232" on="0"/>
        <pt x="295" y="261" on="1"/>
        <pt x="295" y="337" on="0"/>
        <pt x="261" y="395" on="0"/>
        <pt x="217" y="395" on="1"/>
        <pt x="193" y="395" on="0"/>
        <pt x="179" y="393" on="1"/>
        <pt x="95" y="319" on="1"/>
        <pt x="50" y="394" on="1"/>
        <pt x="127" y="455" on="0"/>
        <pt x="222" y="455" on="1"/>
        <pt x="379" y="455" on="0"/>
        <pt x="379" y="297" on="1"/>
        <pt x="379" y="112" on="1"/>
        <pt x="397" y="-1" on="1"/>
        <pt x="304" y="-15" on="1"/>
        <pt x="300" y="35" on="1"/>
        <pt x="238" y="-15" on="0"/>
      </contour>
      <contour>
        <pt x="125" y="118" on="1"/>
        <pt x="125" y="85" on="0"/>
        <pt x="166" y="47" on="0"/>
        <pt x="253" y="47" on="0"/>
        <pt x="295" y="78" on="1"/>
        <pt x="295" y="204" on="1"/>
        <pt x="199" y="190" on="0"/>
        <pt x="132" y="161" on="1"/>
        <pt x="125" y="134" on="0"/>
      </contour>
      <contour>
        <pt x="158" y="502" on="1"/>
        <pt x="135" y="534" on="1"/>
        <pt x="274" y="669" on="1"/>
        <pt x="333" y="604" on="1"/>
      </contour>
    </TTGlyph>
    <TTGlyph name="acircumflex" xMin="40" yMin="-15" xMax="397" yMax="664">
      <contour>
        <pt x="109" y="-15" on="0"/>
        <pt x="40" y="54" on="0"/>
        <pt x="40" y="174" on="0"/>
        <pt x="138" y="232" on="0"/>
        <pt x="295" y="261" on="1"/>
        <pt x="295" y="337" on="0"/>
        <pt x="261" y="395" on="0"/>
        <pt x="217" y="395" on="1"/>
        <pt x="193" y="395" on="0"/>
        <pt x="179" y="393" on="1"/>
        <pt x="95" y="319" on="1"/>
        <pt x="50" y="394" on="1"/>
        <pt x="127" y="455" on="0"/>
        <pt x="222" y="455" on="1"/>
        <pt x="379" y="455" on="0"/>
        <pt x="379" y="297" on="1"/>
        <pt x="379" y="112" on="1"/>
        <pt x="397" y="-1" on="1"/>
        <pt x="304" y="-15" on="1"/>
        <pt x="300" y="35" on="1"/>
        <pt x="238" y="-15" on="0"/>
      </contour>
      <contour>
        <pt x="125" y="118" on="1"/>
        <pt x="125" y="85" on="0"/>
        <pt x="166" y="47" on="0"/>
        <pt x="253" y="47" on="0"/>
        <pt x="295" y="78" on="1"/>
        <pt x="295" y="204" on="1"/>
        <pt x="199" y="190" on="0"/>
        <pt x="132" y="161" on="1"/>
        <pt x="125" y="134" on="0"/>
      </contour>
      <contour>
        <pt x="95" y="502" on="1"/>
        <pt x="72" y="534" on="1"/>
        <pt x="210" y="664" on="1"/>
        <pt x="348" y="534" on="1"/>
        <pt x="325" y="502" on="1"/>
        <pt x="210" y="578" on="1"/>
      </contour>
    </TTGlyph>
    <TTGlyph name="acute" xMin="122" yMin="502" xMax="320" yMax="669">
      <contour>
        <pt x="145" y="502" on="1"/>
        <pt x="122" y="534" on="1"/>
        <pt x="261" y="669" on="1"/>
        <pt x="320" y="604" on="1"/>
      </contour>
    </TTGlyph>
    <TTGlyph name="adieresis" xMin="40" yMin="-15" xMax="397" yMax="647">
      <contour>
        <pt x="109" y="-15" on="0"/>
        <pt x="40" y="54" on="0"/>
        <pt x="40" y="174" on="0"/>
        <pt x="138" y="232" on="0"/>
        <pt x="295" y="261" on="1"/>
        <pt x="295" y="337" on="0"/>
        <pt x="261" y="395" on="0"/>
        <pt x="217" y="395" on="1"/>
        <pt x="193" y="395" on="0"/>
        <pt x="179" y="393" on="1"/>
        <pt x="95" y="319" on="1"/>
        <pt x="50" y="394" on="1"/>
        <pt x="127" y="455" on="0"/>
        <pt x="222" y="455" on="1"/>
        <pt x="379" y="455" on="0"/>
        <pt x="379" y="297" on="1"/>
        <pt x="379" y="112" on="1"/>
        <pt x="397" y="-1" on="1"/>
        <pt x="304" y="-15" on="1"/>
        <pt x="300" y="35" on="1"/>
        <pt x="238" y="-15" on="0"/>
      </contour>
      <contour>
        <pt x="125" y="118" on="1"/>
        <pt x="125" y="85" on="0"/>
        <pt x="166" y="47" on="0"/>
        <pt x="253" y="47" on="0"/>
        <pt x="295" y="78" on="1"/>
        <pt x="295" y="204" on="1"/>
        <pt x="199" y="190" on="0"/>
        <pt x="132" y="161" on="1"/>
        <pt x="125" y="134" on="0"/>
      </contour>
      <contour>
        <pt x="67" y="586" on="1"/>
        <pt x="93" y="624" on="0"/>
        <pt x="128" y="647" on="1"/>
        <pt x="159" y="624" on="0"/>
        <pt x="186" y="586" on="1"/>
        <pt x="159" y="547" on="0"/>
        <pt x="128" y="525" on="1"/>
        <pt x="91" y="549" on="0"/>
      </contour>
      <contour>
        <pt x="248" y="586" on="1"/>
        <pt x="275" y="626" on="0"/>
        <pt x="306" y="647" on="1"/>
        <pt x="342" y="622" on="0"/>
        <pt x="367" y="586" on="1"/>
        <pt x="344" y="551" on="0"/>
        <pt x="306" y="525" on="1"/>
        <pt x="273" y="547" on="0"/>
      </contour>
    </TTGlyph>
    <TTGlyph name="ae" xMin="40" yMin="-15" xMax="657" yMax="455">
      <contour>
        <pt x="109" y="-15" on="0"/>
        <pt x="40" y="54" on="0"/>
        <pt x="40" y="174" on="0"/>
        <pt x="138" y="232" on="0"/>
        <pt x="295" y="261" on="1"/>
        <pt x="295" y="337" on="0"/>
        <pt x="261" y="395" on="0"/>
        <pt x="217" y="395" on="1"/>
        <pt x="193" y="395" on="0"/>
        <pt x="179" y="393" on="1"/>
        <pt x="95" y="319" on="1"/>
        <pt x="50" y="394" on="1"/>
        <pt x="127" y="455" on="0"/>
        <pt x="315" y="455" on="0"/>
        <pt x="355" y="382" on="1"/>
        <pt x="406" y="454" on="0"/>
        <pt x="497" y="454" on="1"/>
        <pt x="573" y="454" on="0"/>
        <pt x="657" y="372" on="0"/>
        <pt x="657" y="298" on="1"/>
        <pt x="657" y="271" on="0"/>
        <pt x="652" y="233" on="1"/>
        <pt x="379" y="224" on="1"/>
        <pt x="379" y="139" on="0"/>
        <pt x="440" y="46" on="0"/>
        <pt x="495" y="46" on="1"/>
        <pt x="566" y="46" on="0"/>
        <pt x="626" y="97" on="1"/>
        <pt x="653" y="23" on="1"/>
        <pt x="585" y="-15" on="0"/>
        <pt x="501" y="-15" on="1"/>
        <pt x="391" y="-15" on="0"/>
        <pt x="337" y="62" on="1"/>
        <pt x="247" y="-15" on="0"/>
        <pt x="166" y="-15" on="1"/>
      </contour>
      <contour>
        <pt x="125" y="118" on="1"/>
        <pt x="125" y="85" on="0"/>
        <pt x="166" y="47" on="0"/>
        <pt x="202" y="47" on="1"/>
        <pt x="265" y="47" on="0"/>
        <pt x="317" y="96" on="1"/>
        <pt x="295" y="144" on="0"/>
        <pt x="295" y="204" on="1"/>
        <pt x="199" y="190" on="0"/>
        <pt x="132" y="161" on="1"/>
        <pt x="125" y="134" on="0"/>
      </contour>
      <contour>
        <pt x="379" y="276" on="1"/>
        <pt x="566" y="284" on="1"/>
        <pt x="565" y="345" on="0"/>
        <pt x="527" y="393" on="0"/>
        <pt x="441" y="393" on="0"/>
        <pt x="417" y="384" on="1"/>
        <pt x="382" y="351" on="0"/>
      </contour>
    </TTGlyph>
    <TTGlyph name="agrave" xMin="40" yMin="-15" xMax="397" yMax="669">
      <contour>
        <pt x="109" y="-15" on="0"/>
        <pt x="40" y="54" on="0"/>
        <pt x="40" y="174" on="0"/>
        <pt x="138" y="232" on="0"/>
        <pt x="295" y="261" on="1"/>
        <pt x="295" y="337" on="0"/>
        <pt x="261" y="395" on="0"/>
        <pt x="217" y="395" on="1"/>
        <pt x="193" y="395" on="0"/>
        <pt x="179" y="393" on="1"/>
        <pt x="95" y="319" on="1"/>
        <pt x="50" y="394" on="1"/>
        <pt x="127" y="455" on="0"/>
        <pt x="222" y="455" on="1"/>
        <pt x="379" y="455" on="0"/>
        <pt x="379" y="297" on="1"/>
        <pt x="379" y="112" on="1"/>
        <pt x="397" y="-1" on="1"/>
        <pt x="304" y="-15" on="1"/>
        <pt x="300" y="35" on="1"/>
        <pt x="238" y="-15" on="0"/>
      </contour>
      <contour>
        <pt x="125" y="118" on="1"/>
        <pt x="125" y="85" on="0"/>
        <pt x="166" y="47" on="0"/>
        <pt x="253" y="47" on="0"/>
        <pt x="295" y="78" on="1"/>
        <pt x="295" y="204" on="1"/>
        <pt x="199" y="190" on="0"/>
        <pt x="132" y="161" on="1"/>
        <pt x="125" y="134" on="0"/>
      </contour>
      <contour>
        <pt x="292" y="534" on="1"/>
        <pt x="269" y="502" on="1"/>
        <pt x="95" y="605" on="1"/>
        <pt x="154" y="669" on="1"/>
      </contour>
    </TTGlyph>
    <TTGlyph name="ampersand" xMin="32" yMin="-22" xMax="577" yMax="620">
      <contour>
        <pt x="398" y="316" on="1"/>
        <pt x="493" y="320" on="1"/>
        <pt x="493" y="193" on="0"/>
        <pt x="451" y="112" on="1"/>
        <pt x="490" y="74" on="1"/>
        <pt x="577" y="13" on="1"/>
        <pt x="577" y="3" on="1"/>
        <pt x="456" y="-22" on="1"/>
        <pt x="399" y="44" on="1"/>
        <pt x="335" y="-15" on="0"/>
        <pt x="139" y="-15" on="0"/>
        <pt x="32" y="66" on="0"/>
        <pt x="32" y="148" on="1"/>
        <pt x="32" y="201" on="0"/>
        <pt x="88" y="272" on="0"/>
        <pt x="138" y="303" on="1"/>
        <pt x="89" y="356" on="0"/>
        <pt x="64" y="420" on="0"/>
        <pt x="64" y="537" on="0"/>
        <pt x="164" y="620" on="0"/>
        <pt x="311" y="620" on="0"/>
        <pt x="395" y="549" on="0"/>
        <pt x="395" y="424" on="0"/>
        <pt x="323" y="344" on="0"/>
        <pt x="257" y="303" on="1"/>
        <pt x="402" y="160" on="1"/>
        <pt x="409" y="195" on="0"/>
        <pt x="409" y="220" on="1"/>
      </contour>
      <contour>
        <pt x="360" y="84" on="1"/>
        <pt x="184" y="256" on="1"/>
        <pt x="119" y="209" on="0"/>
        <pt x="119" y="163" on="1"/>
        <pt x="119" y="46" on="0"/>
        <pt x="245" y="46" on="1"/>
        <pt x="319" y="46" on="0"/>
      </contour>
      <contour>
        <pt x="262" y="375" on="0"/>
        <pt x="314" y="435" on="0"/>
        <pt x="314" y="480" on="1"/>
        <pt x="314" y="564" on="0"/>
        <pt x="233" y="564" on="1"/>
        <pt x="203" y="564" on="0"/>
        <pt x="171" y="555" on="1"/>
        <pt x="147" y="525" on="0"/>
        <pt x="147" y="441" on="0"/>
        <pt x="180" y="380" on="0"/>
        <pt x="213" y="346" on="1"/>
      </contour>
    </TTGlyph>
    <TTGlyph name="apple" xMin="80" yMin="-1" xMax="736" yMax="688">
      <contour>
        <pt x="526" y="295" on="1"/>
        <pt x="530" y="259" on="0"/>
        <pt x="530" y="250" on="1"/>
        <pt x="591" y="232" on="0"/>
        <pt x="665" y="224" on="0"/>
        <pt x="707" y="185" on="0"/>
        <pt x="721" y="132" on="0"/>
        <pt x="736" y="62" on="0"/>
        <pt x="736" y="6" on="1"/>
        <pt x="736" y="-1" on="0"/>
        <pt x="729" y="-1" on="1"/>
        <pt x="703" y="-1" on="1"/>
        <pt x="697" y="-1" on="0"/>
        <pt x="697" y="12" on="0"/>
        <pt x="704" y="12" on="1"/>
        <pt x="723" y="12" on="1"/>
        <pt x="723" y="59" on="0"/>
        <pt x="705" y="137" on="1"/>
        <pt x="700" y="159" on="1"/>
        <pt x="696" y="179" on="0"/>
        <pt x="660" y="211" on="0"/>
        <pt x="588" y="218" on="0"/>
        <pt x="519" y="241" on="0"/>
        <pt x="518" y="243" on="1"/>
        <pt x="517" y="249" on="0"/>
        <pt x="514" y="289" on="0"/>
        <pt x="513" y="296" on="1"/>
        <pt x="486" y="296" on="0"/>
        <pt x="460" y="309" on="1"/>
        <pt x="457" y="310" on="0"/>
        <pt x="457" y="322" on="0"/>
        <pt x="464" y="322" on="1"/>
        <pt x="465" y="322" on="0"/>
        <pt x="498" y="309" on="0"/>
        <pt x="542" y="309" on="0"/>
        <pt x="553" y="321" on="0"/>
        <pt x="570" y="430" on="0"/>
        <pt x="577" y="445" on="1"/>
        <pt x="581" y="458" on="0"/>
        <pt x="581" y="556" on="0"/>
        <pt x="577" y="576" on="1"/>
        <pt x="559" y="673" on="0"/>
        <pt x="447" y="673" on="1"/>
        <pt x="363" y="673" on="0"/>
        <pt x="269" y="588" on="0"/>
        <pt x="269" y="447" on="0"/>
        <pt x="314" y="358" on="0"/>
        <pt x="353" y="348" on="1"/>
        <pt x="359" y="346" on="0"/>
        <pt x="359" y="334" on="0"/>
        <pt x="353" y="241" on="0"/>
        <pt x="350" y="237" on="0"/>
        <pt x="348" y="237" on="1"/>
        <pt x="322" y="237" on="0"/>
        <pt x="208" y="193" on="0"/>
        <pt x="186" y="190" on="1"/>
        <pt x="130" y="182" on="0"/>
        <pt x="118" y="136" on="1"/>
        <pt x="111" y="107" on="1"/>
        <pt x="97" y="47" on="0"/>
        <pt x="94" y="12" on="1"/>
        <pt x="236" y="12" on="1"/>
        <pt x="243" y="12" on="0"/>
        <pt x="243" y="-1" on="0"/>
        <pt x="236" y="-1" on="1"/>
        <pt x="87" y="-1" on="1"/>
        <pt x="80" y="-1" on="0"/>
        <pt x="80" y="6" on="1"/>
        <pt x="83" y="48" on="0"/>
        <pt x="98" y="108" on="1"/>
        <pt x="106" y="138" on="1"/>
        <pt x="110" y="162" on="0"/>
        <pt x="153" y="201" on="0"/>
        <pt x="207" y="208" on="0"/>
        <pt x="318" y="249" on="0"/>
        <pt x="341" y="250" on="1"/>
        <pt x="345" y="306" on="0"/>
        <pt x="346" y="336" on="1"/>
        <pt x="303" y="350" on="0"/>
        <pt x="256" y="443" on="0"/>
        <pt x="256" y="595" on="0"/>
        <pt x="356" y="688" on="0"/>
        <pt x="447" y="688" on="1"/>
        <pt x="568" y="688" on="0"/>
        <pt x="592" y="579" on="1"/>
        <pt x="595" y="561" on="0"/>
        <pt x="595" y="467" on="0"/>
        <pt x="590" y="440" on="1"/>
        <pt x="577" y="408" on="0"/>
        <pt x="567" y="319" on="0"/>
        <pt x="548" y="297" on="0"/>
      </contour>
      <contour>
        <pt x="507" y="563" on="1"/>
        <pt x="512" y="558" on="1"/>
        <pt x="494" y="530" on="1"/>
        <pt x="481" y="541" on="1"/>
      </contour>
      <contour>
        <pt x="515" y="558" on="1"/>
        <pt x="520" y="563" on="1"/>
        <pt x="546" y="541" on="1"/>
        <pt x="533" y="530" on="1"/>
      </contour>
      <contour>
        <pt x="517" y="574" on="1"/>
        <pt x="510" y="574" on="1"/>
        <pt x="505" y="605" on="1"/>
        <pt x="522" y="605" on="1"/>
      </contour>
      <contour>
        <pt x="509" y="572" on="1"/>
        <pt x="506" y="565" on="1"/>
        <pt x="475" y="572" on="1"/>
        <pt x="481" y="587" on="1"/>
      </contour>
      <contour>
        <pt x="520" y="565" on="1"/>
        <pt x="518" y="572" on="1"/>
        <pt x="546" y="587" on="1"/>
        <pt x="552" y="572" on="1"/>
      </contour>
    </TTGlyph>
    <TTGlyph name="approxequal" xMin="70" yMin="89" xMax="478" yMax="369">
      <contour>
        <pt x="446" y="207" on="1"/>
        <pt x="478" y="158" on="1"/>
        <pt x="425" y="96" on="0"/>
        <pt x="354" y="96" on="1"/>
        <pt x="319" y="96" on="0"/>
        <pt x="208" y="131" on="0"/>
        <pt x="191" y="131" on="1"/>
        <pt x="144" y="131" on="0"/>
        <pt x="102" y="89" on="1"/>
        <pt x="70" y="138" on="1"/>
        <pt x="126" y="200" on="0"/>
        <pt x="194" y="200" on="1"/>
        <pt x="231" y="200" on="0"/>
        <pt x="336" y="165" on="0"/>
        <pt x="359" y="165" on="1"/>
        <pt x="404" y="165" on="0"/>
      </contour>
      <contour>
        <pt x="446" y="369" on="1"/>
        <pt x="478" y="320" on="1"/>
        <pt x="425" y="258" on="0"/>
        <pt x="354" y="258" on="1"/>
        <pt x="319" y="258" on="0"/>
        <pt x="208" y="293" on="0"/>
        <pt x="191" y="293" on="1"/>
        <pt x="144" y="293" on="0"/>
        <pt x="102" y="251" on="1"/>
        <pt x="70" y="300" on="1"/>
        <pt x="126" y="362" on="0"/>
        <pt x="194" y="362" on="1"/>
        <pt x="231" y="362" on="0"/>
        <pt x="336" y="327" on="0"/>
        <pt x="359" y="327" on="1"/>
        <pt x="404" y="327" on="0"/>
      </contour>
    </TTGlyph>
    <TTGlyph name="aring" xMin="40" yMin="-15" xMax="397" yMax="669">
      <contour>
        <pt x="109" y="-15" on="0"/>
        <pt x="40" y="54" on="0"/>
        <pt x="40" y="174" on="0"/>
        <pt x="138" y="232" on="0"/>
        <pt x="295" y="261" on="1"/>
        <pt x="295" y="337" on="0"/>
        <pt x="261" y="395" on="0"/>
        <pt x="217" y="395" on="1"/>
        <pt x="193" y="395" on="0"/>
        <pt x="179" y="393" on="1"/>
        <pt x="95" y="319" on="1"/>
        <pt x="50" y="394" on="1"/>
        <pt x="127" y="455" on="0"/>
        <pt x="222" y="455" on="1"/>
        <pt x="379" y="455" on="0"/>
        <pt x="379" y="297" on="1"/>
        <pt x="379" y="112" on="1"/>
        <pt x="397" y="-1" on="1"/>
        <pt x="304" y="-15" on="1"/>
        <pt x="300" y="35" on="1"/>
        <pt x="238" y="-15" on="0"/>
      </contour>
      <contour>
        <pt x="125" y="118" on="1"/>
        <pt x="125" y="85" on="0"/>
        <pt x="166" y="47" on="0"/>
        <pt x="253" y="47" on="0"/>
        <pt x="295" y="78" on="1"/>
        <pt x="295" y="204" on="1"/>
        <pt x="199" y="190" on="0"/>
        <pt x="132" y="161" on="1"/>
        <pt x="125" y="134" on="0"/>
      </contour>
      <contour>
        <pt x="180" y="669" on="0"/>
        <pt x="254" y="669" on="0"/>
        <pt x="303" y="622" on="0"/>
        <pt x="303" y="550" on="0"/>
        <pt x="254" y="502" on="0"/>
        <pt x="180" y="502" on="0"/>
        <pt x="131" y="550" on="0"/>
        <pt x="131" y="622" on="0"/>
      </contour>
      <contour>
        <pt x="174" y="564" on="0"/>
        <pt x="198" y="537" on="0"/>
        <pt x="235" y="537" on="0"/>
        <pt x="259" y="564" on="0"/>
        <pt x="259" y="606" on="0"/>
        <pt x="236" y="632" on="0"/>
        <pt x="198" y="632" on="0"/>
        <pt x="174" y="606" on="0"/>
      </contour>
    </TTGlyph>
    <TTGlyph name="asciicircum" xMin="80" yMin="278" xMax="481" yMax="605">
      <contour>
        <pt x="80" y="278" on="1"/>
        <pt x="252" y="605" on="1"/>
        <pt x="309" y="605" on="1"/>
        <pt x="481" y="278" on="1"/>
        <pt x="401" y="278" on="1"/>
        <pt x="282" y="515" on="1"/>
        <pt x="160" y="278" on="1"/>
      </contour>
    </TTGlyph>
    <TTGlyph name="asciitilde" xMin="70" yMin="221" xMax="478" yMax="339">
      <contour>
        <pt x="185" y="263" on="1"/>
        <pt x="144" y="263" on="0"/>
        <pt x="102" y="221" on="1"/>
        <pt x="70" y="270" on="1"/>
        <pt x="119" y="332" on="0"/>
        <pt x="203" y="332" on="1"/>
        <pt x="226" y="332" on="0"/>
        <pt x="333" y="297" on="0"/>
        <pt x="404" y="297" on="0"/>
        <pt x="446" y="339" on="1"/>
        <pt x="478" y="290" on="1"/>
        <pt x="428" y="228" on="0"/>
        <pt x="345" y="228" on="1"/>
        <pt x="317" y="228" on="0"/>
        <pt x="209" y="263" on="0"/>
      </contour>
    </TTGlyph>
    <TTGlyph name="asterisk" xMin="30" yMin="230" xMax="423" yMax="613">
      <contour>
        <pt x="193" y="399" on="1"/>
        <pt x="221" y="375" on="1"/>
        <pt x="126" y="230" on="1"/>
        <pt x="62" y="285" on="1"/>
      </contour>
      <contour>
        <pt x="233" y="375" on="1"/>
        <pt x="261" y="399" on="1"/>
        <pt x="392" y="285" on="1"/>
        <pt x="328" y="230" on="1"/>
      </contour>
      <contour>
        <pt x="245" y="451" on="1"/>
        <pt x="209" y="451" on="1"/>
        <pt x="185" y="613" on="1"/>
        <pt x="269" y="613" on="1"/>
      </contour>
      <contour>
        <pt x="203" y="442" on="1"/>
        <pt x="191" y="408" on="1"/>
        <pt x="30" y="447" on="1"/>
        <pt x="61" y="524" on="1"/>
      </contour>
      <contour>
        <pt x="262" y="408" on="1"/>
        <pt x="250" y="442" on="1"/>
        <pt x="392" y="524" on="1"/>
        <pt x="423" y="447" on="1"/>
      </contour>
    </TTGlyph>
    <TTGlyph name="at" xMin="35" yMin="-173" xMax="751" yMax="583">
      <contour>
        <pt x="323" y="150" on="1"/>
        <pt x="320" y="132" on="0"/>
        <pt x="320" y="121" on="1"/>
        <pt x="320" y="64" on="0"/>
        <pt x="391" y="64" on="1"/>
        <pt x="434" y="64" on="0"/>
        <pt x="478" y="87" on="1"/>
        <pt x="478" y="190" on="1"/>
        <pt x="387" y="178" on="0"/>
      </contour>
      <contour>
        <pt x="405" y="368" on="1"/>
        <pt x="370" y="366" on="1"/>
        <pt x="292" y="297" on="1"/>
        <pt x="250" y="367" on="1"/>
        <pt x="322" y="424" on="0"/>
        <pt x="410" y="424" on="1"/>
        <pt x="556" y="424" on="0"/>
        <pt x="556" y="277" on="1"/>
        <pt x="556" y="116" on="1"/>
        <pt x="567" y="57" on="1"/>
        <pt x="618" y="61" on="0"/>
        <pt x="676" y="163" on="0"/>
        <pt x="676" y="251" on="1"/>
        <pt x="676" y="369" on="0"/>
        <pt x="531" y="519" on="0"/>
        <pt x="418" y="519" on="1"/>
        <pt x="286" y="519" on="0"/>
        <pt x="111" y="342" on="0"/>
        <pt x="111" y="66" on="0"/>
        <pt x="290" y="-114" on="0"/>
        <pt x="433" y="-114" on="1"/>
        <pt x="516" y="-114" on="0"/>
        <pt x="609" y="-76" on="1"/>
        <pt x="629" y="-120" on="1"/>
        <pt x="532" y="-173" on="0"/>
        <pt x="418" y="-173" on="1"/>
        <pt x="250" y="-173" on="0"/>
        <pt x="35" y="38" on="0"/>
        <pt x="35" y="367" on="0"/>
        <pt x="251" y="583" on="0"/>
        <pt x="564" y="583" on="0"/>
        <pt x="751" y="400" on="0"/>
        <pt x="751" y="256" on="1"/>
        <pt x="751" y="153" on="0"/>
        <pt x="637" y="6" on="0"/>
        <pt x="557" y="6" on="1"/>
        <pt x="524" y="6" on="0"/>
        <pt x="493" y="25" on="0"/>
        <pt x="482" y="53" on="1"/>
        <pt x="426" y="6" on="0"/>
        <pt x="305" y="6" on="0"/>
        <pt x="240" y="59" on="0"/>
        <pt x="240" y="103" on="1"/>
        <pt x="240" y="165" on="0"/>
        <pt x="330" y="218" on="0"/>
        <pt x="478" y="243" on="1"/>
        <pt x="478" y="314" on="0"/>
        <pt x="446" y="368" on="0"/>
      </contour>
    </TTGlyph>
    <TTGlyph name="atilde" xMin="40" yMin="-15" xMax="397" yMax="647">
      <contour>
        <pt x="109" y="-15" on="0"/>
        <pt x="40" y="54" on="0"/>
        <pt x="40" y="174" on="0"/>
        <pt x="138" y="232" on="0"/>
        <pt x="295" y="261" on="1"/>
        <pt x="295" y="337" on="0"/>
        <pt x="261" y="395" on="0"/>
        <pt x="217" y="395" on="1"/>
        <pt x="193" y="395" on="0"/>
        <pt x="179" y="393" on="1"/>
        <pt x="95" y="319" on="1"/>
        <pt x="50" y="394" on="1"/>
        <pt x="127" y="455" on="0"/>
        <pt x="222" y="455" on="1"/>
        <pt x="379" y="455" on="0"/>
        <pt x="379" y="297" on="1"/>
        <pt x="379" y="112" on="1"/>
        <pt x="397" y="-1" on="1"/>
        <pt x="304" y="-15" on="1"/>
        <pt x="300" y="35" on="1"/>
        <pt x="238" y="-15" on="0"/>
      </contour>
      <contour>
        <pt x="125" y="118" on="1"/>
        <pt x="125" y="85" on="0"/>
        <pt x="166" y="47" on="0"/>
        <pt x="253" y="47" on="0"/>
        <pt x="295" y="78" on="1"/>
        <pt x="295" y="204" on="1"/>
        <pt x="199" y="190" on="0"/>
        <pt x="132" y="161" on="1"/>
        <pt x="125" y="134" on="0"/>
      </contour>
      <contour>
        <pt x="341" y="642" on="1"/>
        <pt x="363" y="625" on="1"/>
        <pt x="322" y="548" on="0"/>
        <pt x="293" y="523" on="1"/>
        <pt x="270" y="523" on="0"/>
        <pt x="230" y="540" on="0"/>
        <pt x="153" y="583" on="1"/>
        <pt x="93" y="528" on="1"/>
        <pt x="71" y="545" on="1"/>
        <pt x="115" y="623" on="0"/>
        <pt x="141" y="647" on="1"/>
        <pt x="163" y="647" on="0"/>
        <pt x="207" y="628" on="0"/>
        <pt x="281" y="587" on="1"/>
      </contour>
    </TTGlyph>
    <TTGlyph name="b" xMin="65" yMin="-15" xMax="442" yMax="680">
      <contour>
        <pt x="66" y="7" on="1"/>
        <pt x="80" y="205" on="1"/>
        <pt x="80" y="567" on="1"/>
        <pt x="65" y="670" on="1"/>
        <pt x="176" y="680" on="1"/>
        <pt x="162" y="482" on="1"/>
        <pt x="162" y="407" on="1"/>
        <pt x="220" y="454" on="0"/>
        <pt x="360" y="454" on="0"/>
        <pt x="442" y="341" on="0"/>
        <pt x="442" y="245" on="1"/>
        <pt x="442" y="126" on="0"/>
        <pt x="315" y="-15" on="0"/>
        <pt x="208" y="-15" on="1"/>
        <pt x="135" y="-15" on="0"/>
      </contour>
      <contour>
        <pt x="162" y="57" on="1"/>
        <pt x="184" y="46" on="0"/>
        <pt x="272" y="46" on="0"/>
        <pt x="313" y="56" on="1"/>
        <pt x="350" y="101" on="0"/>
        <pt x="350" y="215" on="1"/>
        <pt x="350" y="385" on="0"/>
        <pt x="261" y="385" on="1"/>
        <pt x="213" y="385" on="0"/>
        <pt x="162" y="361" on="1"/>
      </contour>
    </TTGlyph>
    <TTGlyph name="backslash" xMin="10" yMin="-40" xMax="269" yMax="660">
      <contour>
        <pt x="269" y="-40" on="1"/>
        <pt x="197" y="-40" on="1"/>
        <pt x="10" y="660" on="1"/>
        <pt x="82" y="660" on="1"/>
      </contour>
    </TTGlyph>
    <TTGlyph name="bar" xMin="150" yMin="-145" xMax="232" yMax="689">
      <contour>
        <pt x="150" y="-145" on="1"/>
        <pt x="150" y="681" on="1"/>
        <pt x="232" y="689" on="1"/>
        <pt x="232" y="-145" on="1"/>
      </contour>
    </TTGlyph>
    <TTGlyph name="braceleft" xMin="40" yMin="-198" xMax="276" yMax="685">
      <contour>
        <pt x="118" y="-96" on="1"/>
        <pt x="129" y="141" on="1"/>
        <pt x="129" y="159" on="0"/>
        <pt x="74" y="200" on="0"/>
        <pt x="40" y="208" on="1"/>
        <pt x="46" y="261" on="1"/>
        <pt x="76" y="268" on="0"/>
        <pt x="129" y="309" on="0"/>
        <pt x="129" y="326" on="1"/>
        <pt x="118" y="583" on="1"/>
        <pt x="118" y="648" on="0"/>
        <pt x="175" y="685" on="0"/>
        <pt x="276" y="685" on="1"/>
        <pt x="267" y="603" on="1"/>
        <pt x="196" y="613" on="1"/>
        <pt x="196" y="324" on="1"/>
        <pt x="196" y="295" on="0"/>
        <pt x="165" y="257" on="0"/>
        <pt x="121" y="233" on="1"/>
        <pt x="163" y="212" on="0"/>
        <pt x="196" y="173" on="0"/>
        <pt x="196" y="143" on="1"/>
        <pt x="196" y="-126" on="1"/>
        <pt x="267" y="-116" on="1"/>
        <pt x="276" y="-198" on="1"/>
        <pt x="175" y="-198" on="0"/>
        <pt x="118" y="-161" on="0"/>
      </contour>
    </TTGlyph>
    <TTGlyph name="braceright" xMin="10" yMin="-198" xMax="246" yMax="685">
      <contour>
        <pt x="168" y="583" on="1"/>
        <pt x="157" y="346" on="1"/>
        <pt x="157" y="328" on="0"/>
        <pt x="212" y="287" on="0"/>
        <pt x="246" y="279" on="1"/>
        <pt x="240" y="226" on="1"/>
        <pt x="210" y="219" on="0"/>
        <pt x="157" y="178" on="0"/>
        <pt x="157" y="161" on="1"/>
        <pt x="168" y="-96" on="1"/>
        <pt x="168" y="-161" on="0"/>
        <pt x="111" y="-198" on="0"/>
        <pt x="10" y="-198" on="1"/>
        <pt x="19" y="-116" on="1"/>
        <pt x="90" y="-126" on="1"/>
        <pt x="90" y="163" on="1"/>
        <pt x="90" y="192" on="0"/>
        <pt x="121" y="230" on="0"/>
        <pt x="165" y="254" on="1"/>
        <pt x="123" y="275" on="0"/>
        <pt x="90" y="314" on="0"/>
        <pt x="90" y="344" on="1"/>
        <pt x="90" y="613" on="1"/>
        <pt x="19" y="603" on="1"/>
        <pt x="10" y="685" on="1"/>
        <pt x="111" y="685" on="0"/>
        <pt x="168" y="648" on="0"/>
      </contour>
    </TTGlyph>
    <TTGlyph name="bracketleft" xMin="70" yMin="-198" xMax="223" yMax="685">
      <contour>
        <pt x="223" y="685" on="1"/>
        <pt x="214" y="603" on="1"/>
        <pt x="143" y="613" on="1"/>
        <pt x="143" y="-126" on="1"/>
        <pt x="214" y="-116" on="1"/>
        <pt x="223" y="-198" on="1"/>
        <pt x="126" y="-198" on="0"/>
        <pt x="70" y="-160" on="0"/>
        <pt x="70" y="-96" on="1"/>
        <pt x="70" y="583" on="1"/>
        <pt x="70" y="648" on="0"/>
        <pt x="126" y="685" on="0"/>
      </contour>
    </TTGlyph>
    <TTGlyph name="bracketright" xMin="10" yMin="-198" xMax="163" yMax="685">
      <contour>
        <pt x="19" y="603" on="1"/>
        <pt x="10" y="685" on="1"/>
        <pt x="107" y="685" on="0"/>
        <pt x="163" y="648" on="0"/>
        <pt x="163" y="583" on="1"/>
        <pt x="163" y="-96" on="1"/>
        <pt x="163" y="-160" on="0"/>
        <pt x="107" y="-198" on="0"/>
        <pt x="10" y="-198" on="1"/>
        <pt x="19" y="-116" on="1"/>
        <pt x="90" y="-126" on="1"/>
        <pt x="90" y="613" on="1"/>
      </contour>
    </TTGlyph>
    <TTGlyph name="breve" xMin="73" yMin="520" xMax="357" yMax="659">
      <contour>
        <pt x="110" y="659" on="1"/>
        <pt x="153" y="580" on="0"/>
        <pt x="275" y="580" on="0"/>
        <pt x="320" y="659" on="1"/>
        <pt x="357" y="637" on="1"/>
        <pt x="332" y="575" on="0"/>
        <pt x="265" y="520" on="0"/>
        <pt x="165" y="520" on="0"/>
        <pt x="97" y="576" on="0"/>
        <pt x="73" y="637" on="1"/>
      </contour>
    </TTGlyph>
    <TTGlyph name="brokenbar" xMin="150" yMin="-145" xMax="232" yMax="689">
      <contour>
        <pt x="150" y="-145" on="1"/>
        <pt x="150" y="224" on="1"/>
        <pt x="232" y="224" on="1"/>
        <pt x="232" y="-145" on="1"/>
      </contour>
      <contour>
        <pt x="150" y="320" on="1"/>
        <pt x="150" y="681" on="1"/>
        <pt x="232" y="689" on="1"/>
        <pt x="232" y="320" on="1"/>
      </contour>
    </TTGlyph>
    <TTGlyph name="bullet" xMin="70" yMin="145" xMax="266" yMax="341">
      <contour>
        <pt x="70" y="243" on="1"/>
        <pt x="110" y="302" on="0"/>
        <pt x="168" y="341" on="1"/>
        <pt x="229" y="299" on="0"/>
        <pt x="266" y="243" on="1"/>
        <pt x="227" y="184" on="0"/>
        <pt x="168" y="145" on="1"/>
        <pt x="110" y="182" on="0"/>
      </contour>
    </TTGlyph>
    <TTGlyph name="c" xMin="50" yMin="-15" xMax="398" yMax="454">
      <contour>
        <pt x="160" y="-15" on="0"/>
        <pt x="50" y="108" on="0"/>
        <pt x="50" y="318" on="0"/>
        <pt x="174" y="454" on="0"/>
        <pt x="275" y="454" on="1"/>
        <pt x="346" y="454" on="0"/>
        <pt x="392" y="431" on="1"/>
        <pt x="365" y="345" on="1"/>
        <pt x="241" y="394" on="1"/>
        <pt x="188" y="388" on="0"/>
        <pt x="142" y="306" on="0"/>
        <pt x="142" y="137" on="0"/>
        <pt x="199" y="46" on="0"/>
        <pt x="308" y="46" on="0"/>
        <pt x="371" y="97" on="1"/>
        <pt x="398" y="23" on="1"/>
        <pt x="327" y="-15" on="0"/>
      </contour>
    </TTGlyph>
    <TTGlyph name="caron" xMin="77" yMin="504" xMax="353" yMax="666">
      <contour>
        <pt x="77" y="634" on="1"/>
        <pt x="100" y="666" on="1"/>
        <pt x="215" y="589" on="1"/>
        <pt x="330" y="666" on="1"/>
        <pt x="353" y="634" on="1"/>
        <pt x="215" y="504" on="1"/>
      </contour>
    </TTGlyph>
    <TTGlyph name="ccedilla" xMin="50" yMin="-224" xMax="398" yMax="454">
      <contour>
        <pt x="143" y="-3" on="0"/>
        <pt x="50" y="116" on="0"/>
        <pt x="50" y="318" on="0"/>
        <pt x="174" y="454" on="0"/>
        <pt x="275" y="454" on="1"/>
        <pt x="346" y="454" on="0"/>
        <pt x="392" y="431" on="1"/>
        <pt x="365" y="345" on="1"/>
        <pt x="241" y="394" on="1"/>
        <pt x="188" y="388" on="0"/>
        <pt x="142" y="306" on="0"/>
        <pt x="142" y="137" on="0"/>
        <pt x="199" y="46" on="0"/>
        <pt x="308" y="46" on="0"/>
        <pt x="371" y="97" on="1"/>
        <pt x="398" y="23" on="1"/>
        <pt x="331" y="-12" on="0"/>
        <pt x="259" y="-15" on="1"/>
        <pt x="237" y="-59" on="1"/>
        <pt x="319" y="-68" on="0"/>
        <pt x="319" y="-132" on="1"/>
        <pt x="319" y="-176" on="0"/>
        <pt x="259" y="-224" on="0"/>
        <pt x="157" y="-224" on="0"/>
        <pt x="121" y="-210" on="1"/>
        <pt x="152" y="-154" on="1"/>
        <pt x="181" y="-165" on="0"/>
        <pt x="212" y="-165" on="1"/>
        <pt x="260" y="-165" on="0"/>
        <pt x="260" y="-132" on="1"/>
        <pt x="260" y="-106" on="0"/>
        <pt x="228" y="-89" on="0"/>
        <pt x="182" y="-89" on="1"/>
        <pt x="222" y="-13" on="1"/>
      </contour>
    </TTGlyph>
    <TTGlyph name="cedilla" xMin="116" yMin="-224" xMax="314" yMax="-2">
      <contour>
        <pt x="177" y="-89" on="1"/>
        <pt x="223" y="-2" on="1"/>
        <pt x="256" y="-11" on="1"/>
        <pt x="232" y="-59" on="1"/>
        <pt x="314" y="-68" on="0"/>
        <pt x="314" y="-132" on="1"/>
        <pt x="314" y="-176" on="0"/>
        <pt x="254" y="-224" on="0"/>
        <pt x="152" y="-224" on="0"/>
        <pt x="116" y="-210" on="1"/>
        <pt x="147" y="-154" on="1"/>
        <pt x="176" y="-165" on="0"/>
        <pt x="207" y="-165" on="1"/>
        <pt x="255" y="-165" on="0"/>
        <pt x="255" y="-132" on="1"/>
        <pt x="255" y="-106" on="0"/>
        <pt x="223" y="-89" on="0"/>
      </contour>
    </TTGlyph>
    <TTGlyph name="cent" xMin="93" yMin="-47" xMax="450" yMax="557">
      <contour>
        <pt x="185" y="256" on="1"/>
        <pt x="185" y="131" on="0"/>
        <pt x="246" y="95" on="1"/>
        <pt x="272" y="428" on="1"/>
        <pt x="226" y="418" on="0"/>
        <pt x="185" y="337" on="0"/>
      </contour>
      <contour>
        <pt x="172" y="45" on="0"/>
        <pt x="93" y="162" on="0"/>
        <pt x="93" y="341" on="0"/>
        <pt x="193" y="473" on="0"/>
        <pt x="276" y="487" on="1"/>
        <pt x="282" y="557" on="1"/>
        <pt x="334" y="557" on="1"/>
        <pt x="329" y="491" on="1"/>
        <pt x="399" y="488" on="0"/>
        <pt x="444" y="468" on="1"/>
        <pt x="420" y="391" on="1"/>
        <pt x="324" y="426" on="1"/>
        <pt x="297" y="83" on="1"/>
        <pt x="357" y="83" on="0"/>
        <pt x="426" y="124" on="1"/>
        <pt x="450" y="60" on="1"/>
        <pt x="377" y="22" on="0"/>
        <pt x="298" y="22" on="1"/>
        <pt x="292" y="22" on="1"/>
        <pt x="287" y="-47" on="1"/>
        <pt x="235" y="-47" on="1"/>
        <pt x="241" y="28" on="1"/>
      </contour>
    </TTGlyph>
    <TTGlyph name="circumflex" xMin="70" yMin="502" xMax="346" yMax="664">
      <contour>
        <pt x="93" y="502" on="1"/>
        <pt x="70" y="534" on="1"/>
        <pt x="208" y="664" on="1"/>
        <pt x="346" y="534" on="1"/>
        <pt x="323" y="502" on="1"/>
        <pt x="208" y="578" on="1"/>
      </contour>
    </TTGlyph>
    <TTGlyph name="colon" xMin="40" yMin="-16" xMax="180" yMax="406">
      <contour>
        <pt x="40" y="336" on="1"/>
        <pt x="69" y="377" on="0"/>
        <pt x="110" y="406" on="1"/>
        <pt x="153" y="376" on="0"/>
        <pt x="180" y="336" on="1"/>
        <pt x="151" y="293" on="0"/>
        <pt x="110" y="266" on="1"/>
        <pt x="69" y="293" on="0"/>
      </contour>
      <contour>
        <pt x="40" y="54" on="1"/>
        <pt x="69" y="95" on="0"/>
        <pt x="110" y="124" on="1"/>
        <pt x="153" y="94" on="0"/>
        <pt x="180" y="54" on="1"/>
        <pt x="151" y="11" on="0"/>
        <pt x="110" y="-16" on="1"/>
        <pt x="69" y="11" on="0"/>
      </contour>
    </TTGlyph>
    <TTGlyph name="comma" xMin="35" yMin="-154" xMax="176" yMax="124">
      <contour>
        <pt x="35" y="54" on="1"/>
        <pt x="64" y="95" on="0"/>
        <pt x="105" y="124" on="1"/>
        <pt x="150" y="93" on="0"/>
        <pt x="176" y="54" on="1"/>
        <pt x="153" y="-45" on="0"/>
        <pt x="78" y="-154" on="1"/>
        <pt x="44" y="-130" on="1"/>
        <pt x="74" y="-65" on="0"/>
        <pt x="86" y="-2" on="1"/>
        <pt x="57" y="20" on="0"/>
      </contour>
    </TTGlyph>
    <TTGlyph name="copyright" xMin="50" yMin="142" xMax="620" yMax="712">
      <contour>
        <pt x="267" y="255" on="0"/>
        <pt x="176" y="347" on="0"/>
        <pt x="176" y="506" on="0"/>
        <pt x="270" y="608" on="0"/>
        <pt x="345" y="608" on="1"/>
        <pt x="400" y="608" on="0"/>
        <pt x="459" y="582" on="1"/>
        <pt x="433" y="518" on="1"/>
        <pt x="370" y="562" on="1"/>
        <pt x="364" y="563" on="0"/>
        <pt x="347" y="563" on="1"/>
        <pt x="291" y="563" on="0"/>
        <pt x="241" y="502" on="0"/>
        <pt x="241" y="371" on="0"/>
        <pt x="301" y="298" on="0"/>
        <pt x="393" y="298" on="0"/>
        <pt x="440" y="337" on="1"/>
        <pt x="460" y="282" on="1"/>
        <pt x="404" y="255" on="0"/>
        <pt x="346" y="255" on="1"/>
      </contour>
      <contour>
        <pt x="620" y="712" on="0"/>
        <pt x="620" y="142" on="0"/>
        <pt x="50" y="142" on="0"/>
        <pt x="50" y="712" on="0"/>
      </contour>
      <contour>
        <pt x="556" y="427" on="1"/>
        <pt x="552" y="551" on="0"/>
        <pt x="448" y="658" on="0"/>
        <pt x="221" y="658" on="0"/>
        <pt x="119" y="550" on="0"/>
        <pt x="114" y="427" on="1"/>
        <pt x="119" y="304" on="0"/>
        <pt x="221" y="196" on="0"/>
        <pt x="448" y="196" on="0"/>
        <pt x="552" y="303" on="0"/>
      </contour>
    </TTGlyph>
    <TTGlyph name="d" xMin="50" yMin="-15" xMax="432" yMax="680">
      <contour>
        <pt x="335" y="35" on="1"/>
        <pt x="271" y="-15" on="0"/>
        <pt x="132" y="-15" on="0"/>
        <pt x="50" y="97" on="0"/>
        <pt x="50" y="193" on="1"/>
        <pt x="50" y="311" on="0"/>
        <pt x="175" y="454" on="0"/>
        <pt x="278" y="454" on="1"/>
        <pt x="307" y="454" on="0"/>
        <pt x="332" y="450" on="1"/>
        <pt x="332" y="565" on="1"/>
        <pt x="317" y="670" on="1"/>
        <pt x="425" y="680" on="1"/>
        <pt x="414" y="482" on="1"/>
        <pt x="414" y="112" on="1"/>
        <pt x="432" y="-1" on="1"/>
        <pt x="339" y="-15" on="1"/>
      </contour>
      <contour>
        <pt x="231" y="54" on="1"/>
        <pt x="277" y="54" on="0"/>
        <pt x="330" y="78" on="1"/>
        <pt x="330" y="382" on="1"/>
        <pt x="297" y="393" on="0"/>
        <pt x="223" y="393" on="0"/>
        <pt x="180" y="383" on="1"/>
        <pt x="142" y="332" on="0"/>
        <pt x="142" y="225" on="1"/>
        <pt x="142" y="54" on="0"/>
      </contour>
    </TTGlyph>
    <TTGlyph name="dagger" xMin="27" yMin="0" xMax="399" yMax="613">
      <contour>
        <pt x="195" y="397" on="1"/>
        <pt x="231" y="397" on="1"/>
        <pt x="265" y="0" on="1"/>
        <pt x="161" y="0" on="1"/>
      </contour>
      <contour>
        <pt x="237" y="407" on="1"/>
        <pt x="237" y="443" on="1"/>
        <pt x="399" y="472" on="1"/>
        <pt x="399" y="378" on="1"/>
      </contour>
      <contour>
        <pt x="189" y="443" on="1"/>
        <pt x="189" y="407" on="1"/>
        <pt x="27" y="378" on="1"/>
        <pt x="27" y="472" on="1"/>
      </contour>
      <contour>
        <pt x="230" y="451" on="1"/>
        <pt x="195" y="451" on="1"/>
        <pt x="167" y="613" on="1"/>
        <pt x="260" y="613" on="1"/>
      </contour>
    </TTGlyph>
    <TTGlyph name="daggerdbl" xMin="27" yMin="0" xMax="399" yMax="613">
      <contour>
        <pt x="230" y="451" on="1"/>
        <pt x="195" y="451" on="1"/>
        <pt x="161" y="613" on="1"/>
        <pt x="265" y="613" on="1"/>
      </contour>
      <contour>
        <pt x="196" y="162" on="1"/>
        <pt x="231" y="162" on="1"/>
        <pt x="265" y="0" on="1"/>
        <pt x="161" y="0" on="1"/>
      </contour>
      <contour>
        <pt x="256" y="307" on="1"/>
        <pt x="231" y="216" on="1"/>
        <pt x="195" y="216" on="1"/>
        <pt x="169" y="307" on="1"/>
        <pt x="195" y="397" on="1"/>
        <pt x="231" y="397" on="1"/>
      </contour>
      <contour>
        <pt x="189" y="206" on="1"/>
        <pt x="189" y="170" on="1"/>
        <pt x="27" y="141" on="1"/>
        <pt x="27" y="235" on="1"/>
      </contour>
      <contour>
        <pt x="189" y="443" on="1"/>
        <pt x="189" y="407" on="1"/>
        <pt x="27" y="378" on="1"/>
        <pt x="27" y="472" on="1"/>
      </contour>
      <contour>
        <pt x="237" y="407" on="1"/>
        <pt x="237" y="443" on="1"/>
        <pt x="399" y="472" on="1"/>
        <pt x="399" y="378" on="1"/>
      </contour>
      <contour>
        <pt x="237" y="170" on="1"/>
        <pt x="237" y="206" on="1"/>
        <pt x="399" y="235" on="1"/>
        <pt x="399" y="141" on="1"/>
      </contour>
    </TTGlyph>
    <TTGlyph name="degree" xMin="30" yMin="342" xMax="308" yMax="620">
      <contour>
        <pt x="110" y="342" on="0"/>
        <pt x="30" y="422" on="0"/>
        <pt x="30" y="539" on="0"/>
        <pt x="111" y="620" on="0"/>
        <pt x="226" y="620" on="0"/>
        <pt x="308" y="538" on="0"/>
        <pt x="308" y="423" on="0"/>
        <pt x="227" y="342" on="0"/>
      </contour>
      <contour>
        <pt x="133" y="570" on="0"/>
        <pt x="87" y="520" on="0"/>
        <pt x="87" y="441" on="0"/>
        <pt x="133" y="391" on="0"/>
        <pt x="204" y="391" on="0"/>
        <pt x="250" y="442" on="0"/>
        <pt x="250" y="519" on="0"/>
        <pt x="204" y="570" on="0"/>
      </contour>
    </TTGlyph>
    <TTGlyph name="dieresis" xMin="25" yMin="525" xMax="325" yMax="647">
      <contour>
        <pt x="25" y="586" on="1"/>
        <pt x="51" y="624" on="0"/>
        <pt x="86" y="647" on="1"/>
        <pt x="117" y="624" on="0"/>
        <pt x="144" y="586" on="1"/>
        <pt x="117" y="547" on="0"/>
        <pt x="86" y="525" on="1"/>
        <pt x="49" y="549" on="0"/>
      </contour>
      <contour>
        <pt x="206" y="586" on="1"/>
        <pt x="233" y="626" on="0"/>
        <pt x="264" y="647" on="1"/>
        <pt x="300" y="622" on="0"/>
        <pt x="325" y="586" on="1"/>
        <pt x="302" y="551" on="0"/>
        <pt x="264" y="525" on="1"/>
        <pt x="231" y="547" on="0"/>
      </contour>
    </TTGlyph>
    <TTGlyph name="divide" xMin="79" yMin="21" xMax="437" yMax="442">
      <contour>
        <pt x="79" y="196" on="1"/>
        <pt x="83" y="265" on="1"/>
        <pt x="437" y="265" on="1"/>
        <pt x="433" y="196" on="1"/>
      </contour>
      <contour>
        <pt x="201" y="81" on="1"/>
        <pt x="225" y="116" on="0"/>
        <pt x="260" y="140" on="1"/>
        <pt x="293" y="118" on="0"/>
        <pt x="320" y="81" on="1"/>
        <pt x="297" y="46" on="0"/>
        <pt x="260" y="21" on="1"/>
        <pt x="224" y="46" on="0"/>
      </contour>
      <contour>
        <pt x="201" y="383" on="1"/>
        <pt x="225" y="418" on="0"/>
        <pt x="260" y="442" on="1"/>
        <pt x="293" y="420" on="0"/>
        <pt x="320" y="383" on="1"/>
        <pt x="297" y="348" on="0"/>
        <pt x="260" y="323" on="1"/>
        <pt x="224" y="348" on="0"/>
      </contour>
    </TTGlyph>
    <TTGlyph name="dollar" xMin="82" yMin="-99" xMax="434" yMax="628">
      <contour>
        <pt x="82" y="14" on="1"/>
        <pt x="112" y="107" on="1"/>
        <pt x="176" y="64" on="0"/>
        <pt x="220" y="54" on="1"/>
        <pt x="234" y="236" on="1"/>
        <pt x="153" y="272" on="0"/>
        <pt x="88" y="344" on="0"/>
        <pt x="88" y="457" on="0"/>
        <pt x="180" y="538" on="0"/>
        <pt x="258" y="545" on="1"/>
        <pt x="265" y="628" on="1"/>
        <pt x="314" y="628" on="1"/>
        <pt x="307" y="547" on="1"/>
        <pt x="366" y="542" on="0"/>
        <pt x="411" y="522" on="1"/>
        <pt x="385" y="433" on="1"/>
        <pt x="339" y="464" on="0"/>
        <pt x="302" y="476" on="1"/>
        <pt x="289" y="307" on="1"/>
        <pt x="372" y="270" on="0"/>
        <pt x="434" y="204" on="0"/>
        <pt x="434" y="87" on="0"/>
        <pt x="339" y="-4" on="0"/>
        <pt x="264" y="-13" on="1"/>
        <pt x="257" y="-99" on="1"/>
        <pt x="208" y="-99" on="1"/>
        <pt x="214" y="-15" on="1"/>
        <pt x="149" y="-12" on="0"/>
      </contour>
      <contour>
        <pt x="361" y="109" on="1"/>
        <pt x="361" y="172" on="0"/>
        <pt x="282" y="214" on="1"/>
        <pt x="269" y="49" on="1"/>
        <pt x="326" y="49" on="0"/>
        <pt x="359" y="82" on="1"/>
        <pt x="361" y="104" on="0"/>
      </contour>
      <contour>
        <pt x="162" y="457" on="1"/>
        <pt x="162" y="376" on="0"/>
        <pt x="242" y="330" on="1"/>
        <pt x="254" y="484" on="1"/>
        <pt x="213" y="484" on="0"/>
      </contour>
    </TTGlyph>
    <TTGlyph name="dotaccent" xMin="62" yMin="536" xMax="196" yMax="670">
      <contour>
        <pt x="62" y="603" on="1"/>
        <pt x="93" y="646" on="0"/>
        <pt x="129" y="670" on="1"/>
        <pt x="168" y="641" on="0"/>
        <pt x="196" y="603" on="1"/>
        <pt x="167" y="561" on="0"/>
        <pt x="129" y="536" on="1"/>
        <pt x="90" y="561" on="0"/>
      </contour>
    </TTGlyph>
    <TTGlyph name="dotlessi" xMin="57" yMin="0" xMax="160" yMax="451">
      <contour>
        <pt x="58" y="0" on="1"/>
        <pt x="72" y="198" on="1"/>
        <pt x="72" y="338" on="1"/>
        <pt x="57" y="441" on="1"/>
        <pt x="160" y="451" on="1"/>
        <pt x="149" y="255" on="1"/>
        <pt x="149" y="197" on="1"/>
        <pt x="160" y="0" on="1"/>
      </contour>
    </TTGlyph>
    <TTGlyph name="e" xMin="50" yMin="-15" xMax="417" yMax="454">
      <contour>
        <pt x="164" y="-15" on="0"/>
        <pt x="50" y="105" on="0"/>
        <pt x="50" y="316" on="0"/>
        <pt x="166" y="454" on="0"/>
        <pt x="333" y="454" on="0"/>
        <pt x="417" y="372" on="0"/>
        <pt x="417" y="298" on="1"/>
        <pt x="417" y="271" on="0"/>
        <pt x="412" y="233" on="1"/>
        <pt x="142" y="224" on="1"/>
        <pt x="142" y="139" on="0"/>
        <pt x="201" y="46" on="0"/>
        <pt x="255" y="46" on="1"/>
        <pt x="326" y="46" on="0"/>
        <pt x="386" y="97" on="1"/>
        <pt x="413" y="23" on="1"/>
        <pt x="345" y="-15" on="0"/>
      </contour>
      <contour>
        <pt x="144" y="276" on="1"/>
        <pt x="326" y="284" on="1"/>
        <pt x="325" y="345" on="0"/>
        <pt x="287" y="393" on="0"/>
        <pt x="201" y="393" on="0"/>
        <pt x="177" y="384" on="1"/>
        <pt x="152" y="357" on="0"/>
      </contour>
    </TTGlyph>
    <TTGlyph name="eacute" xMin="50" yMin="-15" xMax="417" yMax="669">
      <contour>
        <pt x="164" y="-15" on="0"/>
        <pt x="50" y="105" on="0"/>
        <pt x="50" y="316" on="0"/>
        <pt x="166" y="454" on="0"/>
        <pt x="333" y="454" on="0"/>
        <pt x="417" y="372" on="0"/>
        <pt x="417" y="298" on="1"/>
        <pt x="417" y="271" on="0"/>
        <pt x="412" y="233" on="1"/>
        <pt x="142" y="224" on="1"/>
        <pt x="142" y="139" on="0"/>
        <pt x="201" y="46" on="0"/>
        <pt x="255" y="46" on="1"/>
        <pt x="326" y="46" on="0"/>
        <pt x="386" y="97" on="1"/>
        <pt x="413" y="23" on="1"/>
        <pt x="345" y="-15" on="0"/>
      </contour>
      <contour>
        <pt x="144" y="276" on="1"/>
        <pt x="326" y="284" on="1"/>
        <pt x="325" y="345" on="0"/>
        <pt x="287" y="393" on="0"/>
        <pt x="201" y="393" on="0"/>
        <pt x="177" y="384" on="1"/>
        <pt x="152" y="357" on="0"/>
      </contour>
      <contour>
        <pt x="207" y="502" on="1"/>
        <pt x="184" y="534" on="1"/>
        <pt x="323" y="669" on="1"/>
        <pt x="382" y="604" on="1"/>
      </contour>
    </TTGlyph>
    <TTGlyph name="ecircumflex" xMin="50" yMin="-15" xMax="417" yMax="664">
      <contour>
        <pt x="164" y="-15" on="0"/>
        <pt x="50" y="105" on="0"/>
        <pt x="50" y="316" on="0"/>
        <pt x="166" y="454" on="0"/>
        <pt x="333" y="454" on="0"/>
        <pt x="417" y="372" on="0"/>
        <pt x="417" y="298" on="1"/>
        <pt x="417" y="271" on="0"/>
        <pt x="412" y="233" on="1"/>
        <pt x="142" y="224" on="1"/>
        <pt x="142" y="139" on="0"/>
        <pt x="201" y="46" on="0"/>
        <pt x="255" y="46" on="1"/>
        <pt x="326" y="46" on="0"/>
        <pt x="386" y="97" on="1"/>
        <pt x="413" y="23" on="1"/>
        <pt x="345" y="-15" on="0"/>
      </contour>
      <contour>
        <pt x="144" y="276" on="1"/>
        <pt x="326" y="284" on="1"/>
        <pt x="325" y="345" on="0"/>
        <pt x="287" y="393" on="0"/>
        <pt x="201" y="393" on="0"/>
        <pt x="177" y="384" on="1"/>
        <pt x="152" y="357" on="0"/>
      </contour>
      <contour>
        <pt x="128" y="502" on="1"/>
        <pt x="105" y="534" on="1"/>
        <pt x="243" y="664" on="1"/>
        <pt x="381" y="534" on="1"/>
        <pt x="358" y="502" on="1"/>
        <pt x="243" y="578" on="1"/>
      </contour>
    </TTGlyph>
    <TTGlyph name="edieresis" xMin="50" yMin="-15" xMax="417" yMax="647">
      <contour>
        <pt x="164" y="-15" on="0"/>
        <pt x="50" y="105" on="0"/>
        <pt x="50" y="316" on="0"/>
        <pt x="166" y="454" on="0"/>
        <pt x="333" y="454" on="0"/>
        <pt x="417" y="372" on="0"/>
        <pt x="417" y="298" on="1"/>
        <pt x="417" y="271" on="0"/>
        <pt x="412" y="233" on="1"/>
        <pt x="142" y="224" on="1"/>
        <pt x="142" y="139" on="0"/>
        <pt x="201" y="46" on="0"/>
        <pt x="255" y="46" on="1"/>
        <pt x="326" y="46" on="0"/>
        <pt x="386" y="97" on="1"/>
        <pt x="413" y="23" on="1"/>
        <pt x="345" y="-15" on="0"/>
      </contour>
      <contour>
        <pt x="144" y="276" on="1"/>
        <pt x="326" y="284" on="1"/>
        <pt x="325" y="345" on="0"/>
        <pt x="287" y="393" on="0"/>
        <pt x="201" y="393" on="0"/>
        <pt x="177" y="384" on="1"/>
        <pt x="152" y="357" on="0"/>
      </contour>
      <contour>
        <pt x="284" y="586" on="1"/>
        <pt x="311" y="626" on="0"/>
        <pt x="342" y="647" on="1"/>
        <pt x="378" y="622" on="0"/>
        <pt x="403" y="586" on="1"/>
        <pt x="380" y="551" on="0"/>
        <pt x="342" y="525" on="1"/>
        <pt x="309" y="547" on="0"/>
      </contour>
      <contour>
        <pt x="103" y="586" on="1"/>
        <pt x="129" y="624" on="0"/>
        <pt x="164" y="647" on="1"/>
        <pt x="195" y="624" on="0"/>
        <pt x="222" y="586" on="1"/>
        <pt x="195" y="547" on="0"/>
        <pt x="164" y="525" on="1"/>
        <pt x="127" y="549" on="0"/>
      </contour>
    </TTGlyph>
    <TTGlyph name="egrave" xMin="50" yMin="-15" xMax="417" yMax="669">
      <contour>
        <pt x="164" y="-15" on="0"/>
        <pt x="50" y="105" on="0"/>
        <pt x="50" y="316" on="0"/>
        <pt x="166" y="454" on="0"/>
        <pt x="333" y="454" on="0"/>
        <pt x="417" y="372" on="0"/>
        <pt x="417" y="298" on="1"/>
        <pt x="417" y="271" on="0"/>
        <pt x="412" y="233" on="1"/>
        <pt x="142" y="224" on="1"/>
        <pt x="142" y="139" on="0"/>
        <pt x="201" y="46" on="0"/>
        <pt x="255" y="46" on="1"/>
        <pt x="326" y="46" on="0"/>
        <pt x="386" y="97" on="1"/>
        <pt x="413" y="23" on="1"/>
        <pt x="345" y="-15" on="0"/>
      </contour>
      <contour>
        <pt x="144" y="276" on="1"/>
        <pt x="326" y="284" on="1"/>
        <pt x="325" y="345" on="0"/>
        <pt x="287" y="393" on="0"/>
        <pt x="201" y="393" on="0"/>
        <pt x="177" y="384" on="1"/>
        <pt x="152" y="357" on="0"/>
      </contour>
      <contour>
        <pt x="332" y="534" on="1"/>
        <pt x="309" y="502" on="1"/>
        <pt x="135" y="605" on="1"/>
        <pt x="194" y="669" on="1"/>
      </contour>
    </TTGlyph>
    <TTGlyph name="eight" xMin="51" yMin="-17" xMax="464" yMax="657">
      <contour>
        <pt x="164" y="573" on="1"/>
        <pt x="153" y="537" on="0"/>
        <pt x="153" y="502" on="1"/>
        <pt x="153" y="430" on="0"/>
        <pt x="256" y="377" on="1"/>
        <pt x="311" y="408" on="0"/>
        <pt x="361" y="467" on="0"/>
        <pt x="361" y="542" on="0"/>
        <pt x="297" y="593" on="0"/>
        <pt x="196" y="593" on="0"/>
      </contour>
      <contour>
        <pt x="258" y="305" on="1"/>
        <pt x="138" y="250" on="0"/>
        <pt x="138" y="162" on="1"/>
        <pt x="138" y="115" on="0"/>
        <pt x="207" y="48" on="0"/>
        <pt x="315" y="48" on="0"/>
        <pt x="352" y="71" on="1"/>
        <pt x="374" y="115" on="0"/>
        <pt x="374" y="205" on="0"/>
        <pt x="321" y="271" on="0"/>
      </contour>
      <contour>
        <pt x="164" y="-17" on="0"/>
        <pt x="51" y="82" on="0"/>
        <pt x="51" y="215" on="0"/>
        <pt x="112" y="296" on="0"/>
        <pt x="191" y="341" on="1"/>
        <pt x="127" y="376" on="0"/>
        <pt x="72" y="452" on="0"/>
        <pt x="72" y="504" on="1"/>
        <pt x="72" y="571" on="0"/>
        <pt x="181" y="657" on="0"/>
        <pt x="338" y="657" on="0"/>
        <pt x="442" y="569" on="0"/>
        <pt x="442" y="508" on="1"/>
        <pt x="442" y="415" on="0"/>
        <pt x="327" y="342" on="1"/>
        <pt x="464" y="273" on="0"/>
        <pt x="464" y="166" on="1"/>
        <pt x="464" y="87" on="0"/>
        <pt x="342" y="-17" on="0"/>
      </contour>
    </TTGlyph>
    <TTGlyph name="ellipsis" xMin="40" yMin="-16" xMax="641" yMax="124">
      <contour>
        <pt x="40" y="54" on="1"/>
        <pt x="69" y="95" on="0"/>
        <pt x="110" y="124" on="1"/>
        <pt x="153" y="94" on="0"/>
        <pt x="180" y="54" on="1"/>
        <pt x="151" y="11" on="0"/>
        <pt x="110" y="-16" on="1"/>
        <pt x="69" y="11" on="0"/>
      </contour>
      <contour>
        <pt x="270" y="54" on="1"/>
        <pt x="299" y="95" on="0"/>
        <pt x="340" y="124" on="1"/>
        <pt x="383" y="94" on="0"/>
        <pt x="410" y="54" on="1"/>
        <pt x="381" y="11" on="0"/>
        <pt x="340" y="-16" on="1"/>
        <pt x="299" y="11" on="0"/>
      </contour>
      <contour>
        <pt x="501" y="54" on="1"/>
        <pt x="530" y="95" on="0"/>
        <pt x="571" y="124" on="1"/>
        <pt x="614" y="94" on="0"/>
        <pt x="641" y="54" on="1"/>
        <pt x="612" y="11" on="0"/>
        <pt x="571" y="-16" on="1"/>
        <pt x="530" y="11" on="0"/>
      </contour>
    </TTGlyph>
    <TTGlyph name="emdash" xMin="20" yMin="207" xMax="630" yMax="276">
      <contour>
        <pt x="20" y="207" on="1"/>
        <pt x="24" y="276" on="1"/>
        <pt x="630" y="276" on="1"/>
        <pt x="626" y="207" on="1"/>
      </contour>
    </TTGlyph>
    <TTGlyph name="endash" xMin="40" yMin="207" xMax="398" yMax="276">
      <contour>
        <pt x="40" y="207" on="1"/>
        <pt x="44" y="276" on="1"/>
        <pt x="398" y="276" on="1"/>
        <pt x="394" y="207" on="1"/>
      </contour>
    </TTGlyph>
    <TTGlyph name="equal" xMin="81" yMin="101" xMax="435" yMax="360">
      <contour>
        <pt x="81" y="101" on="1"/>
        <pt x="81" y="170" on="1"/>
        <pt x="435" y="170" on="1"/>
        <pt x="435" y="101" on="1"/>
      </contour>
      <contour>
        <pt x="81" y="291" on="1"/>
        <pt x="81" y="360" on="1"/>
        <pt x="435" y="360" on="1"/>
        <pt x="435" y="291" on="1"/>
      </contour>
    </TTGlyph>
    <TTGlyph name="eth" xMin="50" yMin="-15" xMax="450" yMax="677">
      <contour>
        <pt x="261" y="46" on="1"/>
        <pt x="291" y="46" on="0"/>
        <pt x="325" y="56" on="1"/>
        <pt x="358" y="103" on="0"/>
        <pt x="358" y="306" on="0"/>
        <pt x="299" y="393" on="0"/>
        <pt x="237" y="393" on="1"/>
        <pt x="214" y="393" on="0"/>
        <pt x="175" y="383" on="1"/>
        <pt x="142" y="337" on="0"/>
        <pt x="142" y="133" on="0"/>
        <pt x="199" y="46" on="0"/>
      </contour>
      <contour>
        <pt x="379" y="536" on="0"/>
        <pt x="450" y="352" on="0"/>
        <pt x="450" y="120" on="0"/>
        <pt x="341" y="-15" on="0"/>
        <pt x="153" y="-15" on="0"/>
        <pt x="50" y="103" on="0"/>
        <pt x="50" y="316" on="0"/>
        <pt x="153" y="454" on="0"/>
        <pt x="296" y="454" on="0"/>
        <pt x="353" y="409" on="1"/>
        <pt x="331" y="465" on="0"/>
        <pt x="288" y="528" on="0"/>
        <pt x="258" y="551" on="1"/>
        <pt x="167" y="495" on="1"/>
        <pt x="146" y="533" on="1"/>
        <pt x="214" y="583" on="1"/>
        <pt x="178" y="603" on="0"/>
        <pt x="115" y="623" on="1"/>
        <pt x="128" y="666" on="1"/>
        <pt x="204" y="653" on="0"/>
        <pt x="266" y="620" on="1"/>
        <pt x="360" y="677" on="1"/>
        <pt x="381" y="639" on="1"/>
        <pt x="313" y="589" on="1"/>
      </contour>
    </TTGlyph>
    <TTGlyph name="exclam" xMin="60" yMin="-16" xMax="200" yMax="631">
      <contour>
        <pt x="98" y="167" on="1"/>
        <pt x="77" y="623" on="1"/>
        <pt x="185" y="631" on="1"/>
        <pt x="167" y="174" on="1"/>
      </contour>
      <contour>
        <pt x="60" y="54" on="1"/>
        <pt x="89" y="95" on="0"/>
        <pt x="130" y="124" on="1"/>
        <pt x="173" y="94" on="0"/>
        <pt x="200" y="54" on="1"/>
        <pt x="171" y="11" on="0"/>
        <pt x="130" y="-16" on="1"/>
        <pt x="89" y="11" on="0"/>
      </contour>
    </TTGlyph>
    <TTGlyph name="exclamdown" xMin="60" yMin="-193" xMax="200" yMax="454">
      <contour>
        <pt x="162" y="271" on="1"/>
        <pt x="183" y="-185" on="1"/>
        <pt x="75" y="-193" on="1"/>
        <pt x="93" y="264" on="1"/>
      </contour>
      <contour>
        <pt x="200" y="384" on="1"/>
        <pt x="171" y="343" on="0"/>
        <pt x="130" y="314" on="1"/>
        <pt x="87" y="344" on="0"/>
        <pt x="60" y="384" on="1"/>
        <pt x="89" y="427" on="0"/>
        <pt x="130" y="454" on="1"/>
        <pt x="171" y="427" on="0"/>
      </contour>
    </TTGlyph>
    <TTGlyph name="f" xMin="10" yMin="0" xMax="372" yMax="688">
      <contour>
        <pt x="13" y="371" on="1"/>
        <pt x="10" y="410" on="1"/>
        <pt x="102" y="439" on="1"/>
        <pt x="102" y="457" on="1"/>
        <pt x="102" y="564" on="0"/>
        <pt x="202" y="688" on="0"/>
        <pt x="288" y="688" on="1"/>
        <pt x="332" y="688" on="0"/>
        <pt x="372" y="673" on="1"/>
        <pt x="348" y="595" on="1"/>
        <pt x="262" y="628" on="1"/>
        <pt x="219" y="620" on="0"/>
        <pt x="184" y="551" on="0"/>
        <pt x="184" y="474" on="1"/>
        <pt x="184" y="439" on="1"/>
        <pt x="308" y="439" on="1"/>
        <pt x="305" y="386" on="1"/>
        <pt x="184" y="377" on="1"/>
        <pt x="184" y="197" on="1"/>
        <pt x="195" y="0" on="1"/>
        <pt x="88" y="0" on="1"/>
        <pt x="102" y="198" on="1"/>
        <pt x="102" y="371" on="1"/>
      </contour>
    </TTGlyph>
    <TTGlyph name="fi" xMin="10" yMin="0" xMax="460" yMax="688">
      <contour>
        <pt x="13" y="371" on="1"/>
        <pt x="10" y="410" on="1"/>
        <pt x="102" y="439" on="1"/>
        <pt x="102" y="457" on="1"/>
        <pt x="102" y="564" on="0"/>
        <pt x="213" y="688" on="0"/>
        <pt x="394" y="688" on="0"/>
        <pt x="451" y="642" on="1"/>
        <pt x="409" y="562" on="1"/>
        <pt x="298" y="628" on="1"/>
        <pt x="234" y="626" on="0"/>
        <pt x="184" y="558" on="0"/>
        <pt x="184" y="474" on="1"/>
        <pt x="184" y="439" on="1"/>
        <pt x="357" y="439" on="1"/>
        <pt x="460" y="451" on="1"/>
        <pt x="449" y="255" on="1"/>
        <pt x="449" y="197" on="1"/>
        <pt x="460" y="0" on="1"/>
        <pt x="358" y="0" on="1"/>
        <pt x="372" y="198" on="1"/>
        <pt x="372" y="386" on="1"/>
        <pt x="184" y="375" on="1"/>
        <pt x="184" y="197" on="1"/>
        <pt x="195" y="0" on="1"/>
        <pt x="88" y="0" on="1"/>
        <pt x="102" y="198" on="1"/>
        <pt x="102" y="371" on="1"/>
      </contour>
    </TTGlyph>
    <TTGlyph name="five" xMin="76" yMin="-116" xMax="425" yMax="558">
      <contour>
        <pt x="103" y="256" on="1"/>
        <pt x="114" y="542" on="1"/>
        <pt x="278" y="542" on="1"/>
        <pt x="399" y="558" on="1"/>
        <pt x="391" y="475" on="1"/>
        <pt x="179" y="475" on="1"/>
        <pt x="173" y="311" on="1"/>
        <pt x="189" y="311" on="1"/>
        <pt x="300" y="311" on="0"/>
        <pt x="425" y="216" on="0"/>
        <pt x="425" y="131" on="1"/>
        <pt x="425" y="21" on="0"/>
        <pt x="240" y="-111" on="0"/>
        <pt x="80" y="-116" on="1"/>
        <pt x="76" y="-57" on="1"/>
        <pt x="201" y="-48" on="0"/>
        <pt x="333" y="44" on="0"/>
        <pt x="333" y="193" on="0"/>
        <pt x="253" y="259" on="0"/>
        <pt x="169" y="259" on="1"/>
        <pt x="136" y="259" on="0"/>
      </contour>
    </TTGlyph>
    <TTGlyph name="fl" xMin="10" yMin="0" xMax="465" yMax="688">
      <contour>
        <pt x="358" y="0" on="1"/>
        <pt x="372" y="198" on="1"/>
        <pt x="372" y="614" on="1"/>
        <pt x="277" y="628" on="1"/>
        <pt x="224" y="615" on="0"/>
        <pt x="184" y="549" on="0"/>
        <pt x="184" y="474" on="1"/>
        <pt x="184" y="439" on="1"/>
        <pt x="308" y="439" on="1"/>
        <pt x="305" y="386" on="1"/>
        <pt x="184" y="377" on="1"/>
        <pt x="184" y="197" on="1"/>
        <pt x="195" y="0" on="1"/>
        <pt x="88" y="0" on="1"/>
        <pt x="102" y="198" on="1"/>
        <pt x="102" y="371" on="1"/>
        <pt x="13" y="371" on="1"/>
        <pt x="10" y="410" on="1"/>
        <pt x="102" y="439" on="1"/>
        <pt x="102" y="457" on="1"/>
        <pt x="102" y="564" on="0"/>
        <pt x="213" y="688" on="0"/>
        <pt x="308" y="688" on="1"/>
        <pt x="351" y="688" on="0"/>
        <pt x="394" y="673" on="1"/>
        <pt x="465" y="680" on="1"/>
        <pt x="454" y="484" on="1"/>
        <pt x="454" y="197" on="1"/>
        <pt x="465" y="0" on="1"/>
      </contour>
    </TTGlyph>
    <TTGlyph name="florin" xMin="-12" yMin="-216" xMax="486" yMax="547">
      <contour>
        <pt x="116" y="245" on="1"/>
        <pt x="114" y="283" on="1"/>
        <pt x="202" y="310" on="1"/>
        <pt x="202" y="422" on="0"/>
        <pt x="309" y="547" on="0"/>
        <pt x="397" y="547" on="1"/>
        <pt x="441" y="547" on="0"/>
        <pt x="486" y="533" on="1"/>
        <pt x="460" y="459" on="1"/>
        <pt x="370" y="490" on="1"/>
        <pt x="321" y="485" on="0"/>
        <pt x="280" y="406" on="0"/>
        <pt x="280" y="310" on="1"/>
        <pt x="397" y="310" on="1"/>
        <pt x="394" y="260" on="1"/>
        <pt x="278" y="251" on="1"/>
        <pt x="269" y="4" on="1"/>
        <pt x="265" y="-98" on="0"/>
        <pt x="160" y="-216" on="0"/>
        <pt x="74" y="-216" on="1"/>
        <pt x="32" y="-216" on="0"/>
        <pt x="-12" y="-202" on="1"/>
        <pt x="14" y="-128" on="1"/>
        <pt x="101" y="-159" on="1"/>
        <pt x="148" y="-152" on="0"/>
        <pt x="189" y="-86" on="0"/>
        <pt x="191" y="-12" on="1"/>
        <pt x="200" y="245" on="1"/>
      </contour>
    </TTGlyph>
    <TTGlyph name="four" xMin="32" yMin="-119" xMax="484" yMax="547">
      <contour>
        <pt x="39" y="93" on="1"/>
        <pt x="32" y="139" on="1"/>
        <pt x="340" y="547" on="1"/>
        <pt x="379" y="547" on="1"/>
        <pt x="379" y="157" on="1"/>
        <pt x="484" y="171" on="1"/>
        <pt x="477" y="93" on="1"/>
        <pt x="379" y="93" on="1"/>
        <pt x="379" y="-107" on="1"/>
        <pt x="283" y="-119" on="1"/>
        <pt x="299" y="60" on="1"/>
        <pt x="299" y="93" on="1"/>
      </contour>
      <contour>
        <pt x="115" y="155" on="1"/>
        <pt x="299" y="155" on="1"/>
        <pt x="299" y="401" on="1"/>
      </contour>
    </TTGlyph>
    <TTGlyph name="fraction" xMin="-60" yMin="-35" xMax="285" yMax="641">
      <contour>
        <pt x="7" y="-35" on="1"/>
        <pt x="-60" y="-15" on="1"/>
        <pt x="218" y="641" on="1"/>
        <pt x="285" y="621" on="1"/>
      </contour>
    </TTGlyph>
    <TTGlyph name="g" xMin="45" yMin="-219" xMax="470" yMax="455">
      <contour>
        <pt x="78" y="80" on="1"/>
        <pt x="78" y="97" on="0"/>
        <pt x="96" y="128" on="0"/>
        <pt x="127" y="166" on="1"/>
        <pt x="59" y="203" on="0"/>
        <pt x="59" y="293" on="1"/>
        <pt x="59" y="368" on="0"/>
        <pt x="156" y="454" on="0"/>
        <pt x="303" y="454" on="0"/>
        <pt x="341" y="431" on="1"/>
        <pt x="470" y="455" on="1"/>
        <pt x="460" y="381" on="1"/>
        <pt x="389" y="385" on="1"/>
        <pt x="408" y="351" on="0"/>
        <pt x="408" y="306" on="1"/>
        <pt x="408" y="231" on="0"/>
        <pt x="311" y="145" on="0"/>
        <pt x="226" y="145" on="1"/>
        <pt x="195" y="145" on="0"/>
        <pt x="168" y="151" on="1"/>
        <pt x="142" y="97" on="1"/>
        <pt x="161" y="83" on="0"/>
        <pt x="214" y="70" on="0"/>
        <pt x="281" y="63" on="1"/>
        <pt x="358" y="54" on="1"/>
        <pt x="450" y="42" on="0"/>
        <pt x="450" y="-44" on="1"/>
        <pt x="450" y="-121" on="0"/>
        <pt x="319" y="-219" on="0"/>
        <pt x="215" y="-219" on="1"/>
        <pt x="136" y="-219" on="0"/>
        <pt x="45" y="-157" on="0"/>
        <pt x="45" y="-103" on="1"/>
        <pt x="45" y="-32" on="0"/>
        <pt x="124" y="16" on="1"/>
        <pt x="78" y="40" on="0"/>
      </contour>
      <contour>
        <pt x="126" y="-80" on="1"/>
        <pt x="126" y="-163" on="0"/>
        <pt x="371" y="-163" on="0"/>
        <pt x="371" y="-76" on="1"/>
        <pt x="371" y="-52" on="0"/>
        <pt x="365" y="-35" on="1"/>
        <pt x="159" y="2" on="1"/>
        <pt x="126" y="-29" on="0"/>
      </contour>
      <contour>
        <pt x="146" y="301" on="1"/>
        <pt x="146" y="201" on="0"/>
        <pt x="323" y="201" on="0"/>
        <pt x="323" y="301" on="1"/>
        <pt x="323" y="352" on="0"/>
        <pt x="278" y="398" on="0"/>
        <pt x="196" y="398" on="0"/>
        <pt x="167" y="389" on="1"/>
        <pt x="146" y="364" on="0"/>
      </contour>
    </TTGlyph>
    <TTGlyph name="germandbls" xMin="65" yMin="-15" xMax="509" yMax="647">
      <contour>
        <pt x="65" y="0" on="1"/>
        <pt x="79" y="198" on="1"/>
        <pt x="79" y="416" on="1"/>
        <pt x="79" y="523" on="0"/>
        <pt x="173" y="647" on="0"/>
        <pt x="322" y="647" on="0"/>
        <pt x="394" y="592" on="0"/>
        <pt x="394" y="549" on="1"/>
        <pt x="394" y="518" on="0"/>
        <pt x="377" y="484" on="0"/>
        <pt x="369" y="467" on="0"/>
        <pt x="347" y="441" on="0"/>
        <pt x="344" y="436" on="1"/>
        <pt x="333" y="423" on="0"/>
        <pt x="311" y="401" on="1"/>
        <pt x="311" y="347" on="0"/>
        <pt x="381" y="301" on="1"/>
        <pt x="410" y="282" on="0"/>
        <pt x="468" y="241" on="0"/>
        <pt x="509" y="173" on="0"/>
        <pt x="509" y="129" on="1"/>
        <pt x="509" y="68" on="0"/>
        <pt x="411" y="-15" on="0"/>
        <pt x="280" y="-15" on="0"/>
        <pt x="224" y="9" on="1"/>
        <pt x="251" y="96" on="1"/>
        <pt x="315" y="46" on="0"/>
        <pt x="401" y="46" on="0"/>
        <pt x="431" y="69" on="1"/>
        <pt x="433" y="75" on="0"/>
        <pt x="433" y="126" on="0"/>
        <pt x="394" y="177" on="0"/>
        <pt x="338" y="213" on="0"/>
        <pt x="282" y="253" on="0"/>
        <pt x="243" y="321" on="0"/>
        <pt x="243" y="400" on="0"/>
        <pt x="314" y="512" on="0"/>
        <pt x="314" y="534" on="1"/>
        <pt x="314" y="587" on="0"/>
        <pt x="240" y="587" on="1"/>
        <pt x="197" y="587" on="0"/>
        <pt x="162" y="519" on="0"/>
        <pt x="162" y="433" on="1"/>
        <pt x="162" y="0" on="1"/>
      </contour>
    </TTGlyph>
    <TTGlyph name="grave" xMin="111" yMin="502" xMax="308" yMax="669">
      <contour>
        <pt x="308" y="534" on="1"/>
        <pt x="285" y="502" on="1"/>
        <pt x="111" y="605" on="1"/>
        <pt x="170" y="669" on="1"/>
      </contour>
    </TTGlyph>
    <TTGlyph name="greater" xMin="67" yMin="47" xMax="425" yMax="414">
      <contour>
        <pt x="67" y="112" on="1"/>
        <pt x="349" y="230" on="1"/>
        <pt x="67" y="349" on="1"/>
        <pt x="76" y="414" on="1"/>
        <pt x="425" y="259" on="1"/>
        <pt x="425" y="202" on="1"/>
        <pt x="76" y="47" on="1"/>
      </contour>
    </TTGlyph>
    <TTGlyph name="greaterequal" xMin="79" yMin="0" xMax="437" yMax="454">
      <contour>
        <pt x="79" y="152" on="1"/>
        <pt x="361" y="270" on="1"/>
        <pt x="79" y="389" on="1"/>
        <pt x="88" y="454" on="1"/>
        <pt x="437" y="299" on="1"/>
        <pt x="437" y="242" on="1"/>
        <pt x="88" y="87" on="1"/>
      </contour>
      <contour>
        <pt x="79" y="0" on="1"/>
        <pt x="83" y="69" on="1"/>
        <pt x="437" y="69" on="1"/>
        <pt x="433" y="0" on="1"/>
      </contour>
    </TTGlyph>
    <TTGlyph name="guillemotleft" xMin="30" yMin="15" xMax="465" yMax="423">
      <contour>
        <pt x="258" y="45" on="1"/>
        <pt x="223" y="15" on="1"/>
        <pt x="30" y="206" on="1"/>
        <pt x="33" y="235" on="1"/>
        <pt x="223" y="423" on="1"/>
        <pt x="258" y="393" on="1"/>
        <pt x="129" y="219" on="1"/>
      </contour>
      <contour>
        <pt x="465" y="45" on="1"/>
        <pt x="430" y="15" on="1"/>
        <pt x="237" y="206" on="1"/>
        <pt x="240" y="235" on="1"/>
        <pt x="430" y="423" on="1"/>
        <pt x="465" y="393" on="1"/>
        <pt x="336" y="219" on="1"/>
      </contour>
    </TTGlyph>
    <TTGlyph name="guillemotright" xMin="35" yMin="15" xMax="470" yMax="423">
      <contour>
        <pt x="35" y="393" on="1"/>
        <pt x="70" y="423" on="1"/>
        <pt x="263" y="232" on="1"/>
        <pt x="260" y="203" on="1"/>
        <pt x="70" y="15" on="1"/>
        <pt x="35" y="45" on="1"/>
        <pt x="164" y="219" on="1"/>
      </contour>
      <contour>
        <pt x="242" y="393" on="1"/>
        <pt x="277" y="423" on="1"/>
        <pt x="470" y="232" on="1"/>
        <pt x="467" y="203" on="1"/>
        <pt x="277" y="15" on="1"/>
        <pt x="242" y="45" on="1"/>
        <pt x="371" y="219" on="1"/>
      </contour>
    </TTGlyph>
    <TTGlyph name="guilsinglleft" xMin="30" yMin="15" xMax="258" yMax="423">
      <contour>
        <pt x="258" y="45" on="1"/>
        <pt x="223" y="15" on="1"/>
        <pt x="30" y="206" on="1"/>
        <pt x="33" y="235" on="1"/>
        <pt x="223" y="423" on="1"/>
        <pt x="258" y="393" on="1"/>
        <pt x="129" y="219" on="1"/>
      </contour>
    </TTGlyph>
    <TTGlyph name="guilsinglright" xMin="35" yMin="15" xMax="263" yMax="423">
      <contour>
        <pt x="35" y="393" on="1"/>
        <pt x="70" y="423" on="1"/>
        <pt x="263" y="232" on="1"/>
        <pt x="260" y="203" on="1"/>
        <pt x="70" y="15" on="1"/>
        <pt x="35" y="45" on="1"/>
        <pt x="164" y="219" on="1"/>
      </contour>
    </TTGlyph>
    <TTGlyph name="h" xMin="65" yMin="-5" xMax="430" yMax="680">
      <contour>
        <pt x="66" y="0" on="1"/>
        <pt x="80" y="198" on="1"/>
        <pt x="80" y="567" on="1"/>
        <pt x="65" y="670" on="1"/>
        <pt x="173" y="680" on="1"/>
        <pt x="162" y="484" on="1"/>
        <pt x="162" y="401" on="1"/>
        <pt x="243" y="454" on="0"/>
        <pt x="325" y="454" on="1"/>
        <pt x="430" y="454" on="0"/>
        <pt x="430" y="316" on="1"/>
        <pt x="430" y="0" on="1"/>
        <pt x="332" y="-5" on="1"/>
        <pt x="346" y="210" on="1"/>
        <pt x="346" y="317" on="1"/>
        <pt x="346" y="354" on="0"/>
        <pt x="322" y="385" on="0"/>
        <pt x="294" y="385" on="1"/>
        <pt x="233" y="385" on="0"/>
        <pt x="162" y="348" on="1"/>
        <pt x="162" y="197" on="1"/>
        <pt x="173" y="0" on="1"/>
      </contour>
    </TTGlyph>
    <TTGlyph name="hungarumlaut" xMin="39" yMin="502" xMax="391" yMax="674">
      <contour>
        <pt x="229" y="502" on="1"/>
        <pt x="202" y="535" on="1"/>
        <pt x="337" y="673" on="1"/>
        <pt x="391" y="622" on="1"/>
      </contour>
      <contour>
        <pt x="66" y="503" on="1"/>
        <pt x="39" y="535" on="1"/>
        <pt x="173" y="674" on="1"/>
        <pt x="227" y="622" on="1"/>
      </contour>
    </TTGlyph>
    <TTGlyph name="hyphen" xMin="40" yMin="205" xMax="276" yMax="287">
      <contour>
        <pt x="40" y="205" on="1"/>
        <pt x="40" y="275" on="1"/>
        <pt x="276" y="287" on="1"/>
        <pt x="276" y="217" on="1"/>
      </contour>
    </TTGlyph>
    <TTGlyph name="i" xMin="44" yMin="0" xMax="178" yMax="670">
      <contour>
        <pt x="58" y="0" on="1"/>
        <pt x="72" y="198" on="1"/>
        <pt x="72" y="338" on="1"/>
        <pt x="57" y="441" on="1"/>
        <pt x="160" y="451" on="1"/>
        <pt x="149" y="255" on="1"/>
        <pt x="149" y="197" on="1"/>
        <pt x="160" y="0" on="1"/>
      </contour>
      <contour>
        <pt x="44" y="603" on="1"/>
        <pt x="75" y="646" on="0"/>
        <pt x="111" y="670" on="1"/>
        <pt x="150" y="641" on="0"/>
        <pt x="178" y="603" on="1"/>
        <pt x="149" y="561" on="0"/>
        <pt x="111" y="536" on="1"/>
        <pt x="72" y="561" on="0"/>
      </contour>
    </TTGlyph>
    <TTGlyph name="iacute" xMin="28" yMin="0" xMax="226" yMax="669">
      <contour>
        <pt x="58" y="0" on="1"/>
        <pt x="72" y="198" on="1"/>
        <pt x="72" y="338" on="1"/>
        <pt x="57" y="441" on="1"/>
        <pt x="160" y="451" on="1"/>
        <pt x="149" y="255" on="1"/>
        <pt x="149" y="197" on="1"/>
        <pt x="160" y="0" on="1"/>
      </contour>
      <contour>
        <pt x="51" y="502" on="1"/>
        <pt x="28" y="534" on="1"/>
        <pt x="167" y="669" on="1"/>
        <pt x="226" y="604" on="1"/>
      </contour>
    </TTGlyph>
    <TTGlyph name="icircumflex" xMin="-27" yMin="0" xMax="249" yMax="664">
      <contour>
        <pt x="58" y="0" on="1"/>
        <pt x="72" y="198" on="1"/>
        <pt x="72" y="338" on="1"/>
        <pt x="57" y="441" on="1"/>
        <pt x="160" y="451" on="1"/>
        <pt x="149" y="255" on="1"/>
        <pt x="149" y="197" on="1"/>
        <pt x="160" y="0" on="1"/>
      </contour>
      <contour>
        <pt x="-4" y="502" on="1"/>
        <pt x="-27" y="534" on="1"/>
        <pt x="111" y="664" on="1"/>
        <pt x="249" y="534" on="1"/>
        <pt x="226" y="502" on="1"/>
        <pt x="111" y="578" on="1"/>
      </contour>
    </TTGlyph>
    <TTGlyph name="idieresis" xMin="-39" yMin="0" xMax="261" yMax="647">
      <contour>
        <pt x="58" y="0" on="1"/>
        <pt x="72" y="198" on="1"/>
        <pt x="72" y="338" on="1"/>
        <pt x="57" y="441" on="1"/>
        <pt x="160" y="451" on="1"/>
        <pt x="149" y="255" on="1"/>
        <pt x="149" y="197" on="1"/>
        <pt x="160" y="0" on="1"/>
      </contour>
      <contour>
        <pt x="142" y="586" on="1"/>
        <pt x="169" y="626" on="0"/>
        <pt x="200" y="647" on="1"/>
        <pt x="236" y="622" on="0"/>
        <pt x="261" y="586" on="1"/>
        <pt x="238" y="551" on="0"/>
        <pt x="200" y="525" on="1"/>
        <pt x="167" y="547" on="0"/>
      </contour>
      <contour>
        <pt x="-39" y="586" on="1"/>
        <pt x="-13" y="624" on="0"/>
        <pt x="22" y="647" on="1"/>
        <pt x="53" y="624" on="0"/>
        <pt x="80" y="586" on="1"/>
        <pt x="53" y="547" on="0"/>
        <pt x="22" y="525" on="1"/>
        <pt x="-15" y="549" on="0"/>
      </contour>
    </TTGlyph>
    <TTGlyph name="igrave" xMin="-15" yMin="0" xMax="182" yMax="669">
      <contour>
        <pt x="58" y="0" on="1"/>
        <pt x="72" y="198" on="1"/>
        <pt x="72" y="338" on="1"/>
        <pt x="57" y="441" on="1"/>
        <pt x="160" y="451" on="1"/>
        <pt x="149" y="255" on="1"/>
        <pt x="149" y="197" on="1"/>
        <pt x="160" y="0" on="1"/>
      </contour>
      <contour>
        <pt x="182" y="534" on="1"/>
        <pt x="159" y="502" on="1"/>
        <pt x="-15" y="605" on="1"/>
        <pt x="44" y="669" on="1"/>
      </contour>
    </TTGlyph>
    <TTGlyph name="infinity" xMin="60" yMin="42" xMax="711" yMax="395">
      <contour>
        <pt x="626" y="300" on="1"/>
        <pt x="585" y="319" on="0"/>
        <pt x="513" y="319" on="0"/>
        <pt x="454" y="272" on="0"/>
        <pt x="423" y="217" on="1"/>
        <pt x="452" y="163" on="0"/>
        <pt x="508" y="116" on="0"/>
        <pt x="588" y="116" on="0"/>
        <pt x="645" y="175" on="0"/>
        <pt x="645" y="269" on="0"/>
      </contour>
      <contour>
        <pt x="145" y="137" on="1"/>
        <pt x="186" y="118" on="0"/>
        <pt x="258" y="118" on="0"/>
        <pt x="316" y="164" on="0"/>
        <pt x="348" y="218" on="1"/>
        <pt x="315" y="275" on="0"/>
        <pt x="262" y="321" on="0"/>
        <pt x="183" y="321" on="0"/>
        <pt x="126" y="262" on="0"/>
        <pt x="126" y="168" on="0"/>
      </contour>
      <contour>
        <pt x="221" y="395" on="1"/>
        <pt x="272" y="395" on="0"/>
        <pt x="350" y="342" on="0"/>
        <pt x="386" y="283" on="1"/>
        <pt x="422" y="341" on="0"/>
        <pt x="500" y="393" on="0"/>
        <pt x="550" y="393" on="1"/>
        <pt x="620" y="393" on="0"/>
        <pt x="711" y="295" on="0"/>
        <pt x="711" y="142" on="0"/>
        <pt x="622" y="42" on="0"/>
        <pt x="553" y="42" on="1"/>
        <pt x="453" y="42" on="0"/>
        <pt x="385" y="152" on="1"/>
        <pt x="319" y="44" on="0"/>
        <pt x="221" y="44" on="1"/>
        <pt x="150" y="44" on="0"/>
        <pt x="60" y="142" on="0"/>
        <pt x="60" y="297" on="0"/>
        <pt x="149" y="395" on="0"/>
      </contour>
    </TTGlyph>
    <TTGlyph name="integral" xMin="20" yMin="-128" xMax="327" yMax="656">
      <contour>
        <pt x="132" y="279" on="1"/>
        <pt x="132" y="359" on="1"/>
        <pt x="132" y="466" on="0"/>
        <pt x="204" y="598" on="0"/>
        <pt x="295" y="656" on="1"/>
        <pt x="327" y="571" on="1"/>
        <pt x="259" y="541" on="0"/>
        <pt x="220" y="497" on="1"/>
        <pt x="215" y="379" on="0"/>
        <pt x="215" y="310" on="1"/>
        <pt x="215" y="169" on="1"/>
        <pt x="215" y="62" on="0"/>
        <pt x="142" y="-70" on="0"/>
        <pt x="52" y="-128" on="1"/>
        <pt x="20" y="-43" on="1"/>
        <pt x="86" y="-14" on="0"/>
        <pt x="127" y="31" on="1"/>
        <pt x="132" y="149" on="0"/>
      </contour>
    </TTGlyph>
    <TTGlyph name="j" xMin="-40" yMin="-219" xMax="194" yMax="670">
      <contour>
        <pt x="74" y="-56" on="1"/>
        <pt x="89" y="48" on="0"/>
        <pt x="89" y="198" on="1"/>
        <pt x="89" y="338" on="1"/>
        <pt x="74" y="441" on="1"/>
        <pt x="177" y="451" on="1"/>
        <pt x="166" y="255" on="1"/>
        <pt x="166" y="85" on="1"/>
        <pt x="166" y="-24" on="0"/>
        <pt x="89" y="-159" on="0"/>
        <pt x="-7" y="-219" on="1"/>
        <pt x="-40" y="-132" on="1"/>
        <pt x="33" y="-100" on="0"/>
      </contour>
      <contour>
        <pt x="60" y="603" on="1"/>
        <pt x="87" y="643" on="0"/>
        <pt x="127" y="670" on="1"/>
        <pt x="168" y="642" on="0"/>
        <pt x="194" y="603" on="1"/>
        <pt x="169" y="565" on="0"/>
        <pt x="127" y="536" on="1"/>
        <pt x="89" y="561" on="0"/>
      </contour>
    </TTGlyph>
    <TTGlyph name="k" xMin="65" yMin="-3" xMax="466" yMax="680">
      <contour>
        <pt x="66" y="0" on="1"/>
        <pt x="80" y="198" on="1"/>
        <pt x="80" y="567" on="1"/>
        <pt x="65" y="670" on="1"/>
        <pt x="173" y="680" on="1"/>
        <pt x="162" y="484" on="1"/>
        <pt x="162" y="197" on="1"/>
        <pt x="173" y="0" on="1"/>
      </contour>
      <contour>
        <pt x="180" y="246" on="1"/>
        <pt x="180" y="253" on="1"/>
        <pt x="279" y="360" on="1"/>
        <pt x="322" y="439" on="1"/>
        <pt x="427" y="439" on="1"/>
        <pt x="427" y="431" on="1"/>
        <pt x="270" y="257" on="1"/>
        <pt x="383" y="98" on="1"/>
        <pt x="466" y="12" on="1"/>
        <pt x="466" y="2" on="1"/>
        <pt x="338" y="-3" on="1"/>
        <pt x="295" y="82" on="1"/>
      </contour>
    </TTGlyph>
    <TTGlyph name="l" xMin="65" yMin="0" xMax="173" yMax="680">
      <contour>
        <pt x="66" y="0" on="1"/>
        <pt x="80" y="198" on="1"/>
        <pt x="80" y="567" on="1"/>
        <pt x="65" y="670" on="1"/>
        <pt x="173" y="680" on="1"/>
        <pt x="162" y="484" on="1"/>
        <pt x="162" y="197" on="1"/>
        <pt x="173" y="0" on="1"/>
      </contour>
    </TTGlyph>
    <TTGlyph name="less" xMin="79" yMin="47" xMax="437" yMax="414">
      <contour>
        <pt x="155" y="230" on="1"/>
        <pt x="437" y="112" on="1"/>
        <pt x="428" y="47" on="1"/>
        <pt x="79" y="202" on="1"/>
        <pt x="79" y="259" on="1"/>
        <pt x="428" y="414" on="1"/>
        <pt x="437" y="349" on="1"/>
      </contour>
    </TTGlyph>
    <TTGlyph name="lessequal" xMin="79" yMin="0" xMax="437" yMax="454">
      <contour>
        <pt x="155" y="270" on="1"/>
        <pt x="437" y="152" on="1"/>
        <pt x="428" y="87" on="1"/>
        <pt x="79" y="242" on="1"/>
        <pt x="79" y="299" on="1"/>
        <pt x="428" y="454" on="1"/>
        <pt x="437" y="389" on="1"/>
      </contour>
      <contour>
        <pt x="79" y="0" on="1"/>
        <pt x="83" y="69" on="1"/>
        <pt x="437" y="69" on="1"/>
        <pt x="433" y="0" on="1"/>
      </contour>
    </TTGlyph>
    <TTGlyph name="logicalnot" xMin="81" yMin="93" xMax="435" yMax="265">
      <contour>
        <pt x="81" y="196" on="1"/>
        <pt x="81" y="265" on="1"/>
        <pt x="435" y="265" on="1"/>
        <pt x="435" y="93" on="1"/>
        <pt x="366" y="93" on="1"/>
        <pt x="366" y="196" on="1"/>
      </contour>
    </TTGlyph>
    <TTGlyph name="lozenge" xMin="30" yMin="-74" xMax="474" yMax="622">
      <contour>
        <pt x="474" y="275" on="1"/>
        <pt x="287" y="-71" on="1"/>
        <pt x="218" y="-74" on="1"/>
        <pt x="30" y="275" on="1"/>
        <pt x="215" y="619" on="1"/>
        <pt x="286" y="622" on="1"/>
      </contour>
      <contour>
        <pt x="241" y="26" on="1"/>
        <pt x="377" y="275" on="1"/>
        <pt x="241" y="523" on="1"/>
        <pt x="111" y="275" on="1"/>
      </contour>
    </TTGlyph>
    <TTGlyph name="lslash" xMin="2" yMin="0" xMax="253" yMax="680">
      <contour>
        <pt x="66" y="0" on="1"/>
        <pt x="80" y="198" on="1"/>
        <pt x="80" y="309" on="1"/>
        <pt x="30" y="282" on="1"/>
        <pt x="2" y="333" on="1"/>
        <pt x="80" y="375" on="1"/>
        <pt x="80" y="567" on="1"/>
        <pt x="65" y="670" on="1"/>
        <pt x="173" y="680" on="1"/>
        <pt x="162" y="484" on="1"/>
        <pt x="162" y="420" on="1"/>
        <pt x="225" y="454" on="1"/>
        <pt x="253" y="403" on="1"/>
        <pt x="162" y="353" on="1"/>
        <pt x="162" y="197" on="1"/>
        <pt x="173" y="0" on="1"/>
      </contour>
    </TTGlyph>
    <TTGlyph name="m" xMin="65" yMin="-5" xMax="682" yMax="454">
      <contour>
        <pt x="421" y="348" on="1"/>
        <pt x="423" y="316" on="1"/>
        <pt x="423" y="0" on="1"/>
        <pt x="325" y="-5" on="1"/>
        <pt x="339" y="212" on="1"/>
        <pt x="339" y="317" on="1"/>
        <pt x="339" y="354" on="0"/>
        <pt x="316" y="385" on="0"/>
        <pt x="289" y="385" on="1"/>
        <pt x="228" y="385" on="0"/>
        <pt x="162" y="348" on="1"/>
        <pt x="162" y="0" on="1"/>
        <pt x="66" y="0" on="1"/>
        <pt x="80" y="198" on="1"/>
        <pt x="80" y="339" on="1"/>
        <pt x="65" y="442" on="1"/>
        <pt x="162" y="452" on="1"/>
        <pt x="162" y="401" on="1"/>
        <pt x="242" y="454" on="0"/>
        <pt x="321" y="454" on="1"/>
        <pt x="385" y="454" on="0"/>
        <pt x="410" y="395" on="1"/>
        <pt x="498" y="454" on="0"/>
        <pt x="580" y="454" on="1"/>
        <pt x="630" y="454" on="0"/>
        <pt x="682" y="383" on="0"/>
        <pt x="682" y="316" on="1"/>
        <pt x="682" y="0" on="1"/>
        <pt x="584" y="-5" on="1"/>
        <pt x="598" y="212" on="1"/>
        <pt x="598" y="317" on="1"/>
        <pt x="598" y="354" on="0"/>
        <pt x="575" y="385" on="0"/>
        <pt x="548" y="385" on="1"/>
        <pt x="487" y="385" on="0"/>
      </contour>
    </TTGlyph>
    <TTGlyph name="macron" xMin="82" yMin="552" xMax="348" yMax="624">
      <contour>
        <pt x="348" y="552" on="1"/>
        <pt x="82" y="552" on="1"/>
        <pt x="82" y="624" on="1"/>
        <pt x="348" y="624" on="1"/>
      </contour>
    </TTGlyph>
    <TTGlyph name="minus" xMin="79" yMin="196" xMax="437" yMax="265">
      <contour>
        <pt x="79" y="196" on="1"/>
        <pt x="83" y="265" on="1"/>
        <pt x="437" y="265" on="1"/>
        <pt x="433" y="196" on="1"/>
      </contour>
    </TTGlyph>
    <TTGlyph name="mu" xMin="64" yMin="-219" xMax="442" yMax="451">
      <contour>
        <pt x="75" y="-21" on="1"/>
        <pt x="75" y="441" on="1"/>
        <pt x="173" y="451" on="1"/>
        <pt x="159" y="227" on="1"/>
        <pt x="159" y="122" on="1"/>
        <pt x="159" y="85" on="0"/>
        <pt x="183" y="54" on="0"/>
        <pt x="211" y="54" on="1"/>
        <pt x="272" y="54" on="0"/>
        <pt x="343" y="91" on="1"/>
        <pt x="331" y="441" on="1"/>
        <pt x="427" y="451" on="1"/>
        <pt x="427" y="101" on="1"/>
        <pt x="442" y="-2" on="1"/>
        <pt x="343" y="-12" on="1"/>
        <pt x="343" y="38" on="1"/>
        <pt x="262" y="-15" on="0"/>
        <pt x="180" y="-15" on="1"/>
        <pt x="164" y="-15" on="0"/>
        <pt x="150" y="-12" on="1"/>
        <pt x="169" y="-209" on="1"/>
        <pt x="64" y="-219" on="1"/>
      </contour>
    </TTGlyph>
    <TTGlyph name="multiply" xMin="81" yMin="53" xMax="435" yMax="408">
      <contour>
        <pt x="130" y="53" on="1"/>
        <pt x="81" y="102" on="1"/>
        <pt x="209" y="230" on="1"/>
        <pt x="81" y="359" on="1"/>
        <pt x="130" y="408" on="1"/>
        <pt x="258" y="279" on="1"/>
        <pt x="386" y="408" on="1"/>
        <pt x="435" y="359" on="1"/>
        <pt x="307" y="230" on="1"/>
        <pt x="435" y="102" on="1"/>
        <pt x="386" y="53" on="1"/>
        <pt x="258" y="181" on="1"/>
      </contour>
    </TTGlyph>
    <TTGlyph name="n" xMin="65" yMin="-5" xMax="430" yMax="454">
      <contour>
        <pt x="66" y="0" on="1"/>
        <pt x="80" y="198" on="1"/>
        <pt x="80" y="339" on="1"/>
        <pt x="65" y="442" on="1"/>
        <pt x="162" y="452" on="1"/>
        <pt x="162" y="401" on="1"/>
        <pt x="243" y="454" on="0"/>
        <pt x="325" y="454" on="1"/>
        <pt x="376" y="454" on="0"/>
        <pt x="430" y="383" on="0"/>
        <pt x="430" y="316" on="1"/>
        <pt x="430" y="0" on="1"/>
        <pt x="332" y="-5" on="1"/>
        <pt x="346" y="210" on="1"/>
        <pt x="346" y="317" on="1"/>
        <pt x="346" y="354" on="0"/>
        <pt x="322" y="385" on="0"/>
        <pt x="294" y="385" on="1"/>
        <pt x="233" y="385" on="0"/>
        <pt x="162" y="348" on="1"/>
        <pt x="162" y="0" on="1"/>
      </contour>
    </TTGlyph>
    <TTGlyph name="nine" xMin="51" yMin="-126" xMax="464" yMax="547">
      <contour>
        <pt x="51" y="422" on="0"/>
        <pt x="165" y="547" on="0"/>
        <pt x="352" y="547" on="0"/>
        <pt x="464" y="404" on="0"/>
        <pt x="464" y="276" on="1"/>
        <pt x="464" y="93" on="0"/>
        <pt x="276" y="-114" on="0"/>
        <pt x="98" y="-126" on="1"/>
        <pt x="94" y="-67" on="1"/>
        <pt x="243" y="-52" on="0"/>
        <pt x="374" y="101" on="0"/>
        <pt x="374" y="260" on="1"/>
        <pt x="374" y="377" on="0"/>
        <pt x="313" y="482" on="0"/>
        <pt x="246" y="482" on="1"/>
        <pt x="201" y="482" on="0"/>
        <pt x="165" y="460" on="1"/>
        <pt x="141" y="424" on="0"/>
        <pt x="141" y="276" on="0"/>
        <pt x="202" y="211" on="0"/>
        <pt x="266" y="211" on="1"/>
        <pt x="282" y="211" on="0"/>
        <pt x="319" y="216" on="1"/>
        <pt x="324" y="180" on="1"/>
        <pt x="217" y="153" on="1"/>
        <pt x="144" y="153" on="0"/>
        <pt x="51" y="251" on="0"/>
      </contour>
    </TTGlyph>
    <TTGlyph name="notequal" xMin="81" yMin="-22" xMax="435" yMax="461">
      <contour>
        <pt x="81" y="291" on="1"/>
        <pt x="81" y="360" on="1"/>
        <pt x="253" y="360" on="1"/>
        <pt x="272" y="461" on="1"/>
        <pt x="316" y="454" on="1"/>
        <pt x="298" y="360" on="1"/>
        <pt x="435" y="360" on="1"/>
        <pt x="435" y="291" on="1"/>
        <pt x="286" y="291" on="1"/>
        <pt x="263" y="170" on="1"/>
        <pt x="435" y="170" on="1"/>
        <pt x="435" y="101" on="1"/>
        <pt x="250" y="101" on="1"/>
        <pt x="228" y="-22" on="1"/>
        <pt x="184" y="-15" on="1"/>
        <pt x="205" y="101" on="1"/>
        <pt x="81" y="101" on="1"/>
        <pt x="81" y="170" on="1"/>
        <pt x="218" y="170" on="1"/>
        <pt x="240" y="291" on="1"/>
      </contour>
    </TTGlyph>
    <TTGlyph name="ntilde" xMin="65" yMin="-5" xMax="430" yMax="647">
      <contour>
        <pt x="66" y="0" on="1"/>
        <pt x="80" y="198" on="1"/>
        <pt x="80" y="339" on="1"/>
        <pt x="65" y="442" on="1"/>
        <pt x="162" y="452" on="1"/>
        <pt x="162" y="401" on="1"/>
        <pt x="243" y="454" on="0"/>
        <pt x="325" y="454" on="1"/>
        <pt x="376" y="454" on="0"/>
        <pt x="430" y="383" on="0"/>
        <pt x="430" y="316" on="1"/>
        <pt x="430" y="0" on="1"/>
        <pt x="332" y="-5" on="1"/>
        <pt x="346" y="210" on="1"/>
        <pt x="346" y="317" on="1"/>
        <pt x="346" y="354" on="0"/>
        <pt x="322" y="385" on="0"/>
        <pt x="294" y="385" on="1"/>
        <pt x="233" y="385" on="0"/>
        <pt x="162" y="348" on="1"/>
        <pt x="162" y="0" on="1"/>
      </contour>
      <contour>
        <pt x="376" y="642" on="1"/>
        <pt x="398" y="625" on="1"/>
        <pt x="357" y="548" on="0"/>
        <pt x="328" y="523" on="1"/>
        <pt x="305" y="523" on="0"/>
        <pt x="265" y="540" on="0"/>
        <pt x="188" y="583" on="1"/>
        <pt x="128" y="528" on="1"/>
        <pt x="106" y="545" on="1"/>
        <pt x="150" y="623" on="0"/>
        <pt x="176" y="647" on="1"/>
        <pt x="198" y="647" on="0"/>
        <pt x="242" y="628" on="0"/>
        <pt x="316" y="587" on="1"/>
      </contour>
    </TTGlyph>
    <TTGlyph name="numbersign" xMin="17" yMin="0" xMax="496" yMax="477">
      <contour>
        <pt x="330" y="0" on="1"/>
        <pt x="263" y="0" on="1"/>
        <pt x="285" y="111" on="1"/>
        <pt x="180" y="111" on="1"/>
        <pt x="158" y="0" on="1"/>
        <pt x="91" y="0" on="1"/>
        <pt x="113" y="111" on="1"/>
        <pt x="17" y="111" on="1"/>
        <pt x="32" y="180" on="1"/>
        <pt x="127" y="180" on="1"/>
        <pt x="147" y="281" on="1"/>
        <pt x="52" y="281" on="1"/>
        <pt x="66" y="350" on="1"/>
        <pt x="160" y="350" on="1"/>
        <pt x="186" y="477" on="1"/>
        <pt x="253" y="477" on="1"/>
        <pt x="227" y="350" on="1"/>
        <pt x="332" y="350" on="1"/>
        <pt x="358" y="477" on="1"/>
        <pt x="425" y="477" on="1"/>
        <pt x="399" y="350" on="1"/>
        <pt x="496" y="350" on="1"/>
        <pt x="482" y="281" on="1"/>
        <pt x="386" y="281" on="1"/>
        <pt x="366" y="180" on="1"/>
        <pt x="462" y="180" on="1"/>
        <pt x="447" y="111" on="1"/>
        <pt x="352" y="111" on="1"/>
      </contour>
      <contour>
        <pt x="214" y="281" on="1"/>
        <pt x="194" y="180" on="1"/>
        <pt x="299" y="180" on="1"/>
        <pt x="319" y="281" on="1"/>
      </contour>
    </TTGlyph>
    <TTGlyph name="o" xMin="50" yMin="-15" xMax="450" yMax="454">
      <contour>
        <pt x="153" y="-15" on="0"/>
        <pt x="50" y="103" on="0"/>
        <pt x="50" y="322" on="0"/>
        <pt x="160" y="454" on="0"/>
        <pt x="347" y="454" on="0"/>
        <pt x="450" y="337" on="0"/>
        <pt x="450" y="118" on="0"/>
        <pt x="340" y="-15" on="0"/>
      </contour>
      <contour>
        <pt x="261" y="46" on="1"/>
        <pt x="291" y="46" on="0"/>
        <pt x="325" y="56" on="1"/>
        <pt x="358" y="103" on="0"/>
        <pt x="358" y="306" on="0"/>
        <pt x="299" y="393" on="0"/>
        <pt x="237" y="393" on="1"/>
        <pt x="214" y="393" on="0"/>
        <pt x="175" y="383" on="1"/>
        <pt x="142" y="337" on="0"/>
        <pt x="142" y="133" on="0"/>
        <pt x="199" y="46" on="0"/>
      </contour>
    </TTGlyph>
    <TTGlyph name="oacute" xMin="50" yMin="-15" xMax="450" yMax="669">
      <contour>
        <pt x="153" y="-15" on="0"/>
        <pt x="50" y="103" on="0"/>
        <pt x="50" y="322" on="0"/>
        <pt x="160" y="454" on="0"/>
        <pt x="347" y="454" on="0"/>
        <pt x="450" y="337" on="0"/>
        <pt x="450" y="118" on="0"/>
        <pt x="340" y="-15" on="0"/>
      </contour>
      <contour>
        <pt x="261" y="46" on="1"/>
        <pt x="291" y="46" on="0"/>
        <pt x="325" y="56" on="1"/>
        <pt x="358" y="103" on="0"/>
        <pt x="358" y="306" on="0"/>
        <pt x="299" y="393" on="0"/>
        <pt x="237" y="393" on="1"/>
        <pt x="214" y="393" on="0"/>
        <pt x="175" y="383" on="1"/>
        <pt x="142" y="337" on="0"/>
        <pt x="142" y="133" on="0"/>
        <pt x="199" y="46" on="0"/>
      </contour>
      <contour>
        <pt x="204" y="502" on="1"/>
        <pt x="181" y="534" on="1"/>
        <pt x="320" y="669" on="1"/>
        <pt x="379" y="604" on="1"/>
      </contour>
    </TTGlyph>
    <TTGlyph name="ocircumflex" xMin="50" yMin="-15" xMax="450" yMax="664">
      <contour>
        <pt x="153" y="-15" on="0"/>
        <pt x="50" y="103" on="0"/>
        <pt x="50" y="322" on="0"/>
        <pt x="160" y="454" on="0"/>
        <pt x="347" y="454" on="0"/>
        <pt x="450" y="337" on="0"/>
        <pt x="450" y="118" on="0"/>
        <pt x="340" y="-15" on="0"/>
      </contour>
      <contour>
        <pt x="261" y="46" on="1"/>
        <pt x="291" y="46" on="0"/>
        <pt x="325" y="56" on="1"/>
        <pt x="358" y="103" on="0"/>
        <pt x="358" y="306" on="0"/>
        <pt x="299" y="393" on="0"/>
        <pt x="237" y="393" on="1"/>
        <pt x="214" y="393" on="0"/>
        <pt x="175" y="383" on="1"/>
        <pt x="142" y="337" on="0"/>
        <pt x="142" y="133" on="0"/>
        <pt x="199" y="46" on="0"/>
      </contour>
      <contour>
        <pt x="135" y="502" on="1"/>
        <pt x="112" y="534" on="1"/>
        <pt x="250" y="664" on="1"/>
        <pt x="388" y="534" on="1"/>
        <pt x="365" y="502" on="1"/>
        <pt x="250" y="578" on="1"/>
      </contour>
    </TTGlyph>
    <TTGlyph name="odieresis" xMin="50" yMin="-15" xMax="450" yMax="647">
      <contour>
        <pt x="153" y="-15" on="0"/>
        <pt x="50" y="103" on="0"/>
        <pt x="50" y="322" on="0"/>
        <pt x="160" y="454" on="0"/>
        <pt x="347" y="454" on="0"/>
        <pt x="450" y="337" on="0"/>
        <pt x="450" y="118" on="0"/>
        <pt x="340" y="-15" on="0"/>
      </contour>
      <contour>
        <pt x="261" y="46" on="1"/>
        <pt x="291" y="46" on="0"/>
        <pt x="325" y="56" on="1"/>
        <pt x="358" y="103" on="0"/>
        <pt x="358" y="306" on="0"/>
        <pt x="299" y="393" on="0"/>
        <pt x="237" y="393" on="1"/>
        <pt x="214" y="393" on="0"/>
        <pt x="175" y="383" on="1"/>
        <pt x="142" y="337" on="0"/>
        <pt x="142" y="133" on="0"/>
        <pt x="199" y="46" on="0"/>
      </contour>
      <contour>
        <pt x="100" y="586" on="1"/>
        <pt x="126" y="624" on="0"/>
        <pt x="161" y="647" on="1"/>
        <pt x="192" y="624" on="0"/>
        <pt x="219" y="586" on="1"/>
        <pt x="192" y="547" on="0"/>
        <pt x="161" y="525" on="1"/>
        <pt x="124" y="549" on="0"/>
      </contour>
      <contour>
        <pt x="281" y="586" on="1"/>
        <pt x="308" y="626" on="0"/>
        <pt x="339" y="647" on="1"/>
        <pt x="375" y="622" on="0"/>
        <pt x="400" y="586" on="1"/>
        <pt x="377" y="551" on="0"/>
        <pt x="339" y="525" on="1"/>
        <pt x="306" y="547" on="0"/>
      </contour>
    </TTGlyph>
    <TTGlyph name="oe" xMin="50" yMin="-15" xMax="725" yMax="454">
      <contour>
        <pt x="153" y="-15" on="0"/>
        <pt x="50" y="103" on="0"/>
        <pt x="50" y="322" on="0"/>
        <pt x="160" y="454" on="0"/>
        <pt x="252" y="454" on="1"/>
        <pt x="359" y="454" on="0"/>
        <pt x="411" y="365" on="1"/>
        <pt x="464" y="454" on="0"/>
        <pt x="565" y="454" on="1"/>
        <pt x="641" y="454" on="0"/>
        <pt x="725" y="372" on="0"/>
        <pt x="725" y="298" on="1"/>
        <pt x="725" y="290" on="0"/>
        <pt x="720" y="233" on="1"/>
        <pt x="450" y="224" on="1"/>
        <pt x="450" y="139" on="0"/>
        <pt x="509" y="46" on="0"/>
        <pt x="563" y="46" on="1"/>
        <pt x="634" y="46" on="0"/>
        <pt x="694" y="97" on="1"/>
        <pt x="721" y="23" on="1"/>
        <pt x="653" y="-15" on="0"/>
        <pt x="569" y="-15" on="1"/>
        <pt x="456" y="-15" on="0"/>
        <pt x="401" y="73" on="1"/>
        <pt x="348" y="-15" on="0"/>
      </contour>
      <contour>
        <pt x="261" y="46" on="1"/>
        <pt x="291" y="46" on="0"/>
        <pt x="325" y="56" on="1"/>
        <pt x="358" y="105" on="0"/>
        <pt x="358" y="310" on="0"/>
        <pt x="298" y="393" on="0"/>
        <pt x="237" y="393" on="1"/>
        <pt x="214" y="393" on="0"/>
        <pt x="175" y="383" on="1"/>
        <pt x="142" y="337" on="0"/>
        <pt x="142" y="133" on="0"/>
        <pt x="199" y="46" on="0"/>
      </contour>
      <contour>
        <pt x="449" y="276" on="1"/>
        <pt x="634" y="284" on="1"/>
        <pt x="633" y="345" on="0"/>
        <pt x="595" y="393" on="0"/>
        <pt x="504" y="393" on="0"/>
        <pt x="482" y="384" on="1"/>
        <pt x="457" y="359" on="0"/>
      </contour>
    </TTGlyph>
    <TTGlyph name="ogonek" xMin="129" yMin="-224" xMax="326" yMax="0">
      <contour>
        <pt x="222" y="0" on="1"/>
        <pt x="324" y="0" on="1"/>
        <pt x="272" y="-13" on="0"/>
        <pt x="198" y="-83" on="0"/>
        <pt x="198" y="-119" on="1"/>
        <pt x="198" y="-167" on="0"/>
        <pt x="246" y="-167" on="1"/>
        <pt x="273" y="-167" on="0"/>
        <pt x="301" y="-150" on="1"/>
        <pt x="326" y="-188" on="1"/>
        <pt x="287" y="-224" on="0"/>
        <pt x="188" y="-224" on="0"/>
        <pt x="129" y="-172" on="0"/>
        <pt x="129" y="-95" on="0"/>
        <pt x="179" y="-23" on="0"/>
      </contour>
    </TTGlyph>
    <TTGlyph name="ograve" xMin="50" yMin="-15" xMax="450" yMax="669">
      <contour>
        <pt x="153" y="-15" on="0"/>
        <pt x="50" y="103" on="0"/>
        <pt x="50" y="322" on="0"/>
        <pt x="160" y="454" on="0"/>
        <pt x="347" y="454" on="0"/>
        <pt x="450" y="337" on="0"/>
        <pt x="450" y="118" on="0"/>
        <pt x="340" y="-15" on="0"/>
      </contour>
      <contour>
        <pt x="261" y="46" on="1"/>
        <pt x="291" y="46" on="0"/>
        <pt x="325" y="56" on="1"/>
        <pt x="358" y="103" on="0"/>
        <pt x="358" y="306" on="0"/>
        <pt x="299" y="393" on="0"/>
        <pt x="237" y="393" on="1"/>
        <pt x="214" y="393" on="0"/>
        <pt x="175" y="383" on="1"/>
        <pt x="142" y="337" on="0"/>
        <pt x="142" y="133" on="0"/>
        <pt x="199" y="46" on="0"/>
      </contour>
      <contour>
        <pt x="328" y="534" on="1"/>
        <pt x="305" y="502" on="1"/>
        <pt x="131" y="605" on="1"/>
        <pt x="190" y="669" on="1"/>
      </contour>
    </TTGlyph>
    <TTGlyph name="one" xMin="107" yMin="0" xMax="436" yMax="547">
      <contour>
        <pt x="116" y="428" on="1"/>
        <pt x="107" y="471" on="1"/>
        <pt x="306" y="547" on="1"/>
        <pt x="327" y="547" on="1"/>
        <pt x="327" y="60" on="1"/>
        <pt x="433" y="68" on="1"/>
        <pt x="436" y="0" on="1"/>
        <pt x="124" y="0" on="1"/>
        <pt x="126" y="44" on="1"/>
        <pt x="239" y="52" on="1"/>
        <pt x="250" y="198" on="1"/>
        <pt x="250" y="452" on="1"/>
      </contour>
    </TTGlyph>
    <TTGlyph name="onehalf" xMin="60" yMin="-35" xMax="783" yMax="641">
      <contour>
        <pt x="284" y="-35" on="1"/>
        <pt x="217" y="-15" on="1"/>
        <pt x="495" y="641" on="1"/>
        <pt x="562" y="621" on="1"/>
      </contour>
      <contour>
        <pt x="496" y="0" on="1"/>
        <pt x="488" y="33" on="1"/>
        <pt x="625" y="144" on="0"/>
        <pt x="659" y="189" on="1"/>
        <pt x="683" y="220" on="0"/>
        <pt x="683" y="272" on="0"/>
        <pt x="645" y="299" on="0"/>
        <pt x="566" y="299" on="0"/>
        <pt x="517" y="276" on="1"/>
        <pt x="497" y="328" on="1"/>
        <pt x="553" y="356" on="0"/>
        <pt x="689" y="356" on="0"/>
        <pt x="760" y="304" on="0"/>
        <pt x="760" y="219" on="0"/>
        <pt x="693" y="136" on="0"/>
        <pt x="595" y="58" on="1"/>
        <pt x="689" y="58" on="1"/>
        <pt x="783" y="71" on="1"/>
        <pt x="777" y="0" on="1"/>
      </contour>
      <contour>
        <pt x="68" y="519" on="1"/>
        <pt x="60" y="555" on="1"/>
        <pt x="201" y="616" on="1"/>
        <pt x="217" y="616" on="1"/>
        <pt x="217" y="311" on="1"/>
        <pt x="293" y="318" on="1"/>
        <pt x="296" y="260" on="1"/>
        <pt x="64" y="260" on="1"/>
        <pt x="66" y="298" on="1"/>
        <pt x="141" y="304" on="1"/>
        <pt x="149" y="415" on="1"/>
        <pt x="149" y="539" on="1"/>
      </contour>
    </TTGlyph>
    <TTGlyph name="onequarter" xMin="113" yMin="-35" xMax="742" yMax="641">
      <contour>
        <pt x="337" y="-35" on="1"/>
        <pt x="270" y="-15" on="1"/>
        <pt x="548" y="641" on="1"/>
        <pt x="615" y="621" on="1"/>
      </contour>
      <contour>
        <pt x="488" y="101" on="1"/>
        <pt x="482" y="145" on="1"/>
        <pt x="643" y="357" on="1"/>
        <pt x="697" y="357" on="1"/>
        <pt x="697" y="159" on="1"/>
        <pt x="742" y="167" on="1"/>
        <pt x="736" y="101" on="1"/>
        <pt x="697" y="101" on="1"/>
        <pt x="697" y="1" on="1"/>
        <pt x="620" y="1" on="1"/>
        <pt x="629" y="86" on="1"/>
        <pt x="629" y="101" on="1"/>
      </contour>
      <contour>
        <pt x="121" y="519" on="1"/>
        <pt x="113" y="555" on="1"/>
        <pt x="254" y="616" on="1"/>
        <pt x="270" y="616" on="1"/>
        <pt x="270" y="311" on="1"/>
        <pt x="346" y="318" on="1"/>
        <pt x="349" y="260" on="1"/>
        <pt x="117" y="260" on="1"/>
        <pt x="119" y="298" on="1"/>
        <pt x="194" y="304" on="1"/>
        <pt x="202" y="415" on="1"/>
        <pt x="202" y="539" on="1"/>
      </contour>
      <contour>
        <pt x="542" y="154" on="1"/>
        <pt x="629" y="154" on="1"/>
        <pt x="629" y="270" on="1"/>
      </contour>
    </TTGlyph>
    <TTGlyph name="onesuperior" xMin="91" yMin="191" xMax="327" yMax="547">
      <contour>
        <pt x="99" y="450" on="1"/>
        <pt x="91" y="486" on="1"/>
        <pt x="232" y="547" on="1"/>
        <pt x="248" y="547" on="1"/>
        <pt x="248" y="242" on="1"/>
        <pt x="324" y="249" on="1"/>
        <pt x="327" y="191" on="1"/>
        <pt x="95" y="191" on="1"/>
        <pt x="97" y="229" on="1"/>
        <pt x="172" y="235" on="1"/>
        <pt x="180" y="346" on="1"/>
        <pt x="180" y="470" on="1"/>
      </contour>
    </TTGlyph>
    <TTGlyph name="ordfeminine" xMin="40" yMin="143" xMax="330" yMax="620">
      <contour>
        <pt x="184" y="564" on="1"/>
        <pt x="150" y="563" on="1"/>
        <pt x="87" y="505" on="1"/>
        <pt x="48" y="572" on="1"/>
        <pt x="74" y="594" on="0"/>
        <pt x="152" y="620" on="0"/>
        <pt x="188" y="620" on="1"/>
        <pt x="316" y="620" on="0"/>
        <pt x="316" y="497" on="1"/>
        <pt x="316" y="352" on="1"/>
        <pt x="330" y="264" on="1"/>
        <pt x="255" y="253" on="1"/>
        <pt x="252" y="292" on="1"/>
        <pt x="202" y="253" on="0"/>
        <pt x="97" y="253" on="0"/>
        <pt x="40" y="306" on="0"/>
        <pt x="40" y="404" on="0"/>
        <pt x="119" y="450" on="0"/>
        <pt x="248" y="473" on="1"/>
        <pt x="248" y="525" on="0"/>
        <pt x="220" y="564" on="0"/>
      </contour>
      <contour>
        <pt x="49" y="143" on="1"/>
        <pt x="49" y="198" on="1"/>
        <pt x="316" y="210" on="1"/>
        <pt x="316" y="155" on="1"/>
      </contour>
      <contour>
        <pt x="115" y="358" on="1"/>
        <pt x="115" y="336" on="0"/>
        <pt x="147" y="310" on="0"/>
        <pt x="217" y="310" on="0"/>
        <pt x="248" y="332" on="1"/>
        <pt x="248" y="420" on="1"/>
        <pt x="170" y="408" on="0"/>
        <pt x="121" y="386" on="1"/>
        <pt x="115" y="366" on="0"/>
      </contour>
    </TTGlyph>
    <TTGlyph name="ordmasculine" xMin="40" yMin="143" xMax="353" yMax="620">
      <contour>
        <pt x="121" y="253" on="0"/>
        <pt x="40" y="345" on="0"/>
        <pt x="40" y="517" on="0"/>
        <pt x="126" y="620" on="0"/>
        <pt x="272" y="620" on="0"/>
        <pt x="353" y="528" on="0"/>
        <pt x="353" y="357" on="0"/>
        <pt x="267" y="253" on="0"/>
      </contour>
      <contour>
        <pt x="205" y="309" on="1"/>
        <pt x="229" y="309" on="0"/>
        <pt x="253" y="317" on="1"/>
        <pt x="278" y="351" on="0"/>
        <pt x="278" y="500" on="0"/>
        <pt x="233" y="564" on="0"/>
        <pt x="186" y="564" on="1"/>
        <pt x="164" y="564" on="0"/>
        <pt x="140" y="556" on="1"/>
        <pt x="115" y="523" on="0"/>
        <pt x="115" y="373" on="0"/>
        <pt x="158" y="309" on="0"/>
      </contour>
      <contour>
        <pt x="55" y="143" on="1"/>
        <pt x="55" y="198" on="1"/>
        <pt x="336" y="210" on="1"/>
        <pt x="336" y="155" on="1"/>
      </contour>
    </TTGlyph>
    <TTGlyph name="oslash" xMin="50" yMin="-98" xMax="450" yMax="537">
      <contour>
        <pt x="245" y="47" on="1"/>
        <pt x="249" y="46" on="0"/>
        <pt x="289" y="46" on="0"/>
        <pt x="325" y="56" on="1"/>
        <pt x="358" y="103" on="0"/>
        <pt x="358" y="336" on="0"/>
        <pt x="305" y="374" on="1"/>
      </contour>
      <contour>
        <pt x="255" y="392" on="1"/>
        <pt x="237" y="393" on="1"/>
        <pt x="215" y="393" on="0"/>
        <pt x="175" y="383" on="1"/>
        <pt x="142" y="337" on="0"/>
        <pt x="142" y="101" on="0"/>
        <pt x="194" y="64" on="1"/>
      </contour>
      <contour>
        <pt x="252" y="454" on="1"/>
        <pt x="266" y="453" on="1"/>
        <pt x="282" y="537" on="1"/>
        <pt x="334" y="528" on="1"/>
        <pt x="318" y="445" on="1"/>
        <pt x="382" y="426" on="0"/>
        <pt x="450" y="316" on="0"/>
        <pt x="450" y="230" on="1"/>
        <pt x="450" y="118" on="0"/>
        <pt x="340" y="-15" on="0"/>
        <pt x="247" y="-15" on="1"/>
        <pt x="233" y="-15" on="1"/>
        <pt x="218" y="-98" on="1"/>
        <pt x="166" y="-89" on="1"/>
        <pt x="181" y="-6" on="1"/>
        <pt x="118" y="12" on="0"/>
        <pt x="50" y="124" on="0"/>
        <pt x="50" y="210" on="1"/>
        <pt x="50" y="322" on="0"/>
        <pt x="160" y="454" on="0"/>
      </contour>
    </TTGlyph>
    <TTGlyph name="otilde" xMin="50" yMin="-15" xMax="450" yMax="647">
      <contour>
        <pt x="153" y="-15" on="0"/>
        <pt x="50" y="103" on="0"/>
        <pt x="50" y="322" on="0"/>
        <pt x="160" y="454" on="0"/>
        <pt x="347" y="454" on="0"/>
        <pt x="450" y="337" on="0"/>
        <pt x="450" y="118" on="0"/>
        <pt x="340" y="-15" on="0"/>
      </contour>
      <contour>
        <pt x="261" y="46" on="1"/>
        <pt x="291" y="46" on="0"/>
        <pt x="325" y="56" on="1"/>
        <pt x="358" y="103" on="0"/>
        <pt x="358" y="306" on="0"/>
        <pt x="299" y="393" on="0"/>
        <pt x="237" y="393" on="1"/>
        <pt x="214" y="393" on="0"/>
        <pt x="175" y="383" on="1"/>
        <pt x="142" y="337" on="0"/>
        <pt x="142" y="133" on="0"/>
        <pt x="199" y="46" on="0"/>
      </contour>
      <contour>
        <pt x="381" y="642" on="1"/>
        <pt x="403" y="625" on="1"/>
        <pt x="362" y="548" on="0"/>
        <pt x="333" y="523" on="1"/>
        <pt x="310" y="523" on="0"/>
        <pt x="270" y="540" on="0"/>
        <pt x="193" y="583" on="1"/>
        <pt x="133" y="528" on="1"/>
        <pt x="111" y="545" on="1"/>
        <pt x="155" y="623" on="0"/>
        <pt x="181" y="647" on="1"/>
        <pt x="203" y="647" on="0"/>
        <pt x="247" y="628" on="0"/>
        <pt x="321" y="587" on="1"/>
      </contour>
    </TTGlyph>
    <TTGlyph name="p" xMin="65" yMin="-219" xMax="447" yMax="454">
      <contour>
        <pt x="83" y="-21" on="1"/>
        <pt x="83" y="327" on="1"/>
        <pt x="65" y="440" on="1"/>
        <pt x="158" y="454" on="1"/>
        <pt x="162" y="404" on="1"/>
        <pt x="226" y="454" on="0"/>
        <pt x="365" y="454" on="0"/>
        <pt x="447" y="342" on="0"/>
        <pt x="447" y="246" on="1"/>
        <pt x="447" y="128" on="0"/>
        <pt x="322" y="-15" on="0"/>
        <pt x="219" y="-15" on="1"/>
        <pt x="188" y="-15" on="0"/>
        <pt x="167" y="-11" on="1"/>
        <pt x="177" y="-209" on="1"/>
        <pt x="72" y="-219" on="1"/>
      </contour>
      <contour>
        <pt x="167" y="57" on="1"/>
        <pt x="198" y="46" on="0"/>
        <pt x="280" y="46" on="0"/>
        <pt x="317" y="56" on="1"/>
        <pt x="355" y="106" on="0"/>
        <pt x="355" y="214" on="1"/>
        <pt x="355" y="385" on="0"/>
        <pt x="266" y="385" on="1"/>
        <pt x="218" y="385" on="0"/>
        <pt x="167" y="361" on="1"/>
      </contour>
    </TTGlyph>
    <TTGlyph name="paragraph" xMin="50" yMin="0" xMax="435" yMax="620">
      <contour>
        <pt x="220" y="302" on="1"/>
        <pt x="129" y="302" on="0"/>
        <pt x="50" y="375" on="0"/>
        <pt x="50" y="461" on="1"/>
        <pt x="50" y="620" on="0"/>
        <pt x="258" y="620" on="1"/>
        <pt x="292" y="620" on="0"/>
        <pt x="435" y="603" on="1"/>
        <pt x="417" y="491" on="1"/>
        <pt x="417" y="0" on="1"/>
        <pt x="344" y="0" on="1"/>
        <pt x="344" y="550" on="1"/>
        <pt x="313" y="555" on="0"/>
        <pt x="292" y="556" on="1"/>
        <pt x="292" y="0" on="1"/>
        <pt x="220" y="0" on="1"/>
      </contour>
    </TTGlyph>
    <TTGlyph name="parenleft" xMin="70" yMin="-230" xMax="289" yMax="695">
      <contour>
        <pt x="289" y="-186" on="1"/>
        <pt x="247" y="-230" on="1"/>
        <pt x="163" y="-148" on="0"/>
        <pt x="70" y="98" on="0"/>
        <pt x="70" y="377" on="0"/>
        <pt x="163" y="618" on="0"/>
        <pt x="247" y="695" on="1"/>
        <pt x="289" y="651" on="1"/>
        <pt x="229" y="591" on="0"/>
        <pt x="160" y="367" on="0"/>
        <pt x="160" y="95" on="0"/>
        <pt x="229" y="-128" on="0"/>
      </contour>
    </TTGlyph>
    <TTGlyph name="parenright" xMin="-25" yMin="-230" xMax="194" yMax="695">
      <contour>
        <pt x="-25" y="-186" on="1"/>
        <pt x="35" y="-128" on="0"/>
        <pt x="104" y="95" on="0"/>
        <pt x="104" y="367" on="0"/>
        <pt x="35" y="591" on="0"/>
        <pt x="-25" y="651" on="1"/>
        <pt x="17" y="695" on="1"/>
        <pt x="101" y="618" on="0"/>
        <pt x="194" y="377" on="0"/>
        <pt x="194" y="98" on="0"/>
        <pt x="101" y="-148" on="0"/>
        <pt x="17" y="-230" on="1"/>
      </contour>
    </TTGlyph>
    <TTGlyph name="partialdiff" xMin="40" yMin="-15" xMax="428" yMax="657">
      <contour>
        <pt x="209" y="50" on="1"/>
        <pt x="269" y="50" on="0"/>
        <pt x="346" y="179" on="0"/>
        <pt x="349" y="284" on="1"/>
        <pt x="288" y="319" on="0"/>
        <pt x="245" y="319" on="1"/>
        <pt x="187" y="319" on="0"/>
        <pt x="127" y="231" on="0"/>
        <pt x="127" y="92" on="0"/>
        <pt x="139" y="72" on="1"/>
        <pt x="170" y="50" on="0"/>
      </contour>
      <contour>
        <pt x="65" y="657" on="1"/>
        <pt x="221" y="656" on="0"/>
        <pt x="428" y="442" on="0"/>
        <pt x="428" y="281" on="1"/>
        <pt x="428" y="147" on="0"/>
        <pt x="306" y="-15" on="0"/>
        <pt x="205" y="-15" on="1"/>
        <pt x="131" y="-15" on="0"/>
        <pt x="40" y="92" on="0"/>
        <pt x="40" y="267" on="0"/>
        <pt x="149" y="379" on="0"/>
        <pt x="237" y="379" on="1"/>
        <pt x="286" y="379" on="0"/>
        <pt x="343" y="356" on="1"/>
        <pt x="316" y="509" on="0"/>
        <pt x="181" y="579" on="1"/>
        <pt x="60" y="575" on="1"/>
      </contour>
    </TTGlyph>
    <TTGlyph name="percent" xMin="67" yMin="-26" xMax="781" yMax="558">
      <contour>
        <pt x="576" y="-15" on="0"/>
        <pt x="502" y="74" on="0"/>
        <pt x="502" y="226" on="0"/>
        <pt x="578" y="316" on="0"/>
        <pt x="706" y="316" on="0"/>
        <pt x="781" y="227" on="0"/>
        <pt x="781" y="75" on="0"/>
        <pt x="705" y="-15" on="0"/>
      </contour>
      <contour>
        <pt x="141" y="216" on="0"/>
        <pt x="67" y="305" on="0"/>
        <pt x="67" y="457" on="0"/>
        <pt x="143" y="547" on="0"/>
        <pt x="271" y="547" on="0"/>
        <pt x="346" y="458" on="0"/>
        <pt x="346" y="306" on="0"/>
        <pt x="270" y="216" on="0"/>
      </contour>
      <contour>
        <pt x="309" y="-26" on="1"/>
        <pt x="249" y="-2" on="1"/>
        <pt x="539" y="558" on="1"/>
        <pt x="599" y="534" on="1"/>
      </contour>
      <contour>
        <pt x="137" y="379" on="1"/>
        <pt x="137" y="326" on="0"/>
        <pt x="172" y="268" on="0"/>
        <pt x="204" y="268" on="1"/>
        <pt x="276" y="268" on="0"/>
        <pt x="276" y="495" on="0"/>
        <pt x="208" y="495" on="1"/>
        <pt x="137" y="495" on="0"/>
      </contour>
      <contour>
        <pt x="572" y="148" on="1"/>
        <pt x="572" y="95" on="0"/>
        <pt x="607" y="37" on="0"/>
        <pt x="639" y="37" on="1"/>
        <pt x="711" y="37" on="0"/>
        <pt x="711" y="264" on="0"/>
        <pt x="643" y="264" on="1"/>
        <pt x="572" y="264" on="0"/>
      </contour>
    </TTGlyph>
    <TTGlyph name="period" xMin="40" yMin="-16" xMax="180" yMax="124">
      <contour>
        <pt x="40" y="54" on="1"/>
        <pt x="69" y="95" on="0"/>
        <pt x="110" y="124" on="1"/>
        <pt x="153" y="94" on="0"/>
        <pt x="180" y="54" on="1"/>
        <pt x="151" y="11" on="0"/>
        <pt x="110" y="-16" on="1"/>
        <pt x="69" y="11" on="0"/>
      </contour>
    </TTGlyph>
    <TTGlyph name="periodcentered" xMin="67" yMin="149" xMax="207" yMax="289">
      <contour>
        <pt x="67" y="219" on="1"/>
        <pt x="96" y="260" on="0"/>
        <pt x="137" y="289" on="1"/>
        <pt x="180" y="259" on="0"/>
        <pt x="207" y="219" on="1"/>
        <pt x="178" y="176" on="0"/>
        <pt x="137" y="149" on="1"/>
        <pt x="96" y="176" on="0"/>
      </contour>
    </TTGlyph>
    <TTGlyph name="perthousand" xMin="67" yMin="-26" xMax="1122" yMax="558">
      <contour>
        <pt x="576" y="-15" on="0"/>
        <pt x="502" y="74" on="0"/>
        <pt x="502" y="226" on="0"/>
        <pt x="578" y="316" on="0"/>
        <pt x="706" y="316" on="0"/>
        <pt x="781" y="227" on="0"/>
        <pt x="781" y="75" on="0"/>
        <pt x="705" y="-15" on="0"/>
      </contour>
      <contour>
        <pt x="917" y="-15" on="0"/>
        <pt x="843" y="74" on="0"/>
        <pt x="843" y="226" on="0"/>
        <pt x="919" y="316" on="0"/>
        <pt x="1047" y="316" on="0"/>
        <pt x="1122" y="227" on="0"/>
        <pt x="1122" y="75" on="0"/>
        <pt x="1046" y="-15" on="0"/>
      </contour>
      <contour>
        <pt x="141" y="216" on="0"/>
        <pt x="67" y="305" on="0"/>
        <pt x="67" y="457" on="0"/>
        <pt x="143" y="547" on="0"/>
        <pt x="271" y="547" on="0"/>
        <pt x="346" y="458" on="0"/>
        <pt x="346" y="306" on="0"/>
        <pt x="270" y="216" on="0"/>
      </contour>
      <contour>
        <pt x="309" y="-26" on="1"/>
        <pt x="249" y="-2" on="1"/>
        <pt x="539" y="558" on="1"/>
        <pt x="599" y="534" on="1"/>
      </contour>
      <contour>
        <pt x="137" y="379" on="1"/>
        <pt x="137" y="326" on="0"/>
        <pt x="172" y="268" on="0"/>
        <pt x="204" y="268" on="1"/>
        <pt x="276" y="268" on="0"/>
        <pt x="276" y="495" on="0"/>
        <pt x="208" y="495" on="1"/>
        <pt x="137" y="495" on="0"/>
      </contour>
      <contour>
        <pt x="913" y="148" on="1"/>
        <pt x="913" y="95" on="0"/>
        <pt x="948" y="37" on="0"/>
        <pt x="980" y="37" on="1"/>
        <pt x="1052" y="37" on="0"/>
        <pt x="1052" y="264" on="0"/>
        <pt x="984" y="264" on="1"/>
        <pt x="913" y="264" on="0"/>
      </contour>
      <contour>
        <pt x="572" y="148" on="1"/>
        <pt x="572" y="95" on="0"/>
        <pt x="607" y="37" on="0"/>
        <pt x="639" y="37" on="1"/>
        <pt x="711" y="37" on="0"/>
        <pt x="711" y="264" on="0"/>
        <pt x="643" y="264" on="1"/>
        <pt x="572" y="264" on="0"/>
      </contour>
    </TTGlyph>
    <TTGlyph name="pi" xMin="35" yMin="-15" xMax="494" yMax="466">
      <contour>
        <pt x="35" y="378" on="1"/>
        <pt x="40" y="454" on="1"/>
        <pt x="385" y="454" on="1"/>
        <pt x="494" y="466" on="1"/>
        <pt x="484" y="378" on="1"/>
        <pt x="405" y="382" on="1"/>
        <pt x="405" y="112" on="1"/>
        <pt x="423" y="-1" on="1"/>
        <pt x="330" y="-15" on="1"/>
        <pt x="319" y="95" on="1"/>
        <pt x="319" y="384" on="1"/>
        <pt x="189" y="384" on="1"/>
        <pt x="182" y="255" on="1"/>
        <pt x="182" y="197" on="1"/>
        <pt x="193" y="0" on="1"/>
        <pt x="91" y="0" on="1"/>
        <pt x="105" y="198" on="1"/>
        <pt x="105" y="382" on="1"/>
      </contour>
    </TTGlyph>
    <TTGlyph name="plus" xMin="81" yMin="53" xMax="435" yMax="407">
      <contour>
        <pt x="81" y="196" on="1"/>
        <pt x="81" y="265" on="1"/>
        <pt x="223" y="265" on="1"/>
        <pt x="223" y="407" on="1"/>
        <pt x="292" y="407" on="1"/>
        <pt x="292" y="265" on="1"/>
        <pt x="435" y="265" on="1"/>
        <pt x="435" y="196" on="1"/>
        <pt x="292" y="196" on="1"/>
        <pt x="292" y="53" on="1"/>
        <pt x="223" y="53" on="1"/>
        <pt x="223" y="196" on="1"/>
      </contour>
    </TTGlyph>
    <TTGlyph name="plusminus" xMin="79" yMin="0" xMax="437" yMax="454">
      <contour>
        <pt x="81" y="243" on="1"/>
        <pt x="81" y="312" on="1"/>
        <pt x="223" y="312" on="1"/>
        <pt x="223" y="454" on="1"/>
        <pt x="292" y="454" on="1"/>
        <pt x="292" y="312" on="1"/>
        <pt x="435" y="312" on="1"/>
        <pt x="435" y="243" on="1"/>
        <pt x="292" y="243" on="1"/>
        <pt x="292" y="110" on="1"/>
        <pt x="223" y="110" on="1"/>
        <pt x="223" y="243" on="1"/>
      </contour>
      <contour>
        <pt x="79" y="0" on="1"/>
        <pt x="83" y="69" on="1"/>
        <pt x="437" y="69" on="1"/>
        <pt x="433" y="0" on="1"/>
      </contour>
    </TTGlyph>
    <TTGlyph name="product" xMin="45" yMin="-135" xMax="599" yMax="660">
      <contour>
        <pt x="398" y="70" on="1"/>
        <pt x="398" y="408" on="1"/>
        <pt x="386" y="572" on="1"/>
        <pt x="229" y="572" on="1"/>
        <pt x="218" y="407" on="1"/>
        <pt x="218" y="72" on="1"/>
        <pt x="232" y="-125" on="1"/>
        <pt x="120" y="-125" on="1"/>
        <pt x="134" y="73" on="1"/>
        <pt x="134" y="408" on="1"/>
        <pt x="122" y="570" on="1"/>
        <pt x="45" y="566" on="1"/>
        <pt x="50" y="648" on="1"/>
        <pt x="490" y="648" on="1"/>
        <pt x="599" y="660" on="1"/>
        <pt x="589" y="566" on="1"/>
        <pt x="493" y="571" on="1"/>
        <pt x="482" y="407" on="1"/>
        <pt x="482" y="68" on="1"/>
        <pt x="503" y="-122" on="1"/>
        <pt x="412" y="-135" on="1"/>
      </contour>
    </TTGlyph>
    <TTGlyph name="q" xMin="50" yMin="-219" xMax="430" yMax="454">
      <contour>
        <pt x="231" y="54" on="1"/>
        <pt x="277" y="54" on="0"/>
        <pt x="330" y="78" on="1"/>
        <pt x="330" y="382" on="1"/>
        <pt x="303" y="393" on="0"/>
        <pt x="219" y="393" on="0"/>
        <pt x="179" y="383" on="1"/>
        <pt x="142" y="338" on="0"/>
        <pt x="142" y="224" on="1"/>
        <pt x="142" y="54" on="0"/>
      </contour>
      <contour>
        <pt x="330" y="32" on="1"/>
        <pt x="270" y="-15" on="0"/>
        <pt x="132" y="-15" on="0"/>
        <pt x="50" y="98" on="0"/>
        <pt x="50" y="194" on="1"/>
        <pt x="50" y="313" on="0"/>
        <pt x="177" y="454" on="0"/>
        <pt x="284" y="454" on="1"/>
        <pt x="350" y="454" on="0"/>
        <pt x="430" y="440" on="1"/>
        <pt x="412" y="327" on="1"/>
        <pt x="412" y="-106" on="1"/>
        <pt x="427" y="-209" on="1"/>
        <pt x="316" y="-219" on="1"/>
        <pt x="330" y="-21" on="1"/>
      </contour>
    </TTGlyph>
    <TTGlyph name="question" xMin="10" yMin="-16" xMax="325" yMax="631">
      <contour>
        <pt x="325" y="512" on="1"/>
        <pt x="325" y="480" on="0"/>
        <pt x="278" y="397" on="0"/>
        <pt x="250" y="366" on="1"/>
        <pt x="174" y="282" on="0"/>
        <pt x="171" y="270" on="1"/>
        <pt x="185" y="250" on="0"/>
        <pt x="241" y="221" on="1"/>
        <pt x="220" y="171" on="1"/>
        <pt x="168" y="182" on="0"/>
        <pt x="87" y="230" on="0"/>
        <pt x="87" y="273" on="0"/>
        <pt x="134" y="330" on="0"/>
        <pt x="190" y="383" on="0"/>
        <pt x="237" y="460" on="0"/>
        <pt x="237" y="519" on="0"/>
        <pt x="214" y="550" on="0"/>
        <pt x="192" y="557" on="1"/>
        <pt x="158" y="568" on="0"/>
        <pt x="117" y="570" on="1"/>
        <pt x="34" y="538" on="1"/>
        <pt x="10" y="616" on="1"/>
        <pt x="93" y="631" on="0"/>
        <pt x="156" y="631" on="1"/>
        <pt x="325" y="631" on="0"/>
      </contour>
      <contour>
        <pt x="96" y="54" on="1"/>
        <pt x="124" y="97" on="0"/>
        <pt x="166" y="124" on="1"/>
        <pt x="208" y="97" on="0"/>
        <pt x="236" y="54" on="1"/>
        <pt x="208" y="11" on="0"/>
        <pt x="166" y="-16" on="1"/>
        <pt x="124" y="11" on="0"/>
      </contour>
    </TTGlyph>
    <TTGlyph name="questiondown" xMin="42" yMin="-170" xMax="357" yMax="477">
      <contour>
        <pt x="42" y="-51" on="1"/>
        <pt x="42" y="-19" on="0"/>
        <pt x="89" y="64" on="0"/>
        <pt x="117" y="95" on="1"/>
        <pt x="193" y="179" on="0"/>
        <pt x="196" y="191" on="1"/>
        <pt x="182" y="211" on="0"/>
        <pt x="126" y="240" on="1"/>
        <pt x="147" y="290" on="1"/>
        <pt x="199" y="279" on="0"/>
        <pt x="280" y="231" on="0"/>
        <pt x="280" y="188" on="0"/>
        <pt x="233" y="131" on="0"/>
        <pt x="177" y="78" on="0"/>
        <pt x="130" y="1" on="0"/>
        <pt x="130" y="-58" on="0"/>
        <pt x="153" y="-89" on="0"/>
        <pt x="174" y="-96" on="1"/>
        <pt x="209" y="-107" on="0"/>
        <pt x="250" y="-109" on="1"/>
        <pt x="333" y="-77" on="1"/>
        <pt x="357" y="-155" on="1"/>
        <pt x="274" y="-170" on="0"/>
        <pt x="211" y="-170" on="1"/>
        <pt x="42" y="-170" on="0"/>
      </contour>
      <contour>
        <pt x="271" y="407" on="1"/>
        <pt x="243" y="364" on="0"/>
        <pt x="201" y="337" on="1"/>
        <pt x="159" y="364" on="0"/>
        <pt x="131" y="407" on="1"/>
        <pt x="159" y="450" on="0"/>
        <pt x="201" y="477" on="1"/>
        <pt x="243" y="450" on="0"/>
      </contour>
    </TTGlyph>
    <TTGlyph name="quotedbl" xMin="50" yMin="371" xMax="296" yMax="632">
      <contour>
        <pt x="207" y="371" on="1"/>
        <pt x="192" y="624" on="1"/>
        <pt x="296" y="632" on="1"/>
        <pt x="250" y="374" on="1"/>
      </contour>
      <contour>
        <pt x="65" y="371" on="1"/>
        <pt x="50" y="624" on="1"/>
        <pt x="154" y="632" on="1"/>
        <pt x="108" y="374" on="1"/>
      </contour>
    </TTGlyph>
    <TTGlyph name="quotedblbase" xMin="35" yMin="-154" xMax="356" yMax="124">
      <contour>
        <pt x="35" y="54" on="1"/>
        <pt x="64" y="95" on="0"/>
        <pt x="105" y="124" on="1"/>
        <pt x="150" y="93" on="0"/>
        <pt x="176" y="54" on="1"/>
        <pt x="153" y="-45" on="0"/>
        <pt x="78" y="-154" on="1"/>
        <pt x="44" y="-130" on="1"/>
        <pt x="74" y="-65" on="0"/>
        <pt x="86" y="-2" on="1"/>
        <pt x="57" y="20" on="0"/>
      </contour>
      <contour>
        <pt x="215" y="54" on="1"/>
        <pt x="244" y="95" on="0"/>
        <pt x="285" y="124" on="1"/>
        <pt x="330" y="93" on="0"/>
        <pt x="356" y="54" on="1"/>
        <pt x="333" y="-45" on="0"/>
        <pt x="258" y="-154" on="1"/>
        <pt x="224" y="-130" on="1"/>
        <pt x="254" y="-65" on="0"/>
        <pt x="266" y="-2" on="1"/>
        <pt x="237" y="20" on="0"/>
      </contour>
    </TTGlyph>
    <TTGlyph name="quotedblleft" xMin="40" yMin="358" xMax="361" yMax="636">
      <contour>
        <pt x="181" y="428" on="1"/>
        <pt x="152" y="387" on="0"/>
        <pt x="111" y="358" on="1"/>
        <pt x="66" y="389" on="0"/>
        <pt x="40" y="428" on="1"/>
        <pt x="63" y="527" on="0"/>
        <pt x="138" y="636" on="1"/>
        <pt x="172" y="612" on="1"/>
        <pt x="142" y="547" on="0"/>
        <pt x="130" y="484" on="1"/>
        <pt x="159" y="462" on="0"/>
      </contour>
      <contour>
        <pt x="361" y="428" on="1"/>
        <pt x="332" y="387" on="0"/>
        <pt x="291" y="358" on="1"/>
        <pt x="246" y="389" on="0"/>
        <pt x="220" y="428" on="1"/>
        <pt x="243" y="527" on="0"/>
        <pt x="318" y="636" on="1"/>
        <pt x="352" y="612" on="1"/>
        <pt x="322" y="547" on="0"/>
        <pt x="310" y="484" on="1"/>
        <pt x="339" y="462" on="0"/>
      </contour>
    </TTGlyph>
    <TTGlyph name="quotedblright" xMin="30" yMin="353" xMax="351" yMax="631">
      <contour>
        <pt x="210" y="561" on="1"/>
        <pt x="239" y="602" on="0"/>
        <pt x="280" y="631" on="1"/>
        <pt x="325" y="600" on="0"/>
        <pt x="351" y="561" on="1"/>
        <pt x="328" y="462" on="0"/>
        <pt x="253" y="353" on="1"/>
        <pt x="219" y="377" on="1"/>
        <pt x="249" y="442" on="0"/>
        <pt x="261" y="505" on="1"/>
        <pt x="232" y="527" on="0"/>
      </contour>
      <contour>
        <pt x="30" y="561" on="1"/>
        <pt x="59" y="602" on="0"/>
        <pt x="100" y="631" on="1"/>
        <pt x="145" y="600" on="0"/>
        <pt x="171" y="561" on="1"/>
        <pt x="148" y="462" on="0"/>
        <pt x="73" y="353" on="1"/>
        <pt x="39" y="377" on="1"/>
        <pt x="69" y="442" on="0"/>
        <pt x="81" y="505" on="1"/>
        <pt x="52" y="527" on="0"/>
      </contour>
    </TTGlyph>
    <TTGlyph name="quoteleft" xMin="40" yMin="358" xMax="181" yMax="636">
      <contour>
        <pt x="181" y="428" on="1"/>
        <pt x="152" y="387" on="0"/>
        <pt x="111" y="358" on="1"/>
        <pt x="66" y="389" on="0"/>
        <pt x="40" y="428" on="1"/>
        <pt x="63" y="527" on="0"/>
        <pt x="138" y="636" on="1"/>
        <pt x="172" y="612" on="1"/>
        <pt x="142" y="547" on="0"/>
        <pt x="130" y="484" on="1"/>
        <pt x="159" y="462" on="0"/>
      </contour>
    </TTGlyph>
    <TTGlyph name="quoteright" xMin="30" yMin="353" xMax="171" yMax="631">
      <contour>
        <pt x="30" y="561" on="1"/>
        <pt x="59" y="602" on="0"/>
        <pt x="100" y="631" on="1"/>
        <pt x="145" y="600" on="0"/>
        <pt x="171" y="561" on="1"/>
        <pt x="148" y="462" on="0"/>
        <pt x="73" y="353" on="1"/>
        <pt x="39" y="377" on="1"/>
        <pt x="69" y="442" on="0"/>
        <pt x="81" y="505" on="1"/>
        <pt x="52" y="527" on="0"/>
      </contour>
    </TTGlyph>
    <TTGlyph name="quotesinglbase" xMin="35" yMin="-154" xMax="176" yMax="124">
      <contour>
        <pt x="35" y="54" on="1"/>
        <pt x="64" y="95" on="0"/>
        <pt x="105" y="124" on="1"/>
        <pt x="150" y="93" on="0"/>
        <pt x="176" y="54" on="1"/>
        <pt x="153" y="-45" on="0"/>
        <pt x="78" y="-154" on="1"/>
        <pt x="44" y="-130" on="1"/>
        <pt x="74" y="-65" on="0"/>
        <pt x="86" y="-2" on="1"/>
        <pt x="57" y="20" on="0"/>
      </contour>
    </TTGlyph>
    <TTGlyph name="quotesingle" xMin="50" yMin="372" xMax="154" yMax="633">
      <contour>
        <pt x="65" y="372" on="1"/>
        <pt x="50" y="625" on="1"/>
        <pt x="154" y="633" on="1"/>
        <pt x="108" y="375" on="1"/>
      </contour>
    </TTGlyph>
    <TTGlyph name="r" xMin="65" yMin="0" xMax="339" yMax="454">
      <contour>
        <pt x="66" y="0" on="1"/>
        <pt x="80" y="198" on="1"/>
        <pt x="80" y="338" on="1"/>
        <pt x="65" y="441" on="1"/>
        <pt x="166" y="451" on="1"/>
        <pt x="162" y="376" on="1"/>
        <pt x="197" y="418" on="0"/>
        <pt x="251" y="454" on="0"/>
        <pt x="310" y="454" on="0"/>
        <pt x="339" y="441" on="1"/>
        <pt x="312" y="355" on="1"/>
        <pt x="222" y="382" on="1"/>
        <pt x="185" y="349" on="0"/>
        <pt x="157" y="298" on="1"/>
        <pt x="157" y="197" on="1"/>
        <pt x="168" y="0" on="1"/>
      </contour>
    </TTGlyph>
</ttFont>
